<?xml version="1.0" standalone="no"?>
<!DOCTYPE svg PUBLIC "-//W3C//DTD SVG 20010904//EN"
 "http://www.w3.org/TR/2001/REC-SVG-20010904/DTD/svg10.dtd">
<svg version="1.0" xmlns="http://www.w3.org/2000/svg"
 width="700.000000pt" height="700.000000pt" viewBox="0 0 700.000000 700.000000"
 preserveAspectRatio="xMidYMid meet">
<metadata>
Created by potrace 1.11, written by Peter Selinger 2001-2013
</metadata>
<g transform="translate(0.000000,700.000000) scale(0.100000,-0.100000)"
fill="#000000" stroke="none">
<path d="M241 6980 c-109 -39 -183 -115 -220 -227 l-21 -63 2 -3207 3 -3208
31 -65 c39 -80 96 -140 172 -177 l57 -28 3235 0 3235 0 55 27 c76 38 137 99
174 177 l31 66 2 3210 c2 2961 1 3214 -14 3260 -34 102 -102 181 -192 224
l-56 26 -3220 2 c-3174 2 -3221 2 -3274 -17z m6340 -429 c19 -23 19 -85 19
-3053 l0 -3029 -23 -23 -23 -23 -3058 1 -3057 1 -19 24 c-17 24 -18 127 -18
3035 -1 2068 2 3021 10 3044 5 19 20 37 32 41 11 5 1393 8 3069 7 l3049 -1 19
-24z"/>
<path d="M1396 5539 c-91 -10 -84 64 -84 -875 l0 -827 26 -24 26 -24 695 4
c383 2 707 7 721 10 14 4 43 9 64 12 68 9 178 45 250 83 60 32 176 132 176
153 0 4 6 14 13 21 7 7 22 36 34 63 58 136 48 298 -26 413 -44 67 -88 107
-152 137 l-47 21 48 27 c105 59 161 151 168 276 8 150 -29 251 -129 352 -104
104 -275 162 -522 175 -140 8 -1197 11 -1261 3z m1089 -440 c55 -27 71 -83 43
-152 -21 -53 -51 -59 -270 -60 -109 0 -200 2 -203 4 -3 4 -7 119 -6 189 l1 36
203 -2 c151 -1 211 -5 232 -15z m22 -640 c70 -26 99 -97 68 -163 -32 -66 -43
-69 -297 -70 l-227 -2 -3 51 c-2 27 -2 83 0 123 l4 72 213 0 c127 0 225 -4
242 -11z"/>
<path d="M3929 5539 c-63 -13 -64 -16 -64 -266 -1 -218 0 -228 21 -252 l21
-25 512 -1 c376 0 514 -3 519 -12 4 -6 6 -152 6 -325 -1 -330 -4 -352 -50
-407 -49 -59 -166 -92 -277 -79 -117 14 -169 49 -213 142 -15 33 -36 61 -48
66 -12 4 -168 7 -348 6 -355 -1 -356 -1 -359 -56 -5 -72 26 -180 76 -267 33
-56 152 -177 218 -222 182 -124 438 -193 712 -194 311 -1 538 55 724 178 149
97 234 217 282 396 22 82 23 98 26 677 l2 593 -24 25 c-17 17 -36 24 -62 25
-289 4 -1650 2 -1674 -2z"/>
<path d="M1339 3191 l-24 -19 -1 -831 c-2 -812 -1 -832 18 -856 l19 -25 274 0
274 0 19 25 c19 23 20 43 20 382 0 197 1 374 1 393 1 39 -5 49 120 -185 62
-115 92 -160 115 -176 14 -9 62 -14 151 -15 170 -3 180 2 247 126 20 36 55
101 79 145 88 164 79 193 79 -255 1 -336 3 -398 16 -415 13 -17 30 -21 122
-25 59 -3 184 -3 279 0 146 4 175 8 190 22 16 17 17 74 18 840 0 504 -3 831
-9 843 -20 43 -30 44 -304 45 -206 0 -270 -3 -297 -14 -41 -18 -52 -33 -253
-381 -82 -143 -154 -259 -158 -258 -7 1 -84 119 -84 128 0 1 -37 65 -81 141
-45 77 -107 184 -139 239 -85 149 -60 139 -389 143 -263 3 -279 2 -302 -17z"/>
<path d="M3910 3201 c-45 -13 -50 -39 -49 -274 1 -194 3 -220 19 -240 l18 -22
511 -1 c281 -1 516 -4 523 -7 10 -3 13 -76 12 -329 -1 -309 -2 -326 -23 -365
-38 -75 -125 -123 -233 -128 -140 -7 -230 37 -279 135 -45 88 -16 82 -384 81
-180 0 -335 -3 -345 -6 -50 -16 -38 -146 24 -275 34 -71 166 -214 246 -267 86
-58 256 -130 346 -147 10 -2 37 -9 59 -14 158 -41 480 -35 710 13 64 13 209
75 286 121 164 99 257 226 311 422 21 74 22 102 25 657 3 616 2 628 -44 646
-28 10 -1695 11 -1733 0z"/>
</g>
</svg>
