<?xml version="1.0" standalone="no"?>
<!DOCTYPE svg PUBLIC "-//W3C//DTD SVG 20010904//EN"
 "http://www.w3.org/TR/2001/REC-SVG-20010904/DTD/svg10.dtd">
<svg version="1.0" xmlns="http://www.w3.org/2000/svg"
 width="260.000000pt" height="260.000000pt" viewBox="0 0 260.000000 260.000000"
 preserveAspectRatio="xMidYMid meet">
<metadata>
Created by potrace 1.11, written by Peter Selinger 2001-2013
</metadata>
<g transform="translate(0.000000,260.000000) scale(0.100000,-0.100000)"
fill="#000000" stroke="none">
<path d="M0 1300 l0 -1300 1300 0 1300 0 0 1300 0 1300 -1300 0 -1300 0 0
-1300z m1718 961 c282 -60 427 -177 463 -375 23 -124 -19 -254 -113 -347 -93
-94 -254 -162 -415 -176 -40 -3 -73 -9 -73 -13 0 -4 33 -10 73 -13 157 -14
330 -86 435 -181 126 -115 175 -245 154 -411 -28 -227 -178 -374 -453 -447
-82 -21 -97 -22 -801 -24 -590 -2 -718 0 -718 10 0 8 19 19 43 25 58 14 93 43
121 100 44 86 46 125 46 921 0 835 0 833 -61 884 -17 15 -54 30 -89 38 -142
29 -65 33 613 32 654 0 675 -1 775 -23z"/>
<path d="M1167 2243 c-4 -3 -7 -202 -7 -441 l0 -435 56 6 c69 7 154 47 189 89
92 109 129 323 89 515 -37 180 -127 273 -265 273 -31 0 -59 -3 -62 -7z"/>
<path d="M1162 883 c3 -438 4 -449 25 -496 17 -38 31 -52 65 -67 56 -26 94
-25 148 3 58 29 101 87 128 173 96 312 21 660 -169 780 -42 26 -130 54 -171
54 l-29 0 3 -447z"/>
</g>
</svg>
