<svg id="Layer_1" data-name="Layer 1" xmlns="http://www.w3.org/2000/svg" viewBox="0 0 2182.34 2284.77"><defs><style>.cls-1{fill:#990;}.cls-2{fill:#fff;}.cls-3{fill:#2b2901;}.cls-4{fill:#8c8c8c;}</style></defs><title>bmj-eye</title><path class="cls-1" d="M737.15,1699.11c174.56,7.52,411.69-25,705.15-31.13s732.41,54.71,732.41,54.71L1529.84,535,1246.9,904.67Z" transform="translate(-325.18 -171.37)"/><path class="cls-2" d="M1725.74,1205a171.43,171.43,0,0,0-1.33-19.54c-0.82-6.63-1.44-13.44-2.74-20-0.78-3.92-2.7-7.52-4.24-11.16-3.78-9-3.84-8.91-9.76-16.57-3.54-4.59-3.48-5-6.08-7.46a69.59,69.59,0,0,0-21.94-14,84.09,84.09,0,0,0-9-3.71,87.42,87.42,0,0,0-14.31-2.2,48.87,48.87,0,0,0-18.41-8.17c-25-5-48.78-14.42-73.43-20.77a267.36,267.36,0,0,0-50.92-8.12c-14.72-.85-30,1.33-44.3,4-14.2,2.68-28.1,8.49-40.87,15a120.05,120.05,0,0,0-18.7,11.88l-14,5.89a65.68,65.68,0,0,0-12.6,9.66,68.91,68.91,0,0,0-29.19,16.38,245.54,245.54,0,0,0-43.88,55c-7.24,12.28-12.66,25.35-18.1,38.51a201.1,201.1,0,0,0-9,26.73c-5.8,22.53-9,46.61-8.17,69.92q0.24,7,1,14.06c1,9.14,1.68,20.22,4.86,29.37,5.35,15.42,10.63,25,21.31,37.19,6.47,7.38,14.94,13.46,23.58,18.16,13,7.08,27,12.71,41,17.59a197.89,197.89,0,0,0,28.8,7.69c24.89,4.67,50.46,7.35,75.73,4.67,26-2.76,50.58-7.37,74.73-17.48,22.7-9.5,45.74-19.29,66.31-33,26-17.31,49.3-39.07,63.33-67.39,1.41-1.35,2.78-2.72,4.09-4.16a179.93,179.93,0,0,0,20.14-26.47c5.87-9.53,10-20.19,14.12-30.5a125.6,125.6,0,0,0,5.67-17.73A223,223,0,0,0,1725.74,1205Z" transform="translate(-325.18 -171.37)"/><path class="cls-2" d="M1403.72,1186.25c-0.6-13.45-5-27.4-15.23-36.77-9.91-9.1-22.92-15.84-36.77-15.23a418.7,418.7,0,0,0-43.09,4.16c-14.29,2.12-27,6.72-40.2,12.74-12.56,5.73-23.85,14.85-33.48,24.66-6.42,6.55-12.3,13.6-19.1,19.73-3.31,2.3-6.68,4.55-10,6.85-9.31-1.12-18.74-1.55-27.92-1.84-13.07-.41-27.63,6.09-36.77,15.23a49.1,49.1,0,0,0-5.17,6.15h-28.12c-17.26,0-33.8,15.18-33,33s14.5,33,33,33h32.56a52.25,52.25,0,0,0,28.53,15.62,70.68,70.68,0,0,0,13.11,20.11,66.08,66.08,0,0,0,19,14.45c8.54,4.22,17.28,6.69,26,9.59,1.21,1.34,2.4,2.72,3.61,4.1a77.27,77.27,0,0,0,19.55,16.09,73.74,73.74,0,0,0,35,9.42c16.92,0.18,32.21-7.1,44.49-18.31l8.13-10.52a38.7,38.7,0,0,0,6.17-19.33c1.44-10.74.3-23.95-6.17-33.16-7.7-11-16-21.88-26.38-30.53-3.35-2.8-6.76-5.58-10.26-8.24l0.88-.95a54,54,0,0,0,29.81,9.16,56.23,56.23,0,0,0,38.54-16,58.11,58.11,0,0,0,13.53-22.45,48.6,48.6,0,0,0,4.56-4C1397.51,1214,1404.3,1199.21,1403.72,1186.25Z" transform="translate(-325.18 -171.37)"/><path class="cls-2" d="M1891.45,1240.33c-2.47-8.81-6.93-2.46-13.37-8.95-20.16-15.64-40.62-34.44-62.88-47s-45.59-32.84-69.36-42c-11.88-4.56-29.51-.94-40.07,5.24-10.79,6.31-21.07,18.68-23.9,31.08-3,13.31-2.38,28.25,5.24,40.07l8.13,10.52a52,52,0,0,0,22.95,13.37q3.7,1.42,7.38,2.91l1.89,0.85q-3.29,2.56-6.54,5.21c-6.46,5.28-12.25,11.31-18.47,16.86q-2.9,1.83-5.95,3.37c-12.12,4.53-24.59,8.3-36.83,12.43l-45.33,15.31c-12.85,4.34-24.09,12-31.08,23.9-6.52,11.15-9.29,27.57-5.24,40.07s11.87,24.72,23.9,31.08,26.81,9.72,40.07,5.24q37.93-12.81,75.85-25.62a290.8,290.8,0,0,0,27.83-11c9-4.14,16.32-10,24.18-16.12,7.68-6,14.4-13.08,21.71-19.49a136.24,136.24,0,0,1,18-10.17c14.82-5.56,30.19-9.48,45.56-13.27,17.46-4.31,31.6-19.2,36.32-36.32A52.37,52.37,0,0,0,1891.45,1240.33Z" transform="translate(-325.18 -171.37)"/><path class="cls-3" d="M762.1,1708.07c-3.81-.71-7.95,1.07-11.53-1.87-3.14-2.58-4.47.45-6.25,2.42-5.1,5.62-10.55,5.93-18.4,4.48-27.62-5.08-25.27-14.81-10.15-34.39,19.46-25.19,38.74-50.7,55.37-78.1,14-23.09,30.34-44.76,45.38-67.24,5.67-8.49,10.59-17.49,15.83-26.26,0.85-1.43,1.29-3.65,2.52-4.23,10.17-4.75,12.8-15.3,16.26-23.93,3.3-8.21,11-11.33,14.79-18.92,12.15-24.43,31.66-44.41,44-68.72,6.12-12,14.67-22.28,20.82-34.3,6.83-13.37,17.37-24.78,25.55-37.53,6.66-10.39,9.49-23.29,20.6-30.7,3-23.13,21.63-37.69,32-56.84,10.74-19.94,21.54-40.17,34.31-58.88a317.78,317.78,0,0,1,28.35-35c9.82-10.71,16.55-24.26,24.58-36.6q5-7.63,9.92-15.27c1.8-2.77,3.7-5.51,5.39-8.34,1.4-2.34,1.7-4.52,2.93-6.89,2.23-4.29,4.44-8.62,6.94-12.75a94.92,94.92,0,0,1,8.62-12.64c3.19-3.75,6.8-7.24,10.23-10.77,3.09-3.18,5-6.3,7.57-9.95q24.42-35,47.59-70.85c11.76-18.15,26.5-34.71,36-54.2,1.66-3.43,3.07-7,4.82-10.36,7.7-14.94,21.06-27.7,32.8-39.34,13.39-13.29,24.43-28.95,35.37-44.24,14.4-20.12,27.19-41.5,44.18-59.75,2.64-2.83,4.37-6.65,6-10.24,7.56-16.66,20.16-29.93,30.4-44.75,6.56-9.5,12.45-19.47,19.42-28.68,11.65-15.41,21.83-31.83,33.72-47.12,9.21-11.84,20.13-22.16,28.55-35,5.54-8.42,12.73-17.24,21.54-24.13,5.81-4.54,10.32-11.87,14.54-18.29,5-7.65,10.73-14.88,15.42-22.77,1.52-2.56,3.83-5,3.4-7.93-0.5-3.5-1.62-6.94,3-7.91a10.64,10.64,0,0,1,10.71,3.85,113.67,113.67,0,0,1,18.62,31c3.84,10,9.86,18.69,13.59,28.59,5.51,14.64,14.42,27.77,22.44,40.78,6,9.74,12.11,19.69,16.85,29.9,10.05,21.62,19,43.77,30,64.93,11.33,21.76,24.91,42.19,38.91,62.35,3.07,4.42,3.34,11,5.67,15.31,6.88,12.83,11.47,27.26,24,36.83,4.85,3.69,2.37,12.27,6,17.9,9,13.84,12.18,30.77,22.69,43.82,6.71,8.34,9.26,18.92,15.49,27.49,1.53,2.11,2.38,4.69,3.76,6.92,12.9,20.87,19.48,44.76,31.71,66,15.49,26.86,26,56.16,41,83.38,9.42,17.15,16.68,35.62,24.8,53.51,6.75,14.88,11.72,30.05,17.84,45s18.12,26.79,26,40.76c6.56,11.57,10.49,24.5,17.26,36,5,8.53,11.56,16.07,17.32,24.13,16.73,23.39,21.86,53.37,38.5,76s26.05,46.76,40.46,70.77c11.39,19,22.66,38.22,32.44,58,9.5,19.21,24.61,34.53,33.75,53.52,8.7,18.07,18.56,35.52,26,54.38a261.61,261.61,0,0,0,28.81,53.71c5.52,7.92,8,17.33,12.22,25.85,6.49,13.22,11.93,27.2,21.89,38.47,2,2.22,4.16,5,6.76,5.74,15.81,4.38,13.19,18.27,15.65,29.48,0.81,3.69-.2,5.72-5.06,6.07-12.17.87-23.53,2.07-35.84-3.24-12-5.18-25.21-9.75-39.32-8.06-7.17.86-14.65,1-21.48-2.66a7.35,7.35,0,0,0-3.84-.9c-20,1.66-40.21-.66-60,3.19-26.48,5.17-52.72,3.88-79-.72a48.79,48.79,0,0,0-13.88-.55c-22.27,2.62-44.24-1-66.35-2.14-8.38-.42-17.12,1.41-25.91,1.24-13.72-.27-26.64-6.58-40.44-4.74-31,4.15-62,.34-92.48-3.56-25.27-3.24-50.43-7.07-75.89-8.62-5.29-.32-10.64.17-15.92-0.23-18.1-1.37-36.35-2-53.95-7-10.41-3-20.38,1.84-30.71.81-20.33-2-41.12,3.07-61.06-1.51-12.57-2.89-25,.2-37.19-2.66a9.07,9.07,0,0,0-4,.08c-25.34,5.87-50.82,2.41-76.09.23-28.42-2.45-56.68.37-85,0-23.8-.3-47.79-1.88-71.33.57-15.15,1.57-30.22,2.9-45.39,3.12-22.08.32-44.06,2-66.08,3.42-13.47.89-27,1.69-40.48,2.78-23.66,1.92-47.14,6.09-70.79,8.33-18.82,1.79-38,3.71-56.59-.24-10.47-2.23-20-1.86-30.09-.1-15.29,2.66-31.11,1.19-46.26,3.8-18.08,3.11-35.29,3.06-52.52-3.17C775.89,1704.65,769.11,1709.61,762.1,1708.07Zm1164.2-49.9c-0.87,1.73-2,2.92-1.94,4,0.44,7.85-2.73,10.31-10.74,9.63-6.06-.51-13.13.2-18.32,3s-15.61,1-14.86,8.34c0.48,4.68,10.64,5.22,16.57,5.3,27.65,0.37,55.27,1.68,82.9,2.49,24,0.7,48.25-1.86,71.87,1.16,17.9,2.29,35.8,2.16,53.62,4.14,10.51,1.17,20.92,2.78,31.32,4.54,3.12,0.53,5.83-.07,7.72-3.13,1.24-2,1.26-3.61-.09-5.44-11.38-15.41-20.54-32.18-30.31-48.59-2.2-3.69-5.51-8.08-11.24-5.54a129.59,129.59,0,0,1-31,9c-32.41,5.65-65.35,8.35-97.28,16.95-4.41,1.19-9.78-.73-14.59-1.76a5.3,5.3,0,0,1-4.1-5.12,5.25,5.25,0,0,1,3.64-5.41c12.1-4.74,24-9.64,36.75-13.06,10.37-2.79,21.31-4.22,31.28-8.89,4.21-2,6.79-6,11.84-7,15.1-3.08,26.86-12,37.44-22.86,2.75-2.81,2.76-5.15,1.79-8.83-1.67-6.31-6.68-10.72-8.51-16.73-4.77-15.75-11.51-30.42-21.35-43.74-3.67-5-4.94-11.46-9.86-15.94s-9-8.07-12.41,1c-1,2.68-3.58,2.55-5.8,3.14a132.54,132.54,0,0,1-65.46.94,49,49,0,0,0-7.84-1.41c-29.69-2.06-57.49,7.41-85.72,14.18-1.21.29-2.16,1.52-3.34,2.05-16.86,7.57-32.52,17.55-50,23.85-8.36,3-17.1,1.79-25.4,4.12a182.4,182.4,0,0,1-48,6.8c-2.32,0-5.34,1.13-5.67-2-0.39-3.66,3.17-2.44,5.16-2.61,33.67-2.88,62.22-19.51,90.82-35.09,18.22-9.92,35.18-21.87,55.27-28.36a102.17,102.17,0,0,0,27.25-13.88c7.74-5.5,14.67-11.29,24.52-13.11,21.37-3.95,42-11.49,63.94-12.93,8.27-.54,9.37-3.59,5.25-11-3.7-6.65-7.81-13.08-11.69-19.64-3.54-6-13.16-9.61-19.51-7-2.08.86-3.64,2.2-6.32,2.09-23.32-1-45.94,5.13-69,7.29-9.23.87-19.22,1.05-27.34,4.82-13.81,6.41-28.56,9.11-42.79,13.65a99.73,99.73,0,0,0-17.29,7,318.07,318.07,0,0,1-43.71,20c-12.11,4.36-23.58,10.08-35.47,14.85-20.1,8.07-35.47,23.86-53.49,35.45a406.89,406.89,0,0,0-45.24,34.33c-15.65,13.5-36,13.71-53.83,20.59-25.32,9.75-52.6,13.39-79.55,17a144.19,144.19,0,0,1-48.33-1.53c-17.25-3.48-35.74-1.05-51.22-12.1-5.29-3.77-11.53-5.39-17.53-7.51-2.77-1-5.78-1.34-8.46-2.48-1.57-.67-4.1-1.63-3-4.22,0.76-1.74,2.49-1.69,4.28-1.1,12.06,4,24.78,3.38,37.16,4.57,19.07,1.84,38.35,2,57.44,3.46,27.09,2.06,53-2.27,79.05-8.38,15.13-3.54,24.76-15.56,38.63-21.27a132.59,132.59,0,0,0,48.76-35.09c11.1-12.5,24.67-22.77,36.7-34.48a241.12,241.12,0,0,1,37.24-29.16c20-13,40.89-24.32,63.25-33.06,18.27-7.14,35.91-15.89,53.77-24.06,14.22-6.5,29.54-9.67,44.16-15,23.25-8.53,44.65-21.95,69.44-26.31,5.33-.94,5.84-3.74,3.58-7.75-3-5.38-8.07-9.87-6.62-17.09,0.32-1.62-1.27-2.95-3-3.48-4.66-1.4-6.08-6-8.61-9.3-4.65-6.06-15.87-11.06-22.2-7.07-8.8,5.55-22.46,3-26.89,15.91-0.31.89-2.2,1.43-3.45,1.76-10.1,2.7-17.21,10.69-26.72,14.74-15.54,6.61-29.89,15.77-46.6,20.05-5.75,1.47-12,3.36-17.17,7.29-15,11.39-32.18,18.67-49.66,25.39-7.4,2.84-14.72,4.69-21,11.56a80.3,80.3,0,0,1-29.66,20.42c-39.14,14.85-79.2,27.12-119.15,39.69-19.36,6.09-39,6.13-58.43,9.49-20.87,3.62-41.48-2.08-62.33-1.92a213.25,213.25,0,0,1-53.18-6c-13.91-3.44-28.28-6.43-41.69-11.14-27.2-9.56-49.25-28-67.81-49.33-11.87-13.64-25.31-24.59-39.59-34.94-11.2-8.12-20.35-18.47-32-26.35-15.33-11-24.53-22.33-41.37-29.65-19.55-8.5-40.16-14.25-59.93-22.21-14.51-5.84-25.27-14.07-33.94-27.13-5.21-7.86-3.84-14.07-1.3-21.29,8.78-24.85,39.32-19.32,62.29-28.41,23.52-9.31,45-22.9,67-35.41,58.76-33.45,121.38-59.49,183.81-85.44,69.94-29.07,136.21-57.9,210.22-21.43,28.4,14,58.5,16.27,88.07,28.4,17,7,34.69,11.73,49.36,23.55,15.3,12.32,33.52,19.51,50.5,28.89,23.27,12.85,45.15,28,66.88,43.3,1.37,1,2.74,2.29,4.46,1.39,1.9-1,1.09-3,.81-4.46-1.17-6.13-2-12.32-4.85-18.09-3.82-7.71-8.4-15.39-10.32-23.62-2.85-12.21-12.59-18.93-19.19-28.12a2.15,2.15,0,0,0-1.69-.88c-7,2.66-10-3.4-14.25-6.6a51.34,51.34,0,0,0-12.83-7.38c-8.77-3.31-16.37-8.94-21.09-17.09-2.85-4.91-6.82-7.74-11.18-10.67-8.72-5.85-17.55-11.55-25.16-18.93-1.66-1.61-2.72-2.9-1.72-5s3.14-1.35,4.15-.37c11.29,11,28.91,12.9,38.11,27,3.25,5,8.39,8.32,13.7,11.27,9.15,5.09,18,10.72,25.19,18.83-3.14-10.16-7.51-19.69-10.47-29.65-5-16.93-18.52-29.85-22.43-46.93-2.32-10.12-10.65-16-14-25-1.12-3.06-3.71-6.33-7-6.52-6-.35-10.51-4-15.77-5.9-6.09-2.18-12-5.33-16.13-11,9,4.13,19.15,4.92,27.64,10.13,1.93,1.18,3.9,2.84,6.34,1s0.43-4.26.58-6.41c0.38-5.7-5.07-8.11-6.88-12.8-6.14-16-15-30.81-19.56-47.47-1.26-4.58-4.51-7-9.72-6.71-6.84.44-14,1.79-20.5,0.41-16-3.4-31.85-7.8-47.57-12.44-13.33-3.94-25.24-11.52-38.05-16.57-21.11-8.33-43.29-12.49-66.13-14.93-29.91-3.19-56.06,9-83.65,15.52-9.07,11.63-24.57,7.94-35.68,14.86-1.72,1.07-5.18,3.42-6.79-.46-1.09-2.63.59-5.16,2.48-7.11,1.14-1.18,2.48-2.57,4-2.94,18.33-4.63,31.77-18.7,50.21-24.37,17.05-5.24,33.7-9.2,51.34-10.95,26.48-2.62,51.26,6.15,76.62,10.53,11.63,2,23.15,6.13,34.85,8.51,20.67,4.2,41.29,10,62.84,5,5.31-1.24,7.17-2.72,4.29-7.8-2.27-4-4.49-8-6.49-12.17-7.4-15.32-14.5-30.78-22.15-46a15.35,15.35,0,0,0-10.57-8.49,111.1,111.1,0,0,0-17.73-2.24c-16.9-.46-31.28-7.41-45.87-15.19-7.21-3.84-14-9.82-22.3-10.75-8.5-.94-16.54-3.64-24.6-5.76-9-2.37-17.66-3-26.28-.54-12.54,3.55-24.69.74-36.14-2.87-9.41-3-19.19-5.64-28.5-6.76-11.1-1.34-19.8-4.06-27-13.39,13,0.89,24.8,5.66,37.33,5.67,12.23,0,24.07,4.76,36.81.67,8.17-2.62,17-1.78,26.1,1.6,13.48,5,28.12,8.39,42.77,6.27a94.76,94.76,0,0,1,29.7,0c9.43,1.59,19,0,28.54,1.84,6.56,1.24,8.84-2.38,5.67-8.26-3.89-7.21-8.73-13.93-12.37-21.25-7.33-14.73-17.59-25.16-34.94-26.63-2.24-.19-5.22-0.57-6.47-2-3.8-4.48-8.11-3-12.79-2.66-10.71.74-21,6-32.22,2.17-6.43-2.18-11.58-7.2-19.08-7.41-2.28-.06-9.31.24-8.42-4.41,1.08-5.69,6.71-3.58,10.91-2.68,2.6,0.56,5.33.75,7.29,2.88,2.86,3.13,7.66,3.24,10.2,2.4,7.8-2.6,16.26-2.35,23.74-6.13a46.79,46.79,0,0,1,22.94-4.91c6.16,0.22,6.12-2.74,4.32-6.77-4.11-9.16-10-17.45-13.08-27.14-3.42-10.66-11.47-18.81-16.27-28.88-3-6.39-6.1-14.93-13.37-17.32-6.14-2-11.44-5-18.95-8.07,5.85-.42,9.08,1.36,12.45,2.55,1.76,0.62,3.55,2.58,5.38.63s1.57-4.34.6-6.58-2.28-4.08-3.11-6.24c-4.36-11.25-12.67-20.5-15.07-33-1-5.4-4.3-11-6.61-16.45-1.08-2.55-3-5.73-6.46-5.19-3.27.51-7.25,2.45-7.52,5.73-1.28,15.67-15,24.56-20.22,38.61-5.1,13.75-17.57,24.77-26.75,37-3.35,4.48-2.7,8.1,2.79,10.11a29.57,29.57,0,0,0,16.75.75,26.72,26.72,0,0,1,23.3,5.2c2.61,2,6.19,3.92,5,7.78-1.22,4.09-5.52,3.4-8.58,3.13-11.48-1-22.72-.64-33.85,2.81-7.34,2.27-14.81,4.08-22.76,3.34-3.07-.28-7.89-1.92-9.43,1.17-4.41,8.84-12.86,14.36-17.61,22.67-10.18,17.82-21.15,35.15-34.67,50.55-7.39,8.41-10.27,20.38-20.46,26.21-4.69,2.68-7,6.55-9.79,10.71-7.09,10.72-13.21,22.71-22.48,31.15-6.51,5.92-12.77,11.72-18.22,18.62-4.17,5.28-4.35,7.69,3,10.39,20.22,7.43,39.88,2.58,59.36-1.9,20.53-4.73,38.91-16.52,60.24-19.16,6.62-.82,13.2-0.21,19.82-0.7,17.29-1.26,34.72-1.17,51.84,2.72,2.62,0.59,5.45.69,4.47,4.84-2-.53-3.9-1.64-5.59-1.38-14.22,2.18-28.42,4.47-42.57,7-4.61.83-8.91,1.33-12.78,5.94-2.75,3.28-8.34,7.7-12.75,7.71-7.5,0-11.94,4.13-15.8,8.63a22.86,22.86,0,0,1-14.21,8.24c-4,.67-7.45,3-11.1,4-13.62,3.59-26.91,9.93-41.67,6.8-3.92-.83-7.81-0.14-11.77.06-16.61.87-33.47-.61-49,7.49-1.07.56-2.67,0-4,.29a109.78,109.78,0,0,0-22.48,7.45c-3.16,1.48-8.67,3.09-10.74,5.94a97.31,97.31,0,0,0-11.92,21.81,2.94,2.94,0,0,0-.28,1.83c0.3,1.06,1.6,1.43,2.69,1.58,8.48,1.17,16.57-1.12,24.91-1,4,0.08,8.2.54,12.2,1,1.72,0.2,11.52,3.1,12.45,2.41-8.39,6.31-19.91,5.36-30.4,5.87-10.24.5-20.32,2.66-30.34,4.82a21.34,21.34,0,0,0-5.85,1.86,19.18,19.18,0,0,0-4,3.22A95,95,0,0,0,1224.28,948c-3.17,5.2-5,11.37-7.85,16.81a237.6,237.6,0,0,1-12.49,20.86c-11.41,17-23.27,33.87-32.65,52.2a6.35,6.35,0,0,0,5.56,9.1c3.23,0.15,6.51,0,9.73,0,13.24,0,27.15,3.55,39.56-.5,11.34-3.7,23.46-3.12,34.48-9.67,19.58-11.65,43.12-11.68,64.65-18,22.71-6.7,46.44-10.88,68.17-20,21.31-9,43.29-15.44,64.94-23.11,8.74-3.1,18.23-2.83,26.82-5.76,12-4.08,24.2-5.25,36.53-6.9,14.2-1.9,28.24.43,42.37,0.31,26-.22,51.13,4.25,70.35,23.72,9.26,9.39,18.45,18.47,29.79,25.29,3,1.81,9.92,1.38,8.36,5.65-1.76,4.78-7.63,0-11.71.55-3,.38-4.52-2.32-6.5-4.07-14.54-12.9-31.77-19.06-51-20-51.76-2.41-92.93-3.08-143,14.31-60.54,21-121.38,42.16-177.79,72.58-16.6,9-32.86,18.73-50.51,25.37a156.86,156.86,0,0,1-94.66,4.8c-4.21-1.11-8.77-2.39-12.79-.7-3,1.27-5.15,4-7.12,6.62-11.87,15.72-25.75,32.23-33.46,50.56-5.86,13.94-8.57,26.28-16.88,39.57-17.64,28.21-31.75,58.71-51.19,85.9-9.63,13.46-15.62,29.12-26.71,41.67-4.67,5.28-2.28,8.79,4.6,10.88,7.43,2.26,14.59-1.09,21.76,0,31.51,4.9,62.26,13.49,90.22,28.42,23.66,12.62,48,24.42,67.53,44.6,12,12.37,28.57,20.76,44.08,29.08,20,10.7,40.82,19.77,61.51,29.06,7,3.14,14.41,6.56,23.63,3.48-7.17-6.05-10-15.89-21-15.62-1.62,0-3.47-2.84-5-4.59-9.63-11.34-18.73-22.93-31.87-31a66.18,66.18,0,0,1-21.63-21.24,57.11,57.11,0,0,0-12.87-14.77c-16.48-13.33-32.8-26.86-49.59-39.8-6.2-4.78-13.18-9.3-21.23-10.1-13.66-1.35-26-6.75-38.58-11.48-2.09-.79-6.71-1.41-4.85-6,1.74-4.27,5.35-2.83,8.6-2.48,15,1.63,28.69,7.71,42.92,12a97.87,97.87,0,0,1,20.77,9.14c14.11,8.09,26.73,18.32,40.39,26.91,15.1,9.5,29.93,18.84,41.08,33.12,2.35,3,5.54,5.39,8.7,7.82,11.82,9.06,24.91,16.76,34.47,28.41,4.13,5,8.92,8.63,14.21,12.18,20.36,13.64,43.58,21.67,64.9,33.51,13.32,7.4,29,10.53,43.59,15.67,7.89,2.78,15.86,5.19,24.32,4.81,10.85-.48,21.66-0.6,32.55-0.22,12.27,0.43,23.5-5.08,35.09-9.22,15.38-5.49,30.35-11.66,45.41-17.88,8.56-3.53,17.77-8,27.79-6.25,2.24,0.38,5.92.29,5.46,4.26-0.3,2.55-.59,6.26-3.71,6.38-14,.53-25.31,6.74-35.37,15.9a2.57,2.57,0,0,1-1.87.47c-10-1.44-17.81,5.32-26.77,7.77-3.58,1-11,2.21-8.44,10.28,0.64,2-2.74,2.44-4.09,3.75-7.28,7.07-16.87,3.81-25.23,5.91-22.19,5.57-43.89,7.76-67.13,3.2-22.85-4.48-44.16-10.75-63.73-23.26-7.66-4.9-14.42-11.18-22.81-15-3.89-1.75-7.7-4.72-10.46,1.85-2,4.64-6.41,4.7-10.92,4.45-17.74-1-34.14-6.47-49.56-14.92-3.59-2-7.43-4.18-11.07-4.15-22,.13-38.36-14.88-57.94-21.32-15.92-5.23-29.9-16.4-44.7-25-3.67-2.13-7.88-7.07-10.66-6.33-10.1,2.71-16.36-4.44-24.4-7-22.11-7.13-43.76-15.7-66.35-21.34-23.2-5.79-46.9-8.06-70.58-10.52-7.17-.74-13.5,1-17.72,6.92-8.87,12.37-17.78,24.74-24.69,38.39-3.28,6.48-1.29,10.21,5.59,11.4a222.82,222.82,0,0,1,25.22,5.5c20.74,6.12,41.08,12.93,59.42,24.86,6.71,4.36,10.67,11.46,18.08,15.26,23.53,12.06,45.05,27.46,67.36,41.56,16.56,10.47,32.55,21.78,50.49,30.18,13.8,6.47,29.35,6.94,42.73,15.33,7.1,4.46,10,9.22,8.36,15.58-2,7.73-9.63,4.45-14.53,3.61-15.5-2.66-30.23-8.29-44.86-13.88-20-7.63-36.29-22.16-56-30.56-9.65-4.11-19.21-10-28.75-12.89s-15.08-15.29-27-10.53c-18.67-7.93-38.75-10.66-58.17-15.8-25.79-6.83-52.11-10.11-78.5-13.19a17.8,17.8,0,0,0-18.12,9.5c-8.38,15.74-18.59,30.3-28.85,44.64-4.84,6.76-6.18,15.61-12,20.7-11,9.55-15.38,23.14-23.58,34.31-6.41,8.74-5.34,10.79,4.18,15.28,19.29,9.1,38.56,18.24,58,27,3.54,1.6,7.94,4.15,6.08,6.87s-6.89,6.86-10.91,4.36c-6.61-4.11-14.9-3.9-20.9-8.69-11-8.78-24.36-13.37-36.12-20.79-6.33-4-15.35-1.87-19.78,3.78-12.33,15.7-24.75,31.33-36.8,47.25-2.55,3.38-4.19,6.64,3.09,8.84,21.49,6.49,43.22,2.19,64.45,1.07,14-.74,29-2,42.93-6.84,4.56-1.57,10.54-2.84,14.67-1.22,18.5,7.28,37,1.43,55.38.91,21.77-.62,43.48-3.32,65.22-5,6.47-.49,12.81-2.14,19.55-0.07,2.86,0.88,7.65-.46,8.63-5,0.58-2.69-.52-5-3.05-6.83-15.3-10.85-32.1-19.2-47.94-29.13-6.48-4.06-12.68-8.77-20-10.83a42.28,42.28,0,0,1-20.13-12.18c-5.25-5.69-12-8-18.93-10.22-2.51-.79-6.29-0.8-7.3-2.49-3.54-5.86-8.57-5.11-13.94-4.76-2.29.15-5.55,1.41-5.89-3.08-0.42-5.52-3.24-7.46-8.85-5.76-4.84,1.47-5.13-3.16-6.22-5.94-0.85-2.19-.54-5.36,2.64-5.21,7.35,0.35,15.75-4.53,21.56-.74,9.93,6.48,21.53,5.73,31.75,10.5,12.51,5.83,26.05,9.48,39.09,14.09,13.5,4.78,27.5,7.85,40.85,13.77,8.81,3.91,14.58,11.11,22.9,15.31,14.9,7.51,30.12,14.76,40.92,28.59,5.24,6.7,14.19,12.12,21.4,12.18,15.75,0.14,31.68.62,47.46-.79,22.65-2,45.23-5.7,67.9-6.21,23.51-.53,46.87-1.7,70.28-3.84a243.82,243.82,0,0,1,53.62,1.52c19.72,2.58,39.5,1.17,59.22,1.83,14.07,0.47,28.83-1.27,42.43.55,28.26,3.8,56.45,1.53,84.6,2.4,20,0.62,40.32.54,60.25-.52,19.29-1,38.45,2.67,57.7-.55,18.61-3.11,37-6.79,54.12-14.82,8.89-4.15,15.45-12.94,25.68-14.26a632.68,632.68,0,0,0,72.73-13.62c19.15-4.8,38.39-9.27,57.5-14.21,12.53-3.24,24.78-7.71,37.41-10.43,12-2.59,22.59-8.87,36.49-7.48,11.3,1.13,23.93-2.29,36.43-2.46-5,7.64-11.34,12.19-20.68,10.74-4.6-.71-8.56.73-12.42,2.76-7.15,3.74-14.84,5.66-22.62,7.55-12.53,3-26.53,2.8-37.13,10.48-21.5,15.58-45,27.58-68,40.47a25.06,25.06,0,0,0-10.12,10.13c-3.61,6.4-2.18,8.12,4.3,8.72,13.29,1.24,26.65,4.05,39.82,3.32,4.95-.28,17.39,2,15.82-11.39-0.35-3,3.44-4.71,6.38-5.5C1881.73,1663.63,1902.73,1657,1926.3,1658.17ZM1519,1076.87c-5.9-.31-12-1.7-17.67-0.75-26.58,4.44-51.71,14.56-76.17,24.79-26.83,11.21-51.69,27.41-75.3,44.9-1.82,1.35-4.16,1.41-5.73,3.63-9.28,13.15-19.17,25.88-28.12,39.25-3.42,5.11-8.39,10.16-9.9,15.41-6.17,21.48-16.12,41.68-20.55,63.76-3.58,17.84-3.81,34.92.48,52.91,3.51,14.73,6.6,30,4.31,45.84-1.27,8.82-1.45,19.19,5.28,26.34,10.1,10.72,19.93,22.07,36.15,24.69,5.89,1,12.62,2.75,17.29,7.13,5.52,5.18,12.1,6.74,19,7.25,13.77,1,27.52,1.79,41.37,2.06,19.43,0.39,38.83,2.81,58.36,3.48,19.12,0.65,38.16-1.54,55.22-8.08,15.42-5.91,31.91-6.94,46.89-14.17,16.91-8.15,35.45-12.38,53.23-18.46,7.2-2.46,13.58-6.75,17.31-15,8.29-18.36,20.65-34.28,34.94-48.34,14-13.76,22.27-30.29,26.87-48.87,6.84-27.65,12.91-55.49,19.85-83.11,3.55-14.12,2.67-27.49-3.85-40.38-6.36-12.57-17.79-21.6-24.23-34.16a3.93,3.93,0,0,0-2.24-1.88c-11.16-2.62-21.15-8.3-31.5-12.8-14.15-6.15-29.7-8.18-43.3-15.71-3.73-2.07-7.81-4.34-11.91-4.74-14.14-1.37-27.83-5.72-42.15-5.87-5.37-.06-10.53-1.85-13.46-7.18-1.72-3.13-4.31-3.64-7.64-2.91C1534.31,1077.55,1526.64,1076.67,1519,1076.87Zm295.62,186c8.26-6.8,15.81-13.18,25-17.78,5.34-2.67,12.15-6.4,8.19-14.26-2.46-4.88-5.39-9.82-9.89-13.57A408.59,408.59,0,0,0,1787.8,1182c-15.58-9.44-32.1-17.34-48.29-25.75-2.37-1.23-4-6-7.29-3.11-2.8,2.46.39,5.4,1.51,8,10.26,23.28,15.41,47.28,10.57,72.75-1,5.18-3.82,12.12.4,15.11,4.62,3.27,11.28.69,16.42-3a32.44,32.44,0,0,1,7.88-4.22c11.63-4.09,23.45-7.36,36-6.25,2.32,0.2,5.07.3,5.54,3.17s-0.69,5.42-3.72,6.23c-11.74,3.15-23.25,6.85-34.71,11a31.26,31.26,0,0,1-20.05.43c-6.59-2-13.06,1.47-15.41,9.23-2.29,7.59-4.77,15.12-6.8,22.78a155.72,155.72,0,0,1-7.91,22.29c-6.09,14.06-19.93,19.67-28.82,30.43-7.44,9-16.67,16.61-22.3,28.36,5.9,0.2,9.47-2.28,13.11-4.39,6.6-3.83,12.75-8.82,19.78-11.46,22.67-8.5,41.43-24.64,65.1-31.58a157.15,157.15,0,0,0,36.69-16.27c11.52-6.95,25.09-10.42,36.93-16.93,12.2-6.7,23.31-15.35,38-16.28,3.77-.24,4.53-3,2.69-5.65-5.33-7.58-10.39-15.43-19.08-20-2.86-1.49-4.8-1-7.36.18-10.48,4.9-21.64,8.27-31.56,14.44C1822.32,1263.22,1819.37,1265.08,1814.61,1262.88Zm-500.85-100.45c-6.68,3-12.27,4.94-17.4,7.77q-35.17,19.38-72,35.26c-15.51,6.69-30.61,14.31-46.9,19.13-10.88,3.22-23.46,4.68-24.29,20.38-0.12,2.25-2.61,4.61-4.45,6.47-3.65,3.67-5.62,8.32-7.53,12.86-6.6,15.77-4.56,20.25,8.77,26.46,33.14,15.43,64.68,33.51,92.56,57.5a147.7,147.7,0,0,0,16.86,12.41c4.58,2.92,8.81,3.95,8.65-4.35-0.38-19.52-.39-39-0.5-58.57,0-5.4-2.36-6.38-6.95-4.08-4.44,2.22-9.2,2.26-13.25-.47s-8.21-4-13.09-3.05c-1.86.36-4.49,0.92-5.22-1.45-1-3.39,2.47-3.45,4.29-4.27,8.19-3.69,16.49-6.82,25.69-7.58,4.44-.36,10.67-0.05,11.2-7.3,0.83-11.38,4.75-21.93,8.72-32.46,6.55-17.35,11-35.51,20.79-51.6C1304.06,1178.28,1311.16,1172.73,1313.76,1162.42ZM1113.5,1278.73c5.56,2.72,5.58-3.05,6.11-8.26,0.71-6.91,1.65-13.74,4.24-20.28,1.24-3.12,5.31-7.13,1.21-9.6-3.92-2.37-9.91-5.28-14-2.4-6.07,4.29-12.63,3.18-19,4.25-3.33.56-6.53,1.14-9.38,2.9-5.86,3.6-8.17,7.7-3.9,14.63C1086.35,1272.14,1097.36,1277.23,1113.5,1278.73Z" transform="translate(-325.18 -171.37)"/><path class="cls-2" d="M1910.22,734.62c-10.45.37-20.79,1.57-31.17,2.74-14.79,1.67-29.58,1.29-44.49.66-12.13-.51-24.7,1.88-35.45,9.22a70.26,70.26,0,0,1-16.08,7.85c-3.16,1.13-5.9.84-8.25-1.41-2.59-2.49-.66-5,0.52-7.25,5-9.71,10.26-18.77,19.84-25.51,13-9.13,20.81-23.91,33.31-33.9,17.89-14.3,30.95-33.07,46.06-49.93,1.83-2,3.9-4,2.61-6.94-1.21-2.78-3.92-1.56-6.11-1.93-12.26-2.07-24.24,1.48-34.94,5.42-20.25,7.46-41.29,7.84-62,11.17-8.49,1.37-16.61,2.86-24.59,7.06-10.35,5.45-22.56,3.88-34,4-5.61.05-4.94-5.49-2.64-9.18,2.7-4.35,7.27-6.71,11.77-9,16.83-8.46,35.57-11.42,52.91-18.43,15-6.07,30.32-11.4,45.13-17.89,4.55-2,8.17-6.17,11.73-10.33,7.62-8.92,18.06-14.46,29.6-17,10.24-2.27,19.19-7.32,28.47-11.73,8.45-4,16.67-8.12,26.48-8.65,6-.32,10.43-6.17,17.23-6.68,11.69-.88,24.54,5.78,29.17,16.38,3.2,7.34,4.55,15.88,12.88,20,1.81,0.89,1.29,2.91,1.17,4.49-0.51,6.94-.78,13.93-1.82,20.79-0.89,5.84-6.45,7.11-10.91,9.11-18.92,8.5-35.59,20.74-53,31.77a39.64,39.64,0,0,1-6.06,3.4c-18.2,7.43-32.49,20-47.38,32.53-7.9,6.65-10.92,18.15-22,21.26-1.82.51-4.29,4.56-2.61,5.55,3.17,1.88,8,3.62,11.13,2.5,30.9-11.23,63.2-18.77,92.77-33.38a200.91,200.91,0,0,1,41.84-15.17c14.94-3.59,35-.91,43.55,17.63,1.94,4.2,6.17,5.92,8.14,9.68,5.7,10.85-.76,28.45-12.3,33.88-14.59,6.86-28,15.82-41.72,24.12-6.77,4.08-14.41,10.09-21.35,9.71-10.36-.56-14.73,9-23.91,9.66-9.68.72-18,7.09-27.35,10-13.32,4.16-27.79,8.07-38.4,16.39-8.92,7-18.81,10.28-28.29,14.74-11.17,5.26-23.61,7.75-35,12.91-2.33,1.05-5.78,3.16-8-.56s0.3-6.46,2.28-9c1.6-2.06,4-3.23,6.56-4.35,28.2-12.57,54.72-28.36,81.91-42.88,13.36-7.13,21.73-20.34,34.59-28.06a4.3,4.3,0,0,0,2-3.14c-0.14-2.07-2.22-2.21-3.82-2.27C1916.87,734.53,1913.54,734.62,1910.22,734.62Z" transform="translate(-325.18 -171.37)"/><path class="cls-2" d="M1916.69,881.3c-8.54-2.92-17.47-.33-25.87.4-21,1.83-41.61,7.15-62,12.79a27.48,27.48,0,0,0-4.49,1.92c-6.6,3.19-17.82-2.58-18.66-9.93-0.31-2.73,2.32-4.16,4.43-5.85,7.43-5.94,16.93-5.24,25.19-8.41,3.88-1.48,8.8-1.46,7.5-8-0.72-3.59,2.24-3.77,4.93-4.71,8.18-2.88,16.59-3.52,25.1-4.58a232.18,232.18,0,0,0,56.77-14.59,289.5,289.5,0,0,1,62.12-16.61c12.71-2,26.34-4.79,37.33-12.7,8.06-5.8,18.92-5.14,26.15-12.53,2.32-2.37,4.94-1.39,6.19,1.82,2.85,7.32,8.92,12.22,13.48,18.25,5.41,7.15,6.33,16.32,9.85,24.37,4.56,10.45,11.53,20.06,12.78,32.09,1,10-1.12,15.55-9.25,21.08-13.44,9.15-26.71,18.15-42.95,22.15-6.32,1.56-9.39,8.89-14.63,13.05-8,6.37-17.57,10.9-24.83,17.54-20.83,19.07-50.47,20.28-71.94,37.71-11.09,9-21.46,19-33.84,26.47-3.78,2.28-6.74,4.48-11.7,3.69-7-1.13-13.86.26-19.27,5.77-4.08,4.16-7.42,4.19-9.24-2.17a13.08,13.08,0,0,0-2.08-3.36c-6.16-9.07-4.71-17.42,4.26-23.91,22.28-16.12,44.7-32,65.08-50.61,3.8-3.46,6.15-4.9,1.8-12.12-7.29-12.1-15.67-25-15.12-40.69C1913.88,886.36,1917.72,885,1916.69,881.3Zm24.5-1.11a44.45,44.45,0,0,0,1.81,5.44c3.75,8.34,7.39,16.4,14.19,23.32,3.9,4,5,3.6,8.12.89,6-5.23,11.8-10.66,18-15.64,11.07-8.9,22.38-17.49,33.52-26.29,2-1.6,4.59-3.38,3.47-6.48-0.84-2.34-3.15-1.84-5.15-1.46-22.74,4.3-45.31,9.58-68.32,12.4C1942.84,872.84,1940.88,874.93,1941.19,880.18Z" transform="translate(-325.18 -171.37)"/><path class="cls-2" d="M2235.77,1415.92c-8.56-1.89-19.28-5.53-30.55-6.43-3.38-.27-7.61-1.21-8.17,3.19-1.38,10.83-9.56,17.14-15.76,24.53-12.18,14.51-21.54,30.8-30.82,47.08-5.91,10.37-15.06,18.29-20.31,29-1.67,3.42-5.7,4.65-8.5,2.8-3-2-1.68-5.92-.81-9.19,6.6-24.79,20.37-46,34.19-67,9.08-13.82,13.68-28.08,10.82-44.49-1-5.5-5.44-8.61-8.36-12.81-9.41-13.57-20.79-11.85-33.62-6.72-11.06,4.42-22.39,8.16-33.64,12.1-2.16.76-2.56,3.13-4.14,4.07-5.11,3-9,10.48-16.85,3.8-3.29-2.81-6.66,1.36-9.87,2.86-2.55,1.19-5.21,3.85-7.82.14-2-2.81-3-5.47-1-9.13,3.84-7.31,6.9-15,10.49-22.47,1.52-3.16,5-4.35,7.82-5.76,21.06-10.52,40.66-23,58.33-38.8,4.89-4.37,10.26-10.34,18.14-10.92,0.79-.06,1.68-1.14,2.2-1.95,8.95-14,24-18,38.34-22.73,10.11-3.35,16.39-12.17,25.75-16.62,8-3.82,16.88-5.62,24.43-10.79,3.34-2.29,7-4.06,8.75-7.7,3.75-8,11.37-8.34,18.38-10a6.69,6.69,0,0,1,3.89.38c2.54,1.09,11.28,19.94,10.29,22.73-1.5,4.2.43,6.75,3.86,5,5.57-2.79,5.93-.24,6.8,4.05a29.84,29.84,0,0,0,7.17,13.9c9.35,10.68,13.92,24,18.81,37a28.37,28.37,0,0,1,.11,21.08c-4.37,11.65-4,24.48-10.22,36.09-9.13,17.11-23.83,25.46-41.29,29.35C2254.68,1413.47,2246.73,1416.63,2235.77,1415.92Zm-7.29-44.57c14.69-.87,26.49-7.49,37.49-15.61,4.84-3.57,10.78-10,6.59-14.82-5.4-6.21-7.86-14.53-14.59-19.35-1.52-1.09-4.61-.54-6.8,0-6.1,1.43-12.28,2.33-18.37,4.09-19.61,5.66-36.68,18.16-57.37,20.83-3.18.41-7.25,2.31-7.35,5.69s4,5.27,7,6.38C2192.49,1365,2210.81,1368,2228.48,1371.35Z" transform="translate(-325.18 -171.37)"/><path class="cls-2" d="M2118.37,1225.44c-2.33,0-4.67-.14-7,0-5.06.37-7.7-1.58-6.95-6.93,1-7.13-1.87-11.57-8.21-15.3-5-2.94-9.11-7.73-12.9-12.29-4.25-5.13-7.59-6-14.09-2.62-15.84,8.15-29.93,19-45.41,27.62a33.1,33.1,0,0,1-6.46,2.6c-9.83,3-9.77,3.87-5.4,13.39,7.2,15.65,16.75,29.57,27.22,43.19,7.33,9.54,9.94,22.1,17,32.17,1.32,1.89,1.15,5.22.81,7.77-0.47,3.49-3.38,5.83-6.13,7.41s-5.63-.93-6.61-3c-10.74-23-33.22-36.78-45.85-58.23-3.25-5.51-7.24-10.73-8-17.61-0.59-5.37-5.89-7.73-9.31-11.14-5-5-6.05-18-1.3-23,0.67-.71,2.16-1,2.35-1.77,5-19.93,25.38-23.77,37.68-36,4-4,8.68-8.75,15.45-3.55,3.05,2.34,5-.43,6.21-2.79,1.56-3.11,4.5-4.87,6.47-7.43,11.21-14.49,28.72-18.52,43.87-26.2,6.05-3.07,10.89-7.31,15.95-11.22,12.79-9.88,26.36-18.31,40.22-26.58,9-5.39,18.38-9.94,27.65-14.69,7.63-3.92,15.24-1.76,17.65,5.92,2.74,8.74,8.67,15.7,11.62,24,9.45,26.49,23,51.3,31.44,78.2a39.1,39.1,0,0,0,10.57,16.63c4.48,4.22,2.45,5.89-.83,10.12-7.36,9.49-17.32,5.47-25.84,6.11-5.07.38-10.34,3.11-16.07,0.68-4.33-1.83-6.32-4.16-4.69-8,3.71-8.82-.69-16.16-5-22.32-9.64-13.73-21.3-26-29-41.13-2.41-4.71-5.49-5-9.77-3.27-11.31,4.58-22.72,8.92-34,13.64-4.78,2-5.52,6.12-2.29,9.74,7.59,8.51,12.36,18.69,18,28.37,0.5,0.85,1.4,1.46,1.88,2.32,7.29,13.09,2,23.32-12.94,24.84a79.29,79.29,0,0,1-8,0Q2118.37,1225.25,2118.37,1225.44Z" transform="translate(-325.18 -171.37)"/><path class="cls-2" d="M1960.25,1095.28c-8.33-.29-15.42,5.77-22.87,10.88-3.27,2.24-6.34,4.79-9.63,7-3.1,2.09-6.52,2.22-9.09-.62-2.86-3.16-2.25-6.29.64-9.65a139.09,139.09,0,0,1,38.49-30.78,119.9,119.9,0,0,0,27.44-21.09,111.16,111.16,0,0,1,35.92-24.24c7.9-3.37,12.09-11,18.38-16.26,14.1-11.84,27.72-24.2,44.17-32.79,3.14-1.64,5.82-3.57,6.82-6.86,2.78-9.06,9.9-13.8,17.48-18,4.44-2.47,8.67-5.11,11.18-9.59,3.46-6.17,5.61-3.39,7.8.82a15.8,15.8,0,0,1,1.07,1.68c7.3,20.17,19.66,38.09,26,58.73,1.23,4,1.24,6-2.56,7.86-20.37,10.07-38.34,24.47-59.37,33.29-20.1,8.43-40.36,16.46-60.63,24.48-21.27,8.42-43.95,13.18-64.11,24.5C1965.63,1095.6,1964.14,1097.07,1960.25,1095.28Z" transform="translate(-325.18 -171.37)"/><path class="cls-2" d="M1062.08,1808c0.2-15.32,5.18-29.66,9.4-44.13,0.89-3.05.69-5.68,0.59-8.66-0.14-4-3.16-9.81,3.32-11.54,6.94-1.86,14.55,3,14.65,9.76,0.12,8.39,2.55,16.33,3.22,24.51,2.33,28.3,5.43,56.62,5.77,85,0.27,22.95,6.09,45.11,6.46,67.93,0.32,20.52,5.81,40.41,8.33,60.67a83.12,83.12,0,0,1,.23,12,16.22,16.22,0,0,1-1,4.63c-10.63-1.45-11.68,14.19-15.92,13-18.63-5.18-36.48,3.07-54.91.61-15.31-2-30.64-4.16-46-6-14.16-1.68-23.48-7.68-29.53-21.09-11.11-24.62-11.2-47.38,4.91-70.2,8.54-12.1,15.09-25.72,21.49-39.16,3-6.26,1.76-13.39-2-19.87-11.29-19.72-19.09-41.15-29.52-61.29-5.27-10.17-9-21.08-16.76-30-5.14-6-6.22-14-6.74-21.58-0.46-6.7,5.22-7.39,9.82-5.69,7.16,2.66,14.11,6.59,18.51,13,10.65,15.52,22.65,29.66,37.25,41.68a31.35,31.35,0,0,1,9.35,12.61c2.46,6.23,6.19,11.84,13.4,13.83,1.24,0.34,2.81,1,3.39,2,6.47,11.21,13.92,6.39,22.59,2.61C1064.68,1827.2,1062,1817.35,1062.08,1808Zm-2.61,73.55c-0.94-4.32.17-8.56,0.59-12.85,0.19-1.91.14-4.37-2.38-4.82s-3.24,1.75-3.6,3.74c-1.73,9.56-6,18.2-9.51,27.14-5.08,12.91-8.67,26.49-14.72,38.91-9.41,19.33-2.88,38,20.85,43.49,2.48,0.57,7.2.88,5.8-2.5-4.52-10.91.93-20.41,3.44-30C1065.52,1923.4,1060.71,1902.53,1059.46,1881.51Z" transform="translate(-325.18 -171.37)"/><path class="cls-2" d="M1622.11,1796.74c2.41,37.74,10.21,74.83,14,112.41,2,19.75,4.15,39.5,9.14,58.83a103.24,103.24,0,0,0,3.71,11.3c3.09,8,.62,14-6,18.93-14.57,10.81-29.2,4.54-43.57.55-4.26-1.19-8.77-2.77-13.08-4.21-6.44-2.16-9.65-6.58-12-12.21-1.06-2.57-3.14-5.16,1.6-7.12,4.29-1.77,2.08-5.82,1-8.69-3.65-9.49-7.64-18.85-11.48-28.26a246.92,246.92,0,0,0-18-35.48c-9-14.78-15.46-30.84-23.78-45.93-2.13-3.86-4.1-11-8.57-9.31-4,1.49-1.06,8,.1,12.38a390.76,390.76,0,0,1,9.43,49.81c3.14,24.38,10,47.91,15.74,71.72,0.53,2.21,2.35,4.62.42,6.53-2.23,2.2-4.12-.57-6.12-1.37-9.16-3.62-10.55-2.69-9.46,6.92,0.46,4.05-1.22,3.82-4.5,4-8.89.56-15.93-5-24.19-6.42-2.5-.42-4.71-2.39-7.15-3.44-15.9-6.86-17.9-11.12-12.71-27.36,0.4-1.27,1.27-2.61,1.11-3.8-2.27-16.62,4.61-32.87,3.27-49-1.82-21.83,1.11-43.45-.5-65.27-1.46-19.8-1.26-39.67-4.19-59.48-1.37-9.25,1.7-19,5.12-28,0.83-2.17,2.67-5.9,6.51-5,3.05,0.72,3.82,3.5,3.9,6.28,0.09,3.34.52,5.72,5,5.48,3.65-.2,4.85,3.1,5.49,6.09,4.43,20.72,16.78,37.43,27.65,54.88,1.05,1.69,2.72,3.22,3.15,5.05,5.1,21.76,23.21,33.61,37,48.71,4,4.35,10.14,6.21,13.74,11.22a2.81,2.81,0,0,0,4.32.64,5.35,5.35,0,0,0,1.92-5.37c-1.31-7-.6-14,0.07-20.91,2.67-27.7,4.29-55.47,5.74-83.26a36.66,36.66,0,0,1,1.85-8.74c1.29-4.18-1.61-11.31,6.68-10.86,6.93,0.37,12.93,3.11,15.55,10.12C1623.35,1778.06,1622.87,1787.4,1622.11,1796.74Z" transform="translate(-325.18 -171.37)"/><path class="cls-2" d="M1696.48,1969c-2-4.49.08-9.19,2-14.24a137.87,137.87,0,0,0,8.87-50.35c-0.23-16.73,4.62-32.5,4.23-48.69-0.43-17.68,2.78-34.75,4.55-52.09,1.17-11.42,7.58-17.47,17-21.55,8-3.48,14.64-9.16,20.31-15.2,3.17-3.39,6-5,9.77-5,17.69-.18,32.44,6.06,42.51,21.15,4.89,7.32,12,13.8,15.22,21.3,6.55,15.1,17.62,27.79,22.27,43.74a51.76,51.76,0,0,0,3.91,10.15c6.13,11.34,10.4,23.93,16.8,34.61,9.47,15.79,14.85,33.73,26.81,48.25,5.9,7.16,11,16,9.34,26.6-0.35,2.22-.33,5,0.75,6.86,5.6,9.39.27,13.81-7.44,17.12-10.74,4.61-20.94,12.49-33.71,6a4,4,0,0,0-2.9.1c-14.7,5.68-28.48,2.91-39.13-8.46-4.23-4.52-5.73-10.25-5-16.56a247.47,247.47,0,0,0-.8-65.69c-0.19-1.3-.65-2.93-0.11-3.93,8.79-16-3.58-29.21-6.39-43.47-3.29-16.65-14.19-31.23-15.06-49-0.22-4.44-2.46-9-4.55-13.1-4.51-8.85-10.06-10.74-19.55-7.42-1.18.41-3,1.41-3.52,1-10.15-8.5-7.2,3.65-6.71,5.17,3.46,10.7-.29,21.12-0.73,31.56a76.58,76.58,0,0,0,4.75,30.68c1.81,4.84,2.92,10.55.85,14.61-5.29,10.39-.21,21.25-2.43,31-4.53,19.88,5.67,37.73,4.87,56.8a11,11,0,0,0,5.83,10.79c4.69,2.7,6.22,6.54,4.86,11.78-1.4,5.41-5.27,3.78-8.82,3.44-2.93-.28-4.93,1.71-7.1,3.21-9.93,6.85-21.56,8.78-33,9.92C1709.67,2001.58,1698.38,1988.94,1696.48,1969Z" transform="translate(-325.18 -171.37)"/><path class="cls-2" d="M1302.56,1855.28c-0.86,17.52-2.47,34.79-6.3,52.16-4.35,19.75-7.47,39.75-15.74,58.29-6.38,14.31-16.43,25.34-31.36,31.94-8.92,3.95-18.35,4.83-27.54,6.73-4.85,1-11.52-2.77-12.43-7.61-1.76-9.43-9.24-13.31-14.86-18.93-7.57-7.57-14.22-15.21-13.05-26.93a7.26,7.26,0,0,0-1.38-4.7c-11.1-14.37-6.13-31.54-8.4-47.43-2.85-20-.52-40.08-0.75-60.13-0.14-12.48,4.22-23.93,10.58-34.55a155.94,155.94,0,0,0,10.75-21.26c8.87-21.8,35.93-36.84,57.36-30.57,21.6,6.32,36.43,21.5,43.17,42.81C1298.75,1814.52,1303.12,1834.57,1302.56,1855.28ZM1243.08,1767c1.09,4.31-.22,8.05-4.13,8.77-12.31,2.28-16.54,12.43-21.79,21.47-7.78,13.4-13.5,27.25-8.8,43.43,1.44,5,2.38,10.88-.41,15.64-9,15.4-4.88,30,1.63,44.71,2.14,4.84,5.57,9.71,5.77,14.66,0.35,9,6,11.45,12.7,12.34,5.26,0.7,14.68-10.44,13.46-16-1-4.54.59-7.7,2.53-11.14,2.65-4.73,3.49-9.68,3.86-15.18,0.75-11.16.64-22.36,4-33.39C1260.88,1823.11,1261.75,1794.31,1243.08,1767Z" transform="translate(-325.18 -171.37)"/><path class="cls-2" d="M2080.8,1849.39c-4.1,2.5-7.88,4-11.13,7.07-11.91,11.41-19.73,6.85-29.1-6.23-11.93-16.65-13.35-37.41-25.83-53.57-7-9.07-16.82-9.34-25.39-13.49-1.9-.92-4.38-1.06-6.58-1.85-9.56-3.43-18.5,1.34-20.11,11.45-1.43,8.94-3.83,17.82,1.78,26.95,7.67,12.48,6.2,27.23,7.55,41.18,0.25,2.61-.48,5.31,1,7.77,8.16,13.26,11.95,28.47,20.19,42,9.19,15.06,18.08,30.83,23.1,48.21,1.54,5.34,4,10.34,8.61,14.27,5.37,4.57,4,11.48-1.63,16.33-8.17,7-16.94,11.37-28,8.72-3.42-.82-5.23.6-5.47,3.84-0.56,7.34-4,5.21-7.72,2.51q-4.41-3.19-8.85-6.33c-3-2.14-5.42-2.91-9.77-1.15-7.1,2.87-14.68,1.44-20.92-4.1-3.53-3.14-4.58-7.61-2.22-10.66,7.47-9.63,6.41-20.58,3.45-30.34-5.48-18.09-6.77-36.83-10.78-54.91-5.94-26.83-3.42-52.77-1.06-79.2,1.18-13.13,1.59-26.32,4-39.35,1.12-6.06,2.73-10.52,10-11.41a38.49,38.49,0,0,0,14.08-4.69c4.44-2.54,9.36-3.69,13.37-2.15,15.1,5.78,32,1.8,46.71,9.09,2,1,4.92.8,6.07,3,8.85,17.09,25.21,28.41,34.41,45.32C2066.43,1828.34,2071.38,1839.69,2080.8,1849.39Z" transform="translate(-325.18 -171.37)"/><path class="cls-2" d="M1395.67,1786c4.86,23.22-1.68,47.22,3.9,70.2a127.61,127.61,0,0,1,2.58,46.93c-0.3,2.41.92,5.21,2,7.55a27,27,0,0,1,2.29,16.41c-1.19,7.46.34,14.47,6.83,19.33,9.29,7,8.52,18.94,14.11,27.73a3,3,0,0,1,.08,1.94c-1.26,6.15-21,23.69-27.52,24.18-4.22.31-8.75,1.23-12.16-2.57s-8-1.78-11.26-1.33c-10.93,1.5-20.27-2.89-29.64-6.71-6.47-2.63-4.67-9.41-3.68-14.52,3.73-19.17,10.38-37.62,14-56.89,1.74-9.13.91-17.78,0.53-26.61a57.91,57.91,0,0,1,2.47-20.63,55.89,55.89,0,0,0,2.17-25.48c-1.57-11.28,1.66-22.41,4.17-33.4,1.69-7.42,2.73-14.36,1.07-22.33-2.08-10,3.18-20,4.49-30.12a7.45,7.45,0,0,1,1.18-2.74c1.64-2.69-1.86-7.92,2.72-8.45,4.94-.58,3.36,4.47,4,7.42,0.19,0.81,1.09,2.1,1.62,2.08,15.21-.63,10.65,12.51,13.81,20.09C1396.47,1780.32,1395.67,1783.31,1395.67,1786Z" transform="translate(-325.18 -171.37)"/><path class="cls-2" d="M833.73,1342.43c-3.43,18-6.07,34.68-14.6,49.59-7.34,12.83-8.06,27.06-9,41.36-0.91,14-16.53,27.3-28.76,25.5a14.63,14.63,0,0,1-8-3.55c-18.61-16.59-41-27.75-61-42.36-17.57-12.83-35.51-25.32-54.16-36.48-15.55-9.31-31-18.7-46.17-28.63-14.05-9.22-26.81-20.41-41.88-28.13-6.41-3.28-12.71-7.26-19.55-9.06-8.32-2.2-7.38-7.84-5.19-12.51,1.62-3.45,3.27-7.1,5.22-10.46,15.49-26.74,30.12-54,49.42-78.37,7.11-9,10.88-20.18,18.45-29.07,6.41-7.53,12.38-14.27,23.42-15.45s21.75-5.44,32.79-7c10.2-1.4,19.12,3.76,26.16,10.52,6.45,6.2,12.6,11.69,21.5,14.55a19.26,19.26,0,0,1,13,12.47c3.76,10.92,9.32,21.27,10.95,32.87,0.66,4.69,2.54,6.17,7.16,5.8,13.85-1.1,27.72,1.51,41.63-.29,7.06-.91,18,8.53,21.24,18,3,8.74,6.77,17.4,6.59,26.91-0.3,15.57,7.81,29.41,9,44.66C832.5,1330.21,833.22,1337.08,833.73,1342.43Zm-41.59,37.85c0.39-20.61-3.07-39.61-5.88-58.63-1.67-11.31-6.35-21.47-15.9-28.92a174.49,174.49,0,0,1-16.09-14.79c-3.09-3.1-5.87-7.2-10.69-5.83-5.32,1.51-3.91,7-4.82,11-3.8,16.82.69,34.56-6,51.13-3.74,9.22-6.47,18.85-9.61,28.31-2.4,7.25-4.34,14.19,5.88,17.51,2.13,0.69,3.73,3.67,5.12,5.89,8.25,13.17,21.44,21,33.45,29.75,6.91,5.06,12.72,2.44,17.33-5C790.89,1401,789,1389.42,792.13,1380.28ZM701,1297.72l1.93,0.11c0.53-8.61,1.09-17.21,1.58-25.82,1.13-19.59-5.05-37.1-15.75-53.11-5.48-8.2-13.6-11.26-20.65-6.41-11.23,7.73-22.78,17-22.58,32.08,0.2,15.3-7.52,23.89-19.27,30.82-6.94,4.1-7.45,6.55-1.15,11.33a197.39,197.39,0,0,1,25.77,23.76c11.82,12.78,25.9,23.68,38.1,36.37,1.64,1.71,3.37,3.75,5.87,3,3.15-.89,3.11-4.05,3.28-6.64C699.2,1328.08,700.1,1312.9,701,1297.72Z" transform="translate(-325.18 -171.37)"/><path class="cls-2" d="M975.82,1112.06c-15.32-3-28.4,1.08-40.94-3.74-6.37-2.45-13.57-.29-19.6,1.13-11.64,2.74-23.1,1.18-34.59,1.55-10.78.34-13.68,3.71-10.34,13.79,1,3.1,1.08,5.8-2.45,7.57-10.63,5.33-10.16,15.85-10.17,25.09,0,8.29.26,16.6,0,24.91-0.09,2.61-1.19,5.79.92,7.71,10.47,9.56,17.78,22.43,30.51,29.56,4.89,2.74,9.32,6.23,14.73,8.2,4.21,1.53,2.92,5.45,2.13,8.66-0.9,3.66-3.73,2.38-6.37,2.65-21.16,2.16-31.86-14.43-45.8-25.18-1-.77-1.51-2.77-2.47-2.94-13.12-2.38-17.09-16.31-28-21.78s-20.79-12.94-31.52-18.81c-26.2-14.36-51.77-29.88-78.85-42.64-6.2-2.92-13.33-3.09-18.92-8s-7.39-8.65-2.34-15.1c4.39-5.61,5-13.12,5.4-19.91a30.81,30.81,0,0,1,10.25-21.54c7.82-7.11,9.9-16.82,13.46-25.83,5.43-13.78,8.34-28.62,18.61-40.23,3.91-4.42,7.1-9.14,13-11.57,5.18-2.14,11.21-4.06,12.15-11.27,0.24-1.84,2.23-1.94,4-2.19,14-2,26.43,2.33,38.16,9.38,16.58,10,30.67,23.31,42.42,38.08,9.21,11.59,13.6,26.85,16.22,41.95,1.49,8.58,7.44,13.64,16.06,14,13.8,0.57,27.35,2.46,40.13,8.08,14,6.16,29.39,7.83,43.67,13.27,6.89,2.62,14.51.79,21.73-.43,2.72-.46,5.39-1.12,7,1.92,1.79,3.43-.22,6-2.72,7.67C985.82,1109.61,980.47,1114.06,975.82,1112.06Zm-176.51-68c-4.95.33-9.79,0.16-13.38,5-7.91,10.67-15,21.86-21.93,33.14-3.45,5.58-2.49,9.33,2.54,13.63,15.72,13.43,27.51,30.32,40.07,46.56,7.28,9.42,14.6,19,23.63,26.88,2.14,1.88,5.72,6.11,7.71.64,2.32-6.38,5.06-13.21,2.25-20.33-3.74-9.48-.93-19.68-3.66-29.43-2.4-8.57-9-17.08-2.89-26.83,0.54-.86-1.14-3-1.5-4.58-3.73-16.57-16.71-27.54-24.95-41.39C805.5,1044.46,802.44,1044,799.31,1044.07Z" transform="translate(-325.18 -171.37)"/><path class="cls-2" d="M1091.2,526.38c15.2,0.42,20.31,12.25,25.55,22,10.11,18.78,25.71,29.69,44.58,37.95,8.26,3.61,15.8,9.58,22.57,15.7,11.83,10.7,23.27,21.54,37.44,29.47,12.31,6.89,23.59,15.67,35.16,23.85,10.22,7.24,22.33,10,33.65,14.63,4.4,1.79,8.48,3.71,12,6.91,2.49,2.28,3.73,4.73,1.59,7.86-1.85,2.7-3.56,5.76-7.74,4.12-2.39-.94-5.17,0-7.4-2.19-5.06-5-11.12-5.43-17.23-2.24-3.53,1.84-6,.74-9.12-1-10.48-5.91-21.53-7.43-33.78-6.2a107.53,107.53,0,0,1-50.88-6.8c-15.9-6.2-33.7-4.86-50.67-1.15-8.12,1.77-16.1,3.82-24.55,3.65-4.94-.1-8.13,1.75-3.85,7.2,9.68,12.35,18.69,25.15,31.64,34.68,17.21,12.67,32.42,27.76,48,42.34a185.35,185.35,0,0,0,40.66,29c6.11,3.22,11.55,7.74,17.16,11.87,2.89,2.12-.55,9.7-5.63,10.58-6.88,1.19-13.41,2.46-19.87-4.23-12-12.48-27-21.54-41.91-30.43-18.4-10.93-37.13-21.12-54.19-34.58-18-14.21-38.55-25.33-58.52-36.87-15.35-8.86-31.65-16.07-47.29-24.45-4.55-2.44-10.26-1.58-14.08-5.66-1.35-1.45-3.16-2.54-1.6-4.93,10.56-16.12,20.5-32.65,34.93-45.91,5.11-4.69,11.47-6.35,17.41-8.59,2.47-.93,8.68-0.65,10.16,4.12,3.26,10.46,12,11.4,20.54,12.33q32.7,3.56,65.47,6.42c5.72,0.49,11.33.71,16.23,4,10.39,6.94,23.31,2.28,34.1,7.54,1.72,0.84,4.25.72,5.24-1.49,1.66-3.71-2.26-3.3-3.82-4.4-9.65-6.8-20.22-12-29.05-20.38-5.69-5.37-14.43-7.69-22-10.84-17.77-7.38-35.41-15.24-53.64-21.31-10.5-3.5-21.6-5.48-32.2-9-3.57-1.19-6.69-2.16-8.07-6.4-1-3.08-2.38-4.26,2.1-6.22,6.1-2.67,8.69-9.56,11.15-15.46,4.13-9.89,12.39-16.13,19.2-23.66C1083.77,524.64,1088.27,527.33,1091.2,526.38Z" transform="translate(-325.18 -171.37)"/><path class="cls-2" d="M928.8,763.47c13.78,0,27,4.16,39.19,9.31,23.46,9.94,47.55,17.79,71.68,25.67,2.54,0.83,5.36,1.21,7.07,3.38,12.73,16.23,31.66,21,50,25.41,21.49,5.16,41.69,13.37,61.38,22.72,7.79,3.7,13.68,11.29,22.1,15.06,3.35,1.5,4,5.54-1.11,7.19-9,2.91-17,4.77-27.36,1.6-20.65-6.3-40.69-14.55-61.65-19.73-14-3.46-15.45-2.09-22.42,11.11-4.07,7.69-12.6,12-16.4,20.16a21.28,21.28,0,0,1-3.09,5.07c-9.16,10.39-9.71,20.32-1.08,31.93,7.61,10.24,13.54,21.81,19.57,33.14,7.39,13.9,19.42,23.73,29.65,35.13,6,6.67,5.88,10.41-1,15.46-2.56,1.89-5.76,3-7.19,6.55-3.05,7.56-6.86,4.88-10.63.33-10.25-12.35-21.55-23.7-31-36.9-9.73-13.63-17.94-28.53-29.83-40.52-20.58-20.75-37.51-44.45-55.17-67.55-2.34-3.07-5.61-4.63-8.37-6.71-15-11.31-24.33-27.58-36.33-41.44-4-4.64-9.73-6.14-13.52-11.17s-5-10.68-8-15.67c-0.47-.77-0.79-2.33-0.36-2.86,5-6.12,4.6-15.16,9.23-20.47,4.9-5.62,12.95-9.31,21.68-6.41A12,12,0,0,0,928.8,763.47Zm74.85,70.59c-7.07-1.81-8.57.52-6,5.81,7.08,14.84,15.95,28.78,21.64,44.34,1.77,4.83,5,3.76,8-.19,8-10.34,13.5-21.9,18.32-33.92,2.21-5.53.46-8-5.07-9C1027.87,838.75,1015.23,836.27,1003.65,834.06Z" transform="translate(-325.18 -171.37)"/><path class="cls-2" d="M836.41,862.76c5.33-.32,7.26.95,9,3.38,13.53,18.83,31.6,33.53,46.63,51,3.65,4.24,5.85,10.13,10.15,13.35,17.51,13.1,29.81,32.17,49.93,42.36,14.11,7.15,24.71,19.35,37.45,28.61,19.07,13.87,35.56,31.25,57,42a14.8,14.8,0,0,1,3.2,2.37c3.4,3.1,9.79,4.94,5.78,11.51s-9.3,2.42-14,1c-16.08-4.9-30.11-13-41.84-25.42-3.73-3.94-9.21-6.88-14.44-8.58-10.11-3.29-17.52-10.35-25.39-16.64-16.33-13-35-22.33-52.3-33.86a295.31,295.31,0,0,1-24.44-18.53c-18.08-15-39.35-25.13-57.6-39.76-3.21-2.57-7.71-3.82-11.83-4.93-7.4-2-7.76-6.8-4.58-12C812,894,813.3,889,814.9,884c2.3-7.29,9.37-11.65,12.71-18.68C828.69,863,834.88,863.15,836.41,862.76Z" transform="translate(-325.18 -171.37)"/><path class="cls-1" d="M1484.81,2057.34c10.45,1.08,20.32,1.93,30.13,3.26a9.6,9.6,0,0,0,5.7-.49c13.46-6.39,25.77-1.1,38.06,3.82,5.21,2.09,7.31,5.77,6.39,11.83-3.58,23.52-6.81,47.1-10,70.69-2.15,16.1-3.39,32.34-6,48.36-3.57,21.72-3.67,43.73-6.61,65.56-3.45,25.61-8.6,50.89-13.4,76.12-4.68,24.6-5.69,49.28-7.47,74-0.87,12.16.06,24.38-4,36.16-0.86,2.48-1.11,5.25-2.32,7.52-0.61,1.15-2.77,2-4.2,2s-1.12-2-1.32-3.26c-3.49-21-4.49-41.94-1.8-63.2,1.65-13.09,0-26.47,1.19-39.71,0.27-3,0-5.77,1.5-8.52,1.69-3.09,1-5.29-1.15-8.71-5.45-8.68-3.39-19.35-4.8-29.1-3-21-3.56-42.28-7.67-63.1-1.87-9.47,3.66-18.08,1.51-27.49-1.2-5.23-2.42-10.27-5-15-2.51-4.49-4.18-9.77-2.45-14.4,3.62-9.67-1.33-15.87-7.28-21.81-4.18-4.17-6.57-7.94-2.74-13.85,3-4.69.25-9-3-12.55-3.76-4.08-6.51-8.33-5.08-14.21a8.55,8.55,0,0,0-1.4-6.7c-11.31-17.22-5.37-34.93-.94-52.26C1472.44,2055.17,1480.28,2058.69,1484.81,2057.34Z" transform="translate(-325.18 -171.37)"/><path class="cls-1" d="M329,629.76c6.36,2.32,13,3.77,18.63,7,14.94,8.51,30.52,15.62,46,23.09,26.17,12.65,52,26,76.6,41.55,16.64,10.53,34.73,18.66,51,29.47,10.66,7.1,22.89,10.25,33.13,17.63A229.77,229.77,0,0,0,577.39,763a217.16,217.16,0,0,0,46,19.3c8.5,2.41,16,8.15,24.25,11.72,7.27,3.14,13.87,7.25,22.11,9,14.32,3.07,28.8,6.81,41,16.19a54,54,0,0,0,33.3,11.41c4.6,0,8.72,3.52,8.45,7.88-0.9,14.44-3.65,27.67-18.39,35.4-4.95,2.59-8.12,8.45-12.34,12.58-3.34,3.27-7,4.75-11.31,1-1.94-1.68-4.68-3.6-7-3.49-14.59.67-21.73-9.74-29-19.46-2.33-3.13-4.66-6-8.05-6.87-13.35-3.34-21.13-14-30.63-22.43-3.7-3.27-7.41-6.31-12.71-6.39-15.29-.23-25.09-10.85-35.63-19.57-5.11-4.22-9.66-9.08-15.59-12.24-3.84-2-7.05-4.31-9-8.77-2.38-5.58-7.69-8-13.63-8.68-18.7-2.05-30.84-13.11-40.9-28.13-3.6-5.37-9.76-9.39-16-12.2C468.81,728.69,449,712,427.24,698.4c-19.39-12.07-38.65-24.33-58.21-36.13A208.25,208.25,0,0,1,345.43,646c-5.47-4.44-12.06-5.19-17.32-9.1-1.6-1.19-3.7-1.84-2.63-4.43C326.13,630.88,327.09,629.52,329,629.76Z" transform="translate(-325.18 -171.37)"/><path class="cls-1" d="M2507.52,745.95a34.08,34.08,0,0,1-18.18,13.55c-16.08,5.11-29.26,15.39-43.28,23.46-16.75,9.64-35,16.45-50.86,28.21-12.66,9.39-28.12,15.51-42.29,23-9.06,4.76-18.05,11.44-27.11,17.15-19.64,12.37-40,23.6-59.34,36.43-13.73,9.11-28.16,17.21-40.68,28.31-7.1,6.29-16.61,9.49-23.37,17-3,3.29-8.83,3.06-11-3.19-1.2-3.42-3.86-7.2-3.21-10.26,2.4-11.3-2.86-19-10.33-26-6.45-6.1-3.58-15.1-6.88-22.24-1.36-2.94,1.31-4,3.86-4.25,5.94-.61,11.87-1.59,17.82-1.68,25.61-.42,50-6.49,73.38-16.37a239,239,0,0,1,42.71-14c7.07-1.52,13.49-5.57,19.76-8.72,11-5.51,22.81-7.93,33.92-12.73,19.81-8.56,37.57-20.66,56.73-30.25,11.8-5.91,23.39-12.32,35.49-17.53,8.48-3.65,14.77-11.82,24.45-12.43C2489.13,752.68,2497.42,746,2507.52,745.95Z" transform="translate(-325.18 -171.37)"/><path class="cls-1" d="M519.47,899c23.21,1.83,44.92,2.79,66.65,5,16.9,1.73,34.17-.14,51.27-0.35,15.82-.19,31.65-0.25,47.47-0.48,3.5-.05,5.9,1,6.33,4.72,0.94,8.06,4.14,16.6-4.77,22.67-2,1.35-2.53,3.64-3,6C680.74,950.14,673.26,953.8,658,952c-10.38-1.21-20.26-6.21-30.62-8-16.06-2.81-31.31-8.37-47.9-10.14-21.92-2.33-44.34-1.16-66-7.58-12.54-3.72-26.33-2.91-38.22-9.72-1.57-.9-4.32-0.23-4.06-3.16,0.2-2.21,1.91-3.34,3.88-4.09,5.31-2,9.88-5.39,16.29-5.17A71.52,71.52,0,0,0,519.47,899Z" transform="translate(-325.18 -171.37)"/><path class="cls-1" d="M1668.86,2243.33c-6.65-12.51-13.07-24-18.93-35.8-6.92-13.92-18.95-24.14-26.29-37.86-7.21-13.48-16.54-25.36-19.93-41.25-2.65-12.41-7.09-25.5-15.73-35.73-4.1-4.85-4.19-8.89-2.22-14.36,2.28-6.32,8.22-6.8,12.27-6.15,9.5,1.53,19.21.11,28.59,2.84,7.11,2.07,12.52,6,12.53,13.41,0,16.88,8.37,31.23,13,46.68,5.76,19.31,12.44,38.36,18.89,57.46,1.43,4.22-3,6.74-2.05,11.26,1.91,8.7,2.24,17.74,3.43,26.61C1673,2234.88,1672.71,2239,1668.86,2243.33Z" transform="translate(-325.18 -171.37)"/><path class="cls-1" d="M659.15,629.92c4,0.27,6.44,2,7.79,3.85,10.22,14,23.68,24.81,36.51,36,25,21.77,48.46,45.45,75.62,64.78,4.68,3.33,9.48,2.24,14.22,2.86,9.71,1.27,11.8,3.5,9.91,12.76-0.46,2.28-2,4.43.67,6.11,5.57,3.47,2.83,7.41.5,11-4.67,7.25-11.33,12.87-18.41,17.22-10.06,6.18-17.65,3.41-27.58-7.76-19-21.37-34.67-45.31-51.88-68-6.64-8.78-14.4-16.67-20-26.6-3.73-6.63-2.3-13.07-4.34-19.37-2.18-6.72-4.83-12.41-10.7-16C665.08,642.79,662.74,636.53,659.15,629.92Z" transform="translate(-325.18 -171.37)"/><path class="cls-1" d="M1378.3,2179.68c1.62-33.35,2.44-64.21,11.32-94.08a32.15,32.15,0,0,0,1.07-6.89c0.88-12.58.86-12.66,13-10.07,7,1.49,14.05,3,20.91,5,10.31,3.06,14.87,10.46,13.13,21-2.23,13.52-7.18,26.21-12,38.95-3.9,10.22-7.1,20.6-6.46,31.9,0.4,7.06-2.64,13.62-9.58,16-7.57,2.55-10.93,8-13.12,14.62-1.1,3.34-1.57,6.26-6.08,6.35-4.82.1-3-4.3-4.65-5.91A25.26,25.26,0,0,1,1378.3,2179.68Z" transform="translate(-325.18 -171.37)"/><path class="cls-1" d="M2238.91,990c-6.05-.92-12.9,3.28-18.06-1.59-4.32-4.08-4.76-10.7-7.18-16.09-2.33-5.18-8-7.88-9.49-13.81-1-4.2-.33-7.44,4.12-6,15.43,4.91,31.05,3.91,46.87,3.7,13.78-.18,27.87-0.59,41.34,2.93,15.34,4,31,4.45,46.55,5.58,6.07,0.44,11.37,3.32,17,5,3.91,1.18,4.59,4.48,3.88,8.07-0.82,4.15-4,5.22-7.56,4.75-18.77-2.51-37.46-1-56.28-.59-19,.44-37.08,3.72-55.27,8C2243,990.34,2240.89,990,2238.91,990Z" transform="translate(-325.18 -171.37)"/><path class="cls-1" d="M2241.18,695.57c-0.7,2.82-1.92,4.81-3.81,5.15-9,1.61-11.23,9.87-14.39,16.07-3.61,7.09-8.67,12-14.71,16.41-1,.76-2.46,1.78-2.6,2.83-1.82,13.4-13.85,21.55-17.37,34a3.27,3.27,0,0,1-1.07,1.67c-11.49,8.42-14.74,23.12-24.91,32.57-3.79,3.52-8.8,2.46-9.51-3.05a31,31,0,0,0-4.8-13.82c-5.56-8.08-1-16.57-1.93-24.79-0.25-2.27,1.79-3,3.8-3.81,5.17-2.15,10.12-4.8,15.2-7.16,2.47-1.15,5.55-2.48,6-4.95,3.29-17.55,19.42-23.35,30.74-33.23,6.55-5.71,12.65-11.51,17.65-18.48,1.56-2.17,2.64-4.7,5.23-5.79,3.49-1.48,5.78-6.33,10.43-4.39C2240.12,686.9,2233.82,695.09,2241.18,695.57Z" transform="translate(-325.18 -171.37)"/><path class="cls-1" d="M839.31,690.3c-0.56,9-7.38,13.59-13.15,18.94-3.88,3.6-9.27,4.6-13.21,8.62-3.57,3.64-9.27.39-10.79-5.35-2.35-8.88-1.92-18.22-5.28-27-7.75-20.34-7.78-43-18.18-62.58-1.18-2.23-2.57-5.25-1.92-7.28s1.55-5.59,4.6-6a8.79,8.79,0,0,1,9,5.18c7.88,18.83,22.47,33.29,32.45,50.73,4.3,7.51,7.19,16.3,16.1,20.33C840.86,686.79,839.69,688.76,839.31,690.3Z" transform="translate(-325.18 -171.37)"/><path class="cls-1" d="M630.78,1016.7c-21.78.47-39.27-4.3-57-1.63-1,.14-2-0.18-3-0.13-3.38.16-7.93,4.5-9.74,0.4s3.23-7.26,6.3-10.18c6.13-5.82,13.64-7.92,21.8-7.44,14.08,0.83,27.4-2.53,39.59-8.78,8.11-4.15,17.44-5.52,24.64-12.09,3.64-3.32,8.49-2.7,8.1,4.87-0.52,10.08-4.22,19.2-8.93,27.6C646.83,1019.53,635.88,1016.29,630.78,1016.7Z" transform="translate(-325.18 -171.37)"/><path class="cls-1" d="M1328.45,2084.8c6.16-5,15.45-3.36,24.79-2.56,2.63,8-3.81,15.87-9.36,22.23a193.13,193.13,0,0,0-17.84,24c5.69-9-6.46-28.29-1.73-38.18A15.45,15.45,0,0,1,1328.45,2084.8Z" transform="translate(-325.18 -171.37)"/><path class="cls-1" d="M1721.46,2126.25c-0.31,9.47-4.37,12.25-11.73,7.21-11.59-7.94-24.09-14.75-33.84-25.23a26.22,26.22,0,0,0-7.77-6c-8.45-3.93-7.81-8.75-3.49-17.09,6.75-13,17.69-4.51,26.22-7.3,2.32-.76,5.94,1.68,4.63,5.8-1.62,5.12,1.89,7.9,4.61,11.21,6.67,8.11,13,16.46,19.85,24.45C1722,2121.73,1721.68,2124.06,1721.46,2126.25Z" transform="translate(-325.18 -171.37)"/><path class="cls-1" d="M2280.72,1040.62c-7.57-.7-15.14,1-22.76-1.21-6.64-1.92-15.57-11.43-15.72-18.18-0.06-3,.36-4.65,4.64-3.92,15.54,2.65,31.25,4.26,46.36,9.16,3.26,1.06,6.21,2.08,8.06,5.26,1.36,2.34,3.16,4.74,1.7,7.33-1.28,2.28-4.15,1.45-6.35,1.51C2291.35,1040.72,2286,1040.62,2280.72,1040.62Z" transform="translate(-325.18 -171.37)"/><path class="cls-1" d="M2138.62,672.18c6.33,13-.93,23.11-5.49,33.16-2.27,5-6.37,9.37-7.39,15-0.78,4.31-3.86,5.5-7,5.65s-5.6-2.42-5.64-5.75c-0.07-6.4-8.78-10-5.91-16.74,2.52-5.92,9.43-7.92,14-12.18C2127.4,685.56,2131.73,678.14,2138.62,672.18Z" transform="translate(-325.18 -171.37)"/><path class="cls-4" d="M2412.36,1394.45c15.13,8.22,28,18.71,37.37,33.16,4,6.11,7.54,12.51,10.9,19,6.55,12.63,3.66,25.81-.8,37.78-2,5.39-11.24,6.92-17.13,10.08-9.59,5.14-12.4,16-21.39,21.63-4.57,2.85.77,8.07,2.8,11.24,8.66,13.51,15.14,28.12,22.55,42.26,8.6,16.39,9,33.84,6.82,51.45-3.61,28.6-11.17,56-25.52,81.4a115.11,115.11,0,0,1-10.12,14.7c-7.79,9.83-9.42,20.31-7.87,32.38,1.72,13.49-5.65,24.75-11,36.41-3.75,8.13-8.32,15.34-15.45,21.23-6.47,5.35-2.69,12.59-.89,19.08,8.23,29.79,18.37,59.16,19.81,90.42,1,22.37-4.11,43.89-9.39,65.37a28.74,28.74,0,0,0-1,4.73c-1,13.9-8.09,25.4-14.35,37.29-9.31,17.66-22.22,31.34-39.27,42.25-18.4,11.77-38.31,13.44-58.94,14.71-13.6.83-24.17-8.62-37.3-9.35-21.75-1.22-41-10.31-59.13-21.53-6.21-3.84-8.75-2.92-11.59,3.75-6.63,15.53-33.41,32.41-46.94,28.26-14.68-4.51-28.11-12.32-35.28-27.27-1.48-3.09-1.32-5.17,3.28-6.17,6.06-1.32,11,.16,15.87,3.15,10.34,6.29,21,9.41,33,4.62,3.54-1.42,7.64-2.91,8.73-6.12,2.75-8.13,11.59-12.76,11.49-22.71-0.06-6.29,10.1-7.31,15.66-1.11,13.59,15.15,31.65,23.18,50.13,28.66,20.49,6.07,42.14,8.62,63.36,1.74,21.9-7.1,31.26-25.87,41-44.55,11.21-21.57,18.75-44.33,24.56-67.8,4.91-19.86,8.32-39.57,6.82-60.45-1-14.39-3.53-27.65-9.74-40.44-2-4.12-3.17-8-9.42-8.57-3.5-.31-10.08-1.67-10.14-7.46s4-9.58,9.49-11.29c8.84-2.75,15.41-9,22.15-14.74,6.1-5.19,10.64-11.53,9.62-20.66-1.25-11.25,3.72-22,3.14-33.42-0.28-5.56-.9-5-5.45-3.13-22.27,9.16-45.52,8.08-68.38,3.55-9-1.77-12.71,1.45-16.52,7.76-3.23,5.35-4.77,11.4-7.79,17-6.2,11.4-16.83,18.39-24.47,28.22-7,9-18.29,6.26-27.65,8.53-6.51,1.58-13.75,3.55-20.06-1.79-1.65-1.39-5-1.58-4.23-4.53,0.61-2.4,3.29-2.88,5.69-3.33,6.49-1.23,12.94-3.81,19.41-3.83,16.49-.05,22.69-11.37,27-24,2.8-8.22,4.95-15.16,13.41-20.33,7.21-4.4,11.25-13.42,12.78-22.41,1.27-7.49,4.77-9.83,12.32-8.06,5.91,1.39,10.19,5.82,16.07,7.54,17.08,5,33.49.33,49.73-3.17,30.17-6.51,45.22-27.43,50.6-56.63,2.76-15,8.16-29.74,7-45-1.64-21.87,1.07-44.3-7.37-65.46-1.33-3.34-2.62-7.3-2.07-10.67,1.77-10.83.49-19.42-11.27-24-3.82-1.49-2-5.57.19-7.55,4.58-4.2,8.61-9.3,15.09-11,18.11-4.79,29.72-35.81,21-51.43-4.19-7.54-1-14.35-3.27-21.4a29.14,29.14,0,0,0-12.52-16.64c-3.66-2.33-6.06-4.16-3.56-8.49C2416.53,1402.65,2408.92,1400,2412.36,1394.45Z" transform="translate(-325.18 -171.37)"/><path class="cls-4" d="M2245.69,2032.39c6.25-1.69,11.22-3.86,16.31-4.22,9.81-.7,15.89-6.45,21.49-13.47a74.38,74.38,0,0,1,7.33-8c8.68-8.09,13.23-18.47,16.84-29.45,4.47-13.62,14-25.35,14.13-40.71,0-5.11.62-10.49,1.14-15.72,0.48-4.76.79-8.92,5.58-11.82,2.76-1.67,4-8.14,7.87-5.26s9.33,5.65,8,13.3c-3.81,22.12-5.59,44.79-16.57,64.94a189.65,189.65,0,0,1-33.83,44.71c-3.87,3.8-8.87,6.75-15.23,5.71-3.58-.58-7.17.76-10.56,2.42C2260.92,2038.36,2253.73,2038.71,2245.69,2032.39Z" transform="translate(-325.18 -171.37)"/><path class="cls-4" d="M2465,1841.26a14.28,14.28,0,0,1-12.37-7.2c-3.47-6-6.73-11.88-12.16-16.41-3.41-2.85-2.76-7.14-.79-10,5.58-8.23,12.07-15.63,21.84-19.41,7-2.72,13.39-.57,18.64,3.16,13.51,9.6,16.76,23.22,11.74,39-2.26,7.11-7.42,9-13.17,10.74C2474.23,1842.49,2469.59,1842.1,2465,1841.26Zm-9.39-28.43c-0.31,5-2,10.08,1.31,13.79,3.94,4.38,7.71-.79,11.6-1.48,2.72-.48,6.63,1.4,7.53-2.67,1.55-6.94,1.16-13.76-3.61-19.71-1.76-2.2-3.84-4.15-6.65-3.19C2459.43,1801.74,2457.54,1807.56,2455.62,1812.83Z" transform="translate(-325.18 -171.37)"/><path class="cls-4" d="M2390,1579.65c0.11-.84-0.09-2.07.43-2.77,2.07-2.79-.06-8.82,4.63-8.81,5.18,0,2,6.16,3.94,8.56,13.4,17,.43,31.61-3.8,47-1.14,4.15-3,3.88-5.14.63-2.94-4.39-3.74-8.57-3.09-14.32C2388.11,1599.94,2386.76,1589.66,2390,1579.65Z" transform="translate(-325.18 -171.37)"/><path class="cls-4" d="M651.36,1845.53c-9.44,4.09-18,8.33-26.93,11.56-14,5-16.45,17.71-20.33,29.38-0.93,2.81-.88,6.41-3.21,8.11-14.38,10.51-13.4,26.1-14,41.14-0.89,22.64,7.07,43.46,13.56,64.58,0.58,1.88,1.36,4,1,5.82-2.5,12,7,18.32,12.13,26.74,6.74,11.13,18.41,16.47,28.07,24.2,16.58,13.26,34.39,24.46,54.72,30.74,21,6.48,42.35,9.86,64.21,3.24,14.18-4.3,19.69-15.52,23.91-28.06,2.35-7,10.75-13,17.84-12.78,1.46,0,17.4,12.89,17.65,14.36,1.73,9.93,7,15.77,16.74,20,6.8,2.95,13.28,8.22,19.43,13.09,16.92,13.39,35.83,22.49,57.28,25.32,20.49,2.7,38.36-2.2,52.73-18.54,8.8-10,14-21.62,18.94-33.52a22.44,22.44,0,0,1,6.61-9.46c13.7-11.32,22.5-9.23,30.83,6.83,11,21.12,30.19,31.16,52.25,36.21,9.74,2.23,15.25-2.44,18-12.31a46.6,46.6,0,0,1,2.51-6.51c1.2-2.7,3.72-2.5,6-2.34,2.75,0.18,3.82,2.06,4.44,4.58,4.55,18.73-5.18,32.65-24.84,33-17.2.33-34.53,1.81-51.67-.53-10.78-1.47-19.29-8.3-27.38-15-6.64-5.47-10.9-5.69-16.06,1.31-4.29,5.82-7.62,12.15-12.8,17.57-18.95,19.81-42.31,26.25-68.84,26.76-16.67.32-32.21-2.83-47.53-8.53-18-6.69-32.87-18-46.22-31.51-0.23-.24-0.4-0.54-0.62-0.78-5.21-5.58-9.48-13.43-15.9-16.09-6.12-2.54-12.74,4.83-19.53,7-18.54,5.8-37.47,7.86-56.81,7.51-20-.36-38.84-4.73-58.09-10.63-21.39-6.56-40-17-58.19-28.95-14.25-9.42-19.52-25.41-26.83-39.79a383,383,0,0,1-19.79-46.16c-6-16.86-11.07-34.42-9.85-52,0.93-13.42,2.54-27.89,10.91-39.86,2-2.93,2.13-5.18-1.91-6.92-13.74-5.91-19-19.27-26-30.89-8.45-14-11.91-29.76-16.08-45.4A48.72,48.72,0,0,0,495,1782.25c-16.28-13.46-34.39-26.72-41.69-47.62-8.62-24.69-13.55-49.94,3.23-74.21,5.69-8.23,13-14.53,19.46-21.71,6.86-7.62,13.26-15.25,21.58-21.44,4.5-3.35,8.89-5.6,14.38-5.9,14-.76,26.8-7,40.54-9.2,6.35-1,8.77-4.63,4-11.43-5.43-7.77-13.59-13.56-16.61-23.09-5.11-16.15-13.3-31.37-13.73-48.9-0.17-6.78-.18-12.95,4.16-18.92,4-5.52,6.66-12,9.86-18.12,3.05-5.83,7.26-10,13.9-11.9a36,36,0,0,0,10.73-5.07c8.54-6,8.63-8,1.86-16.37-9.67-11.93-7.18-36.12,4.39-45.87,3.87-3.26,7.67-3.37,12-2.08,5.47,1.61,2.14,6.36,1.77,8.32-3.5,18.18,5.16,31.18,16.91,43.2,4.68,4.79,2.95,10.85-3.49,13.06-22.13,7.61-30.56,21.64-29.72,47,0.86,26.15,10.58,49.58,19.24,73.42,3.28,9,8.68,17.06,17,22.63,2.17,1.45,5,2.75,3.78,6.13s-4,5.81-7.58,5.34c-11.78-1.56-23,3-34.65,2.61-10.5-.34-17.41,7.69-25.66,11.88-12.14,6.17-24.41,13-34.74,22.49-8.51,7.81-15,16.68-17.6,28.1-2,8.63-1,17.78,1,25.59,4.68,18.34,9.48,37.1,24.67,50.82,7.13,6.43,15.46,11.09,22.56,17.48,9.69,8.71,17.77,17.88,12.11,32.11-1.34,3.38.65,5.83,1.13,8.59,2.28,13.07.94,27.19,10.54,38.28,1.51,1.75,2.45,4,3.9,5.79,8.5,10.54,10.47,10.8,21.87,3.64,4.48-2.81,8.59-6.09,13.35-8.6,9.19-4.85,11.83-14.12,7-23.92a17.32,17.32,0,0,1-1.42-13.19,45.21,45.21,0,0,0,1-19.78c-2-10.59-3.19-20.83,4.16-30.12a7.45,7.45,0,0,0,1.53-5.54c-1-4-2.46-8.29,1.35-11a35.76,35.76,0,0,1,15.58-6c4.19-.64,8.83,6.62,6.44,10.91-9.64,17.27-5.33,34.71-1.52,52.21,1.13,5.18,3.18,10.2,3.86,15.42C638.66,1835.77,646.74,1838.74,651.36,1845.53Z" transform="translate(-325.18 -171.37)"/><path class="cls-4" d="M690,1908.41c-3.84-12.22,1.13-25.83,1.83-39.64,0.51-10.11,8.49-20.54,16-23.1,5.87-2,7.63.7,7,5.44-0.93,6.49-3.16,12.79-4.25,19.26-3.45,20.54,7,55.62,30.33,61.79,11.21,3,22.26,6.57,34.54,5.95,13.07-.66,26.33,1.67,39-3.16,4-1.52,7.58-4.17,11.58-5.69,6.26-2.37,9.31,0,9.37,6.76,0.1,13.35,8.56,25,20.71,28.6,5.79,1.7,7.27,6.39,2.72,10.62-4.89,4.54-1.77,6.24,2.13,7.3a94,94,0,0,0,13.55,2.15c1.63,0.19,3.66-.35,3.84,1.9,0.14,1.78-1.55,2.81-3,3.67-15.29,9-26.18,8.38-40.16-3.74-7.67-6.65-15.81-13.4-17.46-24.59-0.61-4.17-3.5-5.46-7.34-4.55-5.81,1.37-12,2-17.28,4.59-11.11,5.36-23.24,5.51-34.9,7.83-6.57,1.31-12.63-3.38-19-5.15C716,1958.16,700.31,1943,690.85,1921,689.32,1917.43,689.66,1913.84,690,1908.41Z" transform="translate(-325.18 -171.37)"/><path class="cls-4" d="M817.3,2226.2c-22.19,0-34.06-13-43.45-29.35-2.82-4.89-2.23-10.88.33-15.44,7.45-13.26,17.1-24.3,33.59-26.18,6.89-.78,13.8-1.52,20.72-2,7.3-.49,23,12.65,27,22.36,4.16,10,2.48,20.24-5.17,27.16-3.79,3.43-6.05,7.8-9,11.74C835,2223.06,827.45,2228.81,817.3,2226.2Zm19.75-36.48c-0.26-11.41-7.9-20.25-19.06-21.85-7.78-1.12-11.3,2.66-10.11,10.27,1.71,11,16.38,18.69,24.26,18.39C836.6,2196.37,837.88,2194,837.05,2189.72Z" transform="translate(-325.18 -171.37)"/><path class="cls-4" d="M690.74,2051.42c-9-1.36-15.3-6.59-21.93-11.95a84.4,84.4,0,0,1-27.94-40.76c-2.19-6.72,2.46-7.45,5.88-8.77,4.62-1.79,4.24,2.42,4.54,5.19,1.36,12.8,9.52,21.57,16.9,31.33C675,2035.48,681.85,2044.11,690.74,2051.42Z" transform="translate(-325.18 -171.37)"/><path class="cls-4" d="M545.07,1700.34c1.57,6.49-3.64,11.85-3,18.23,1.13,11,6.78,19.74,13.78,27.64,2.52,2.84,5.29,4.89,3.41,10.18-5.94-9-13.74-15.73-18.2-25-3.91-8.14-1.57-25.14,4.14-30.92Z" transform="translate(-325.18 -171.37)"/><path class="cls-4" d="M1225,533.16c9.79-11.45,14.94-24.28,29-28.75,3.83-1.22,6.8-5.16,10.16-7.88,1.89-1.53,1.85-3.29.62-5.25-6-9.55-7.51-21.14-14.23-30.5-3.83-5.33-2.13-11.79-2.08-18.27,0.11-13.77,7.36-22.79,13.84-33,5.74-9,16-13.17,26.36-10.1,2.27,0.67,4.48,2,6.45,0s1-4.61.1-6.58c-9.36-21.45-12-44.61-12-67.21,0-18.08-1.77-37.58,9.2-54.66,3.31-5.15,2.74-12.53,5.51-18.61,3.64-8,8.28-14.94,15.47-20,1.3-.92,3.72-0.92,3.78-2.8,0.28-9.08,8.73-9.89,13.9-14,1.51-1.19,4-1.38,5.13-2.76,15.93-18.88,37.78-26,60.55-32.56,13.3-3.82,26.18-8.94,40.17-8.94,18.09,0,35.36,4.64,51.44,12.47,10.9,5.31,22.79,8.94,32.29,17,20.21,17.14,41.65,33.13,52.82,58.45,2.72,6.17,5.37,7,12.08,2.95,11.28-6.74,24.39-5.73,37.23-3.64,25.78,4.2,37.33,22,44,44.86,1.78,6.09-2.07,10.14-4.17,14.82-1.8,4-4.91,8.92,0,11.43,4.29,2.2,8.9,6,15.41,1.89,17.44-10.88,33.85-23.68,54.56-28.77,13.38-3.29,26.71-3.28,40.18-2.92,8.6,0.22,17.17,1.32,25.74-.65a8.63,8.63,0,0,1,5.79.74c12.09,7.15,26.46,8.56,38.6,15.54,14.58,8.38,27.78,16.94,36,33.56,7.18,14.52,14.23,28.26,16.15,44.56,1.81,15.46-3.39,29.1-8.33,43.13-4.29,12.17-16.85,17.54-22.09,28.77-0.72,1.54-3.27,3.18-5.14,2a6,6,0,0,1-2.46-7c2.4-7.94,4.8-15.87,7.28-23.78,3.66-11.69,4.73-24,7.13-35.88,2.94-14.56-7.6-25.09-17.91-34.58a125.07,125.07,0,0,0-40.8-25.32c-14.61-5.59-28.91-12.39-43.81-17.18-19.7-6.33-39.67-5.13-57.51,6-8.75,5.44-15.69,13.8-23.38,20.91-1.19,1.1-2.17,3.53-3.67,2.94-9-3.53-19.65,2.32-27.94-6.62-11.83-12.76-26.89-19-44.62-16a25.08,25.08,0,0,0-16.67,11.48c-4.39,6.87-9.23,13.78-10.49,22.3-0.85,5.76-3.62,8.86-9.24,4.36-17.05-13.66-37.31-10.25-56.26-8.8-10.52.81-20.27,9.26-30.8,13.08-16.18,5.87-25.27,19.88-37.28,30.54-2.47,2.19-4.36,5.12-7,7s-6.81,2.33-7.4-1.45c-0.87-5.51-4.06-11,2.37-16.86,8.63-7.8,16.32-17.22,24.51-25.14,11.38-11,22.84-22.46,42.11-25.53,19.44-3.1,36,1.78,53.74,4.77,5.54,0.94,8.7.62,11.77-5.13,7.59-14.24,20.59-22.32,34.95-29.11,11.16-5.27,19.94.4,29.53,3.49,2.37,0.76,4.65,4,7.1,1.67,2.25-2.14-.11-4.93-0.88-7.34-4.93-15.58-19-24.51-35.1-22.57-8.21,1-16.22,1.82-23.71,6.26-4.41,2.61-10.44,4.83-14.2-2.23a3.53,3.53,0,0,0-2.47-1.56c-21.19-1.38-25.75-19.83-33-34-8.07-15.92-19.63-28.12-32.77-39.24-10.8-9.14-24.1-13.51-37.56-17.06-9.66-2.55-19.34-.25-28.52,2.1-12.43,3.18-25.71,3.59-37.29,9.55-21.31,11-42.41,22.3-58.16,41.29-4.31,5.2-7.09,11.2-10.64,16.76-12.1,19-21.76,39.4-22.25,62.12-0.38,17.5,1.93,35.07-.23,52.62-0.34,2.77,1,5,2.52,7.34,4.62,7.3,2.3,14.46-5.75,15.64-16.58,2.44-21.58,15.5-27.29,28.09-0.94,2.07-.66,4.69-1.58,6.77-7.41,16.61-1.81,31.36,6.35,45.76,2.17,3.83,5.56,8.33-1.63,9.84-16.72,3.53-27.47,15.46-38.41,26.86C1236.32,528.68,1232.34,531.23,1225,533.16Z" transform="translate(-325.18 -171.37)"/><path class="cls-4" d="M1415.86,237.78c1.81,7.81-.33,11.9-7.08,12.58-5,.51-8,4.37-11.91,6.64-4.85,2.82-9.19,7.23-14.38,8.63-17.6,4.73-24.57,19-29.17,33.72-3.93,12.57-9.5,25.15-8.15,39.21,0.45,4.64-3.73,9-9.39,7.79-4.62-1-11.22-2.67-8.35-9.48,7.42-17.61,9.56-36.86,17.77-54.23,4.54-9.61,12.95-14.92,20.82-20.32C1381.19,251.9,1398.89,246.21,1415.86,237.78Z" transform="translate(-325.18 -171.37)"/><path class="cls-4" d="M1741.26,206.37c-1.36,9.7-4.59,16.2-12.34,17.36-8,1.2-17.55,6.17-24.21-1.89s-14.09-16.16-10.58-28.39c2.6-9.06,12.29-14.64,21-11.37a55.46,55.46,0,0,1,22,14.72C1740.26,200.24,1741.8,204,1741.26,206.37ZM1716.43,217c7.05,0.61,14.12-4.49,14.66-10.59,0.5-5.7-6-12.6-12.51-13.31s-13.2,4.28-13.65,10.24A12.6,12.6,0,0,0,1716.43,217Z" transform="translate(-325.18 -171.37)"/><path class="cls-4" d="M1799,365.92c3.22,1.38,6.55,2.56,9.63,4.2,1.72,0.91,3.15,2.52,1.24,4.72-1.66,1.91-2.84.59-4-.57-2.54-2.47-5.06-5-7.59-7.46Z" transform="translate(-325.18 -171.37)"/><path class="cls-3" d="M545.21,1700.45c-3.28-6.48,1.39-11.68,2.54-17.44,2.85,6.4-2.54,11.36-2.72,17.28A1.79,1.79,0,0,0,545.21,1700.45Z" transform="translate(-325.18 -171.37)"/><path class="cls-3" d="M1456.89,1029.42c9.82-2.28,19.65-4.63,29.93-4.8,21-.35,41.8-4.93,63.06-2.53,16.11,1.82,31.66,6,47.42,9.16,19.19,3.89,38.1,9,56.2,16.65,13.12,5.52,27.51,7.71,40.14,13.64a170.56,170.56,0,0,1,22.27,12.06c10.84,7.24,21.51,14.89,33.95,19.62,3.74,1.42,7.15,5,9.51,8.41,3,4.4,6.17,8.44,10.43,11.71,1.8,1.38,5.18,3,1.5,6.12-2.64,2.24-4.44,1.53-6.68-.84a76.37,76.37,0,0,0-10-8.9c-10-7.34-21.85-7-33.38-8-1.26-.11-2.87.33-3.74-0.3-14.37-10.3-32.17-12-47.94-18.93-15.41-6.79-28.26-18.59-45.25-22.08-19.37-4-38.72-8.08-57.92-12.76-12.3-3-25.62-1.86-36.8-10.11-3.46-2.55-9.54-2.27-14.38-2.09a258.49,258.49,0,0,0-53.69,7.35c-12.52,3.17-24.13,10.28-35.81,16.28-5.24,2.69-9.58,5.72-16.23,5.8-4.65.05-9.26,5.07-14.64,6.54-23,6.33-45.7,14.72-65.38,27.43-20.65,13.33-43.95,20.74-64.5,34.12-18.36,12-38.93,20.81-59.2,29.45-11.31,4.82-23.62,7.74-36,9.6-4,.61-8.59,1.24-12.05,4.12-2.22,1.84-4.19.47-5.16-1-1.82-2.72,1.49-3.08,2.77-4,5.48-4,12.4-2.64,18.66-4.85,22.68-8,43.55-19.17,64.59-30.57,18.46-10,34.91-23.26,54.78-31.14,16.7-6.62,31.87-17,48-25.26,20.75-10.63,43.36-16.56,65-24.89a24.2,24.2,0,0,0,7.77-4.17c10.55-9.36,24.74-12.21,36.13-20.13C1451.79,1029,1454.62,1029.61,1456.89,1029.42Z" transform="translate(-325.18 -171.37)"/><path class="cls-3" d="M1296.31,1568c-11.2,3.85-20.47-.13-29.35-4.79-23.94-12.56-47.08-26.38-69.83-41.08-13.83-8.94-29.07-16.75-45.81-20.07-9.24-1.83-16.46-8.27-25.35-11.12-4.58-1.47-6.9-6.65-7-11.21-0.12-4.15.87-8.6,7.87-5.39,14.41,6.62,28.67,13.56,44.28,17.45,12.72,3.17,21.1,14.44,32.71,20,16.94,8.1,30.26,22.18,47.53,29.48,11.39,4.81,22.82,9,32.93,16.5C1288.52,1561,1291.85,1564.76,1296.31,1568Z" transform="translate(-325.18 -171.37)"/><path class="cls-3" d="M1604.74,1611.54c6.65,3,12.7-1.62,18.93-2.63,21.38-3.44,42.49-8.55,63.71-13,1.3-.27,2.6-0.92,3.86-0.85,4,0.24,9.42,1.48,9.58,5,0.18,4-2.56,8.27-8.94,8.22-15.47-.12-29.82,6.14-44.58,9.67-15.78,3.78-31.73,5.8-47.66,8.23-4.42.67-9.71,1.15-9.79-6.27-0.07-6.2,3.37-8.16,8.72-8.37C1600.58,1611.48,1602.58,1611.54,1604.74,1611.54Z" transform="translate(-325.18 -171.37)"/><path class="cls-3" d="M1270.37,959.09c14.55,0.51,27.49-5.42,41.16-7.32,19.76-2.74,37.49-11.88,56.32-17.55,2.48-.75,5.42-2.83,7.4-0.34,2.26,2.85-.79,5.57-1.83,8.23-1.39,3.54-4.94,4.17-8,5.45-20.33,8.61-41.58,14.6-62.81,20.23-10.55,2.8-22.36,5.81-32.94-1.74-2.5-1.79-7.88-1.58-6.78-5.83S1268.29,961.42,1270.37,959.09Z" transform="translate(-325.18 -171.37)"/><path class="cls-3" d="M985.09,1557.27c30.71,8,59.92,19.93,86.71,36.72C1039.31,1591.21,1008.68,1583,985.09,1557.27Z" transform="translate(-325.18 -171.37)"/><path class="cls-3" d="M1405.08,1627c-5.16,1.91-10.24,2.59-10.21,8.81,0,1.73-2.15,2.12-4,2.06-13.46-.44-26.93-0.68-40.37-1.31-4.74-.22-9.29-2.67-12.54-5.61-5.68-5.14-11.38-8.89-19.31-8.68-2.4.06-5-1.38-4.33-4.15,0.64-2.5,3.45-.56,5.13-1,7.16-1.84,12,3.8,17.89,5.62,13.06,4,26.22,2.59,39.34,3,5.25,0.15,10.35-1.24,15.26,2.28C1396.11,1630.9,1399.16,1622.85,1405.08,1627Z" transform="translate(-325.18 -171.37)"/><path class="cls-3" d="M1489.24,727.76c-4.2-.84-10.89-1.41-17-3.6s-5.8-8.25-5-13.44c0.3-2.06,2.65-3.7,5.46-2,7.84,4.85,16.94,6.59,25.63,8.42,6.74,1.41,6.65,6.48,6.08,9.43-1,5.09-5,1.36-7.93.72C1494.91,727,1493.19,727.47,1489.24,727.76Z" transform="translate(-325.18 -171.37)"/><path class="cls-3" d="M1998.32,1561.47l31.68-1.83,0.18,2.87c-10.41,3-21.08,1.92-31.71,1.4Z" transform="translate(-325.18 -171.37)"/><path class="cls-3" d="M1473.67,1111.83c13.88,0.19,26.4-2.28,39.07-3.91,19.22-2.46,37.35,3.8,55.13,9.8a179.34,179.34,0,0,0,24,6.33c18.13,3.44,32.55,12.28,44.67,26.25,13.11,15.1,23.53,31.35,25.37,51.51,1.52,16.69,5.61,33.06,2.58,50.42-1.53,8.78-.82,18.49-2.76,27.52-3.63,16.87-16,28.43-25.81,41.71-15.9,21.57-40,34.64-56.08,55.88-3.38,4.46-5.65,9.46-10.54,13.41-11.34,9.17-24.49,9-37.42,10.26-7.68.78-14.82,3.15-22.07,5.27-11.29,3.3-22.62,5.46-34.5,4.88-42-2.08-70.2-25.6-92.88-58.57-9.42-13.69-11.36-30.19-18.27-44.11-7.44-15-5.19-30.25-8.83-45-3.26-13.25-.7-27.64,4.86-40.93,6.72-16.06,9.71-36.42,20.63-50.36l24.51-31.3c0.12,20.38-.28,40.4-0.92,60.73-0.72,22.62,7.64,41,27.45,53.07,6.51,4,14.59,4.29,21.43,2.49,18.5-4.89,34.85-12,45.12-31.1,13.55-25.22,14.31-51.28,10.36-77.84a32.18,32.18,0,0,0-22.1-26.39C1481.74,1120.13,1478,1115.25,1473.67,1111.83Z" transform="translate(-325.18 -171.37)"/><path class="cls-3" d="M1783.1,1210.58c-5.49-.92-10.65-2.26-16-0.61a2.14,2.14,0,0,1-3-1.67c-0.34-1.77,1-2.29,2.34-2.44,11.08-1.25,22.41-1.08,32.79-6.18,1.34-.66,2.58.24,3,1.69s-0.7,2.4-1.84,3A55.32,55.32,0,0,1,1783.1,1210.58Z" transform="translate(-325.18 -171.37)"/><path class="cls-3" d="M1221.76,1236.74c-9.27,7.6-18.2,14.92-25.9,23.88-4.82,5.6-21.55,5.93-27.2,2-1.9-1.34-4-2.65-3.16-5.53a3.3,3.3,0,0,1,3.91-2.35c13.51,2.13,23-7.1,33.08-13C1208.86,1237.94,1215.4,1239,1221.76,1236.74Z" transform="translate(-325.18 -171.37)"/></svg>