<svg xmlns="http://www.w3.org/2000/svg" viewBox="344.154 40.326 642.732 1645.949"><path opacity=".1" d="M766.176 377.173c-5.795 7.13-16.16 9.654-19.334 19.36-17.087-3.73 9.706-30.524 19.334-19.36zM700.36 721.79c18-2.473 19.16-15.753 30.983-15.5-10.383-4.512 10.08-10.107 11.622-15.476-22.212 2.285-28.388 20.663-42.604 30.975zM499.03 1263.85c-14.772-4.162-26.065 14.875-15.476 23.22-.607-16.21 1.968-9.326 7.737-3.86-.58-9.654 6.075-11.978 7.74-19.36zM591.966 55.826c6.653-6.453 43.23-2.975 30.98-15.5-3.928 9.15-39.523 6.704-30.98 15.5zm23.22 11.596c10.937 3.2 10.034-5.446 19.358-3.86-6.2 15.224 16.74 1.337 15.5 11.623-13.384 3.078-16.36-4.31-23.264-7.763-6.4 27.045-16.332 33.6-30.955 46.482 23.012-3.982 24.096-26.29 34.834-34.86 16.332 4.717-11.597 15.455 0 15.5 8.543-6.376 17.597-23.522 27.096-7.763-5.317.175-8.473-1.812-11.596-3.884 5.95 21.476 20.844 20.85 23.218 38.745-16.28 4.667-16.99-6.252-27.097-7.736-3.4 12.43 12.778 5.292 11.623 15.48-18.934 13.488-42.094 22.335-38.72 30.982-28.864 1.362-30.8 20.844-50.34 15.475 8.396-17.468 43.888-28.31 46.456-38.718-9.68 7.363-15.198-3.2-27.072 3.885-.052-3.904 3.104-4.614 3.86-7.763-8.822 3.478-22.587-.73-15.5 7.763 3.626-2.065 21.475 2.75 27.096 3.885-18.327 3.607-25.838 18.024-42.578 23.218-1.865-8.796 21.373-11.596 11.596-15.48-5.498.91-6.505 6.375-11.596 7.736-2.013-5.724-5.724-9.757-7.737-15.475 17.113 6.532 4.613-7.18 3.884-15.5 17.946 1.718 21.98-10.485 23.218-15.48 13.66-12.3-15.5 9.228-23.218 11.596-5.57-16.914 19.03-24.322 15.455-34.834-5.75 12.777-4.538-12.958-15.456-7.763-3.4 12.454 10.01 8.04 11.596 15.525-9.957-.658-18.604 19.688-23.218 11.596 10.357-5.368 14.468-14.164 7.737-27.122 5.794-5.795 16.28-6.905 19.333-15.475-51.877 8.396-25.71 89.686-15.455 123.92-13.887-4.112-24.4 4.413-38.745 15.48 15.05 14.874 37.81 14.365 50.34 23.218 5.318-8.82-9.956-14.544 0-15.474 4.338.832 6.054 4.31 7.738 7.737-15.63 18.83 1.234 53.29 11.65 69.726-.91-24.626-11.417-36.15-11.65-46.483 6.88 3.452 4.944 15.733 19.386 11.622 9.854-6.886-2.594-36.126 7.71-42.605 20.62 6.28 8.9 19.508 11.623 42.604-5.093 4.96-14.27 4.96-19.335 0-2.897 11.924 10.615 7.433 7.71 19.333-16.306 1.942-10.84 39.396-27.096 19.385 2.367 17.59 29.09 32.898 27.096 11.622 7.918 16.888 19.914 21.78 19.385 38.72-.954-6.854-45.726 61.833-46.48 54.2-.382-4.008 5.42-3.08 3.884 3.877-12.325-5.543-30.478-1.084-23.218 7.737 1.136-9.028 10.46-9.028 11.596 0-23.773 18.353-29.846 31.762-38.693 50.34-.956-4.206-6.403-9.298-7.764-3.884 4.362.807 6.027 4.285 7.763 7.737-5.544.936-6.557 6.376-11.65 7.737v-27.097c12.05-6.124 34.79-21.857 30.982-30.98-1.136 13.512-10.486-.33-11.622 7.736-13.21 8.144-35.44 40.584-23.218 69.7 1.665-13.816 9.73-21.25 19.334-27.097-10.59 13.384-8.266 18.275-15.475 30.982 6.654 1.536 9.932-5.75 11.65 0-6.506 12.855-13.566 32.57-23.265 30.982 16.765 52.56-23.696 116.33-11.596 139.375-11.423-5.543 9-2.95 3.884 7.763-2.168 8.015-6.053 8.195-11.622 3.885v7.71c.858 3.028.103 7.667 3.885 7.764 7.086-14.165 18.682-33.576 30.956-31.007-4.162-7.182 21.65-42.12 34.86-42.578-10.815-12.15 35.066-33.524 15.455-42.578-6.73 7.892 2.923 7.59-3.86 15.475-13.938-11.146-20.894 28.986-34.86 7.736-5.923 11.648-8.09 26.82 3.88 19.36-7.867-8.597 22.333-21.354 27.096-23.22-13.99 13.082-22.786 31.408-38.693 42.58-.354-6.325 6.428-16.837 0-7.738-2.22 10.312-5.445 30.02-27.096 30.956 1.44-10.357 26.445-17.14 15.475-27.07-3.376 5.645-5.796 12.247-15.476 11.595v-11.597c13.184 11.093-2.446-14.745 15.475-15.5 1.535 6.68-5.75 9.93 0 11.622.83-3.027 3.25-4.485 7.736-3.86 1.162-7.614-5.22-7.685-7.737-11.647 14.796-10.435 30.574-30.072 19.333-42.578-3.052 18.96-15.326 49.057-30.956 42.578 16.184-30.8 14.016-78.418 27.122-92.912 1.864 14.19 10.963 8.744 3.832 27.097 7.208-3.704 12.958 11.622 15.5 0-11.267-5.42 6.88-13.332 3.885-23.218-13.765-6.027-2.342 13.158-11.622 11.622-.58-9.628 2.013-16.08 7.737-19.385.832 4.362 4.285 6.053 7.763 7.763-.884-7.337 4.336-8.544 3.86-15.5-6.654-1.51-9.907 5.776-11.623 0 5.117-.026 3.53-6.782 7.763-7.737 1.136 3.452 10.46 16.965 11.596 7.737-11.847-3.807 4.46-10.338 3.86-15.475-10.383-6.905-7.46 17.043-11.596 3.885 3.356-8.492 20.67-22.94 11.596-31.007-1.84 4.588-4.11 8.796-7.737 11.648 1.84-13.687 9.81-21.224 15.5-30.982H568.7c-.2-2.368-.555-4.588-3.86-3.885 2.827 16.964-7.685-3.1-7.736 7.736 10.383 13.74-11.596 37.99-7.737 46.482-10.183-14.37 5.014-26.316 0-34.86-6.905 4.943-10.964 32.62-19.385 23.244 2.646-17.365 30.652-31.33 7.763-30.982 10.867-6.93 32.543-21.353 34.834-19.36-19.206-3.98 3.477-11.995 3.884-11.62-8.092-5.777-14.57 3.884-19.36 3.884 3.002.858 4.486 3.252 3.86 7.737-11.97.027-10.183 5.9-23.218 11.623 4.84-14.65 28.51-42.63 46.482-54.22 40.48-26.115 43.61 11.797 61.937 19.36-1.162-4.537-20.52-9.706-7.737-15.475 5.343 6.253 10.938 12.248 15.475 19.36-15.984 2.245-24.148 8.17-38.72 27.096 3.48-11.345 3.48-11.9 0-23.244 4.944.226 5.37 4.97 11.597 3.885-5.24-17.417-21.702-8.673-19.334-27.097.91 26.064-26.82 25.838-23.218 27.097.91 7.26 6.35-2.194 7.737 3.885-4.537 10.183-4.814 13.487-11.622 3.885 4.033 9.073-4.51 25.412-3.885 27.097 12.803-5.04 19.256-54.148 34.834-30.982-8.215-14.72-18.753 19.89-11.622 7.737 5.143-.052 3.556-6.782 7.763-7.737-6.982 25.71-21.78 28.032-3.885 42.578-6.808-2.672-11.97-4.26-15.475 0 3 .858 4.51 3.252 3.885 7.763-8.215-14.72-18.78 19.89-11.622 7.738 5.092-.052 3.53-6.782 7.737-7.737 3.304 9.022-13.54 16.69-3.86 19.36 1.11-3.627 10.436-3.627 11.597 0 .2 2.342.58 4.588 3.86 3.86.883-7.312-4.337-8.545-3.86-15.476 4.814 4.866 13.965-19.534 15.475-19.385-12.203 11.95 12.255-23.523 0-11.597-1.187 10.635-13.435 8.17-11.622-3.885 11.293 5.57 4.388 2.975 3.885-7.737 10.59 5.067 15.455 3.402 23.218-7.736-14.97 26.193-5.42 60.092-19.334 81.297-1.51-6.626 5.724-9.905 0-11.595-.226 2.342-.58 4.588-3.885 3.86.026-2.143-3.123-4.39-3.885 0 4.31 3.78 13.306 22.36 3.885 27.122-.658-5.795 1.387-14.294-3.885-15.5-2.168 9.654-5.924 24.025 3.885 23.244-5.143 3.886-14.39 3.653-15.475 11.623 17.746 9.428-15.126 20.295-3.86 23.244.808-4.71 4.286-2.42 7.738 0 8.447-12.23 10.512-30.8 23.218-38.745 1.665 31.762-30.78 63.854-27.097 89.06-2.27-4.762-8.143 4.11-11.62 3.885 8.975 3.027-12.83 27.93-3.886 30.956 5.62-6 5.17-18.075 11.648-23.218-14.945 55.632-31.104 107.36-77.463 139.375-3.628-11.674-17.47-7.208-3.886 0-17.895-4.414-18.7 7.79-19.334 19.36 4.788-12.223 11.24-.704 19.334-11.597-8.144 15.984 5.117-1.484 11.622-3.885 2.62 21.98-16.333 22.386-23.218 34.86-5.795-7.086 1.258-24.78-3.86-15.5-9.73 48.6-7.988 135.238 11.597 193.594-5.343.148-8.492-1.813-11.596-3.885 4.135 24.903-6.532 55.303 0 69.726v-11.648c7.136 9.654 11.17-37.66 3.858-46.43 6.756-.33 12.048.858 15.475 3.833-4.285-11.44-1.336-27.323-3.885-30.956.026 2.168-3.098 4.388-3.86 0 1.06-9.125 17.166-2.368 15.476 3.86-.936 5.542-6.35 6.555-7.737 11.62 9.706-4.942 12.125 1.97 15.5-3.858-5.75-.73-3.556-9.35-3.885-15.475-6.808-3.557-19.308-1.363-23.218-7.738 16.79 3.885 17.243-8.57 23.218-15.526-14.468-4.085-6.15 14.545-19.36 11.648 10.94-6.124-8.743-20.747 3.86-27.097-1.233 4.71.632 23.922 3.885 11.596-5.62-28.084 18.63-16.914 11.622-34.86 12.505 4.788 2.974-12.506 15.474-7.712-10.286 5.318 7.46 15.1 7.763 7.713-3.026-.858-4.51-3.2-3.885-7.712 7.615 1.137 7.686-5.24 11.622-7.762-8.596 16.74 16.307 9.983 23.218 15.475-1.31-1.033-6.053 5.517 0 7.763-2.723-1.007 4.485-12.403 7.763-11.596 2.568.607 2.013 10.357 3.885 11.596 12.377 8.318 51.244 8.015 58.052 30.956-12.855-11.596-32.57-6.48-30.982-15.455-30.575 9.706-51.677-2.117-73.553 7.712-.858-3.002-.103-7.642-3.885-7.713-3.052 8.744 4.31 25.89 7.763 15.455-9.228-7.737 7.008-1.007 7.737 3.885 13.26-12.35 62.415-15.3 69.7 7.763-6.905-2.343-16.107 11.345-19.385 0 7.234-.555 12.958-2.568 15.5-7.763-19.282-3.782-23.064 7.918-34.834 11.648 4.162-18.198-29.975 2.09-38.72-7.763 3.834 13.158-27.373 10.964-15.474 19.36 7.562-5.518 32.95-13.262 42.55-3.86-9 1.284-16.66 3.93-19.333 11.596 7.434 17.494 1.284 19.334 3.885 42.604-3.73-3.2-7.918-25.057-11.622-15.5 10.13 16.03-6.253 3.33-7.763 19.385 15.178-.2 11.996 8.144 15.5 11.596 1.865-4.562 4.136-8.77 7.737-11.596.226 2.343.58 4.562 3.86 3.86-22.258 17.113-44.495 16.713-58.08 46.455-.83-3-.076-7.64-3.858-7.737-.858 7.337 4.362 8.57 3.86 15.475-10.132-7.84-7.616 10.79-15.456 7.763 6.053 5.143-26.167 72.146-11.648 38.693 24.4-24.625 35.544-62.537 69.7-77.412-1.058 5.82-16.636 16.28-7.737 19.334 7.06-15.804 50.567-54.774 69.7-34.834-4.362.4-6.027-5.62-7.763 0 9.273 2.272-9.35 8.144-11.596 11.622-2.065-5.57 15.1-9.454 3.885-11.622-12.35 16.133-46.784 30.575-42.603 50.34 9.325-11.343 24.677-16.635 38.72-23.217-1.51 5.517-4.667 6.53 0 11.596-16.41 8.144-27.956 21.102-42.605 30.98h7.763c.226 2.37.555 4.59 3.86 3.886 3.33-9.784 22.282-23.923 30.98-15.476-12.15 12.23-40.505 20.547-42.603 30.956-10.106 3.175-3.304-14.797-7.737-7.737-11.596 2.55 3.704 8.24 0 15.474-24.4 1.033-10.564 16.914-27.097 23.244 7.686-8.95-.98-4.31-3.885-11.62.103-10.487 31.285-9.68 19.385-19.36-5.795 15.578-16.184-3.452-19.385 3.86 8.925 6.452-6.653 10.485-7.737 11.62 4.537.66 4.207 6.125 3.86 11.65-14.19 6.956-11.146 11.092-27.098 11.595 1.233 8.976-.632 14.874-3.878 19.36 12.577 4.484 23.844-11.85 30.98 0-2.896 7.31-11.518 2.67-3.858 11.595-2.697-3.026-21.605-8.596-23.244 0 14.37 6.305 21.173 20.14 42.604 19.385 2.09 10.486 3.097 9.654 7.763 23.218-7.66-4.085-24.25-4.988-34.86-15.475.632 20.495 19.785 30.227 3.885 46.456 13.74 6.027 2.342-13.132 11.596-11.596 17.772 4.007 3 15.352 7.737 19.334 8.066-10.157 16.333-2.065 23.244-7.737-2.897 17.92 14.797 5.395 15.5 11.622-6.905 7.866-15.752 2.568-3.885 11.596-11.97-5.42-17.417 23.496-11.622 11.648 5.143-.05 3.556-6.78 7.737-7.762-1.44 19.663-16.965 21.63-15.5 34.834-.91-4.182-6.35-9.28-7.71-3.86 22.204 6.228-14.92 7.616 0 15.5 4.135-10.06 22.94-5.42 27.096-15.5-5.95-.928-.58-6.375 3.885-7.736 1.058 29.342-34.208 24.903-38.745 46.456 5.898-5.95 23.618-19.992 30.98-11.596-14.944-.632-28.006 20.773-19.333 30.982 7.408-14.97 17.243-34.634 30.956-23.264-9.1 5.646-8.647 9.654-15.475 0 .86 7.337-4.36 8.544-3.884 15.5 6.68 1.51 9.93-5.75 11.622 0-13.26 3.58-29.24 21.328-34.86 0-1.665 18.38-4.233 10.712 3.885 15.475-9.376 5.24-2.42 7.762-7.737 11.62-2.523-6.175-4.26-6.704-7.763-3.858-13.765 11.19-57.723 73.153-30.98 108.42-5.725-2.014-9.732-5.75-15.456-7.764 7.737 16.307 18.075 38.945 0 50.34 14.345 9.022 20.14 5.04 30.98 15.475 3.376-13.358 20.496-13.035 23.22-27.07-13.436 11.847-21.354 6.35-34.86 19.333 2.845-10.564-7.687-7.79-7.738-15.475 3.33 8.52 24.927 8.52 15.5 0-.227 2.37-.608 4.563-3.88 3.886 4.434-26.393.053-11.57-11.62-27.123 7.962-1.032 3.65-14.39 11.62-15.475 5.396 4.866 1.666 21.908 11.623 11.596-12.906 11.267 9.55 19.23 0 27.123 25.664-10.06-10.912-34.71 3.885-46.456v7.738c7.59 1.16 7.666-5.22 11.596-7.737.884 7.312-4.362 8.52-3.885 15.476 20.894-18.198 5.394-2.523 23.263 15.474-2.846-10.538 7.686-7.763 7.71-15.474-5.568-8.57-9.453 4.866-11.595-3.86 12.958-16.41 6.453-20.34 3.885-46.48-4.788 8.465-6.253 27-7.763 38.718-9.957-11.24 5.09-27.348-3.885-34.834-8.42 9.88-7.06-22.638-15.475-15.475-.607-8.466 15.63-29.742-3.86-27.122 12.856 2.672 6.228-8.015 3.86-11.596 5.343.148 8.492-1.84 11.622-3.885-5.62 9.81 1.89 25.458-3.885 34.86.026-2.168-3.123-4.44-3.885 0 13.08 5.395 16.262-24.877 15.5-38.745 3.504-6.834 8.673-11.996 15.475-15.5-8.37 3.478.478 22.083 3.885 11.648-7.06-4.588 8.873-3.356 0-15.474 14.745-2.393 30.375-10.382 15.5-11.647 5.724-4.588 6.027-14.623 11.596-19.334.13 80.41-23.47 177.84-54.193 201.304 5.57 8.57 9.454-4.84 11.622 3.885-12.577-5.473-22.89 19.636-30.98 15.5 1.135-7.92 10.46-7.59 11.595-15.5-13.584 16.487-21.147 6.78-30.98 15.5 18.326 9.982-19.612 15.75-7.738 19.358 2.697-3.026 21.605-8.62 23.264 0-15.023 2.568-13.79 0-23.264 3.86-2.646 12.176.478 15.828-3.86 19.358-3.884-5.143-3.677-14.39-11.62-15.475-3.202 12.43-3.305 8.042 3.884 15.476-5.472 5.543-18.804-.832-27.097-3.885-1.16 7.642 5.24 7.687 7.712 11.623-5.924 6.098-22.534-6.453-27.097 7.763-4.71-5.62-14.77-5.898-19.334-11.648-10.937 21.502-27.12 2.446-30.98 30.98 55.484 3.757 106.78-13.157 158.734-23.217 37.28-7.207 84.872-3.277 104.56-30.98-5.795-.658-14.32 1.387-15.5-3.86-2.368-12.524 23.67-.2 7.737 0 18.405-.225 32.015-4.968 11.65-11.647 4.18.955 9.28 6.402 3.832 7.763-5.95-14.268-13.965-4.11-19.334-15.475-12.984-119.46 9.828-240.83-7.763-356.205 15.223-11.822 4.362-52.683 30.982-61.963-22.89-44.772 32.37-81.296 23.244-112.297 21.103-8.57 22.135-37.21 38.72-50.315-8.24 73.404 29.09 115.298 19.36 178.094 25.03-23.012-6.306-89.31 23.237-120.015-14.19-36.197 27.148-84.273 23.218-96.798.658 9.68-5.924 12.125-11.596 15.475 3.4-6.853 12.247-11.293 3.858-19.36 10.564 2.827 7.79-7.685 15.475-7.762 5.092 4.285 1.64 36.705 7.763 27.122 2.065-17.823.155-19.585 11.622-30.98-7.892 9.808-.355 39.22-3.885 42.603-5.698-10.66-19.463 3.097-7.737 7.737 4.44-21.676 1.813 18.024 15.48 11.596 5.75-11.345-4.387-14.37 7.738-19.334 9.202 10.008-12.203 37.808-3.885 46.455 5.394-6.253 3.277-19.966 11.62-23.244 4.234 37.184-14.52 13.636-7.736 54.22-4.362.38-6.027-5.62-7.737 0 2.29.677 21.424 24.58 11.622 34.86-8.345-3.278 1.438-24.703-7.764-27.123-6.376 16.462-4.943 23.722 3.885 30.956v7.763c-23.972-4.89 7.132 14.997-3.884 30.956-1.787-17.598-9.757 14.668-15.455 7.763 9.022 9.93 1.466 26.62 3.86 38.72.226-2.37.58-4.59 3.885-3.886-.026 2.167 3.123 4.387 3.86 0-10.384-13.16 18.397-20.167 19.358-34.835.858 3 .103 7.615 3.878 7.763.86-3.026.104-7.666 3.886-7.763.38 11.996-1.762 21.476-7.763 27.097-2.297-7.892 7.26-21.328 0-11.596-9.53 41.01-61.28 51.07-46.482 89.06 8.216 20.947 46.56 13.913 46.483 50.315-12.526-8.395-7.234.453-11.622 3.886-6.4-.077-2.167-10.764-7.736-11.648-3.756 17.617-22.638 42.094-7.737 46.482-2.04-25.432 24.025-10.286 27.097-23.218 2.368 1.84 2.42 48.728-7.737 27.097.58 14.796-.2 28.18-7.763 34.833-.658-5.795 1.387-14.294-3.86-15.5-4.135 26.064-35.24 60.092-38.718 92.938.93-4.206 6.376-9.298 7.737-3.858-6.227 8.744-4.11 16.03-11.596 15.475 11.72 21.424-9.505 18.475 7.71 34.834-10.937-.657-26.54 3.357-27.096-7.736 3.028-.858 7.667-.103 7.764-3.885-7.64 1.16-7.71-5.24-11.648-7.713-.607 4.537.703 10.964-3.833 11.596.503-5.092.555-28.032-3.885-15.475 1.387 14.37-7.06 30.523-15.5 23.218-3.15 30.427-4.285 76.25 7.737 81.297 9.125 21.754-11.396 60.324 11.648 73.58-3.885-13.236 1.613-11.623-7.763-19.334 7.763-19.16 19.108-37.28 30.982-30.982-5.446-1.007-4.414-8.518-7.737-11.622 27.903 5.24 45.198-13.584 73.56 11.622 1.483 21.728-10.59 7.486-15.5 19.333-5.57 2.092-9.455-15.073-11.597-3.884 13.584 6.48 4.485 10.512 0 11.648 4.866 1.562 7.918 4.97 7.737 11.622-16.236-9.3-6.905 5.17-15.48 11.596-14.217-9.654-34.687 4.917-30.983-11.596-.73 5.724-9.35 3.53-15.5 3.86 4.336-5.596 4.182-9.43-3.885-11.597-1.813 12.15 5.517 15.125 7.763 23.217 25.864.53 49.154-.478 61.937 3.86-20.166 8.924-62.918-10.74-77.412 3.884 57.02 23.95 100.45-9.253 100.682-50.34 6.982 3.304 10.635 9.983 19.334 11.622-3.2-12.403-3.303-8.04 3.886-15.5-3.027-.858-7.666-.103-7.737-3.86 4.56-.606 10.99.678 11.62-3.858-6.678.174-9.93-3-11.62-7.763 9.93 10.365 5.542-10.356 15.474 0-.53-20.694-15.707-6.555-19.36-19.333 2.143 0 4.415-3.15 0-3.885-7.285 7.686-3.626 16.533-7.762 19.36-.91-7.26-6.35 2.193-7.71-3.886 44.816-109 36.15-257.467 42.577-379.45 3.858-73.1-12.456-173.073 30.98-240.05 18.25 9.02 37.158-21.58 34.835-34.86.884 3.026.123 7.666 3.885 7.737 12.403-83.994-55.807-152.81-50.315-255.53-7.13-10.94-13.765-22.413-19.385-34.86 17.875 5.24 23.722-.28 46.456-3.86 12.177 9.3 16.333 2.523 30.982 7.737 23.973-13.435 45.98-28.89 54.193-58.078-24.527-87.724-55.328-169.22-85.174-251.672-46.456-37.41-136.652-31.104-174.235-77.438-5.316-33.776-3.025-65.84 19.386-81.297 7.363-51.27-25.987-61.782-46.482-85.175-3.607-26.09-16.514-42.855-27.097-61.963-7.963-7.11-57.878-9.325-23.218-3.86.4 7.312 12.776 2.673 11.595 11.597-14.874 0-32.24-3.278-38.693-3.86 11.938 3.817-11.158 3.59-7.776 11.528zM801.04 338.48c-.78.832 52.354-3.782 30.98 3.86-11.75 4.18-16.686 5.542-30.98-3.86zm-7.763 0c20.494-1.484-1.763 15.655 19.384 11.596-7.866 23.973-50.186 24.832-77.438 58.078 10.738 5.42 26.516-17.217 34.84-27.097 16.436 1.536 107.406-46.734 46.482-15.48 26.82 3.426 27.097-15.682 61.937-7.764-6.098 11.12 23.167 14.39 0 15.475 17.895 12.532 16.56 22.89 27.097 38.745H893.96c.13-3.782 4.762-3.027 7.737-3.885-2.827-3.607-7.06-5.872-11.622-7.737-4.97 9.23-17.32 11.042-27.097 15.476.955 9.983 6.68-5.317 15.5 0-5.446 6.2-13.358 9.906-23.244 11.622.755-3.123 3.904-3.86 3.86-7.737-9.984.33-4.06 16.586-19.335 11.623 9.35-6.853 2.748-17.875 23.217-19.36-13.635-5.523 14.32-31.71 27.097-23.217-8.796-16.81-35.015-10.235-54.193-7.763.104-3.756 4.738-3 7.764-3.885-.13-3.756-4.762-2.975-7.763-3.885 9.603-11.848 23.523 4.666 38.746 0-9.325-5.976-16.56-8.118 3.86-7.71-65.416-12.456-90.926 45.623-112.298 38.718 8.118-7.13 23.644-23.72 46.482-27.12-48.018-2.395-56.942 39.576-81.316 61.962 18.753-3.278 42.5-34.886 69.7-42.604-7.763 11.596-22.412 16.333-34.86 23.244 1.742 3.427 3.4 6.93 7.763 7.737.658-5.822 8.62-17.07 23.218-19.36 1.44 12.1-.4 12.706 0 23.244-13.132-1.387-4.89-11.596 0-19.36-7.39 1.666-9.73 8.345-19.334 7.738 14.417 8.873-40.228 29.742-58.077 46.456 6.68 6.627-5.698 15.223 11.596 15.5-.4 13.713-12.804-8.215-11.597 3.885-5.846-6.453 1.562-10.41-3.885-23.244 20.47-7.92 29.04-27.73 54.2-30.983-.73-3.15-3.885-3.86-3.885-7.763-15.378 2.697-19.082 17.043-30.956 23.244-13.765-10.59 4.64-28.103 19.334-38.72-1.69-6.4-16.635 6.202-19.333 11.623-12.3-25.282 22.457-46.558 46.456-73.552 20.592 4.97-11.32 19.81 7.737 23.218 8.205-6.557 2.61-20.844 3.85-30.956zM750.7 350.076c-3.33 5.17 7.79-15.552 11.596-23.244 19.308 11.648 15.578 29.49-7.737 38.745-9.324 8.466 6.048-7.363 7.738-11.622-15.578 6.376-9.93 16.41-19.334 23.218-8.596-7.26 23.167-31.84 23.218-27.097-.128-12.68 8.44-19.256-15.48 0zm-50.34 131.657c3.606-22.308 34.207-51.522 7.736-3.885-4.485-.626-6.88.865-7.737 3.885zm69.7-19.36c-8.622-9.783 9.73-16.004 19.358-19.36-2.697 7.642-10.312 10.313-19.36 11.597 1.06 9.15 14.417-.355 15.5-3.86 8.093 2.42-14.344 16.16 7.712 15.476-14.235 20.172-1.483-8.234-23.21-3.853 19.758 18.3-28.963 14.14-34.84 30.956-6.35-12.907 22.99-23.342 34.84-30.957zm-23.22 27.103c1.163 8.925-11.19 4.285-11.62 11.622 2.367 5.724 19.836-9.428 3.858 3.86 1.136 7.89 10.46 7.588 11.622 15.474-5.498 6.53-14.945-15.778-23.244-19.334 5.827-4.543 9.48-11.196 19.385-11.622zm11.597 15.475c8.898 9.932 18.17-12.576 27.122-15.474-1.387-5.42-6.834-.33-7.737 3.86-8.215-1.188 4.06-13.436 11.596-11.597 1.943 9.653 7.338 15.906 11.623 23.217-.478 8.544-16.41 1.665-23.218 3.885 1.058-7.99 14.416-3.652 15.455-11.622-9.957-10.964-16.688 14.042-27.097 15.475 7.537 9.228 49.657 10.486 50.367 38.72-2.472-2.143-11.72-15.734-15.5-3.86-8.447 9.228 1.917-7.918 0-15.475-16.81-1.51-5.924 18.63-11.622 19.334-10.286-1.465-.503-28.684-23.244-27.097 2.62 8.7 14.216 16.836 3.885 27.097-11.597-2.523 3.73-8.266 0-15.475-3.305-.704-3.653 1.51-3.886 3.884-3.652-3.278-2.55-9.55-3.885-23.244-13.766 14.37 3.73-12.984-19.335-7.737 3.503-13.9 34.685-17.734 15.474-3.892zm-23.22-23.217c-4.587-16.21 22.716-39.603 50.342-46.456-17.54 17.016-35.693 20.972-50.34 46.456zm139.4-96.797c-21.398 8.9-53.618 25.587-69.725 27.097 6.408-24.877 43.584-34.228 69.726-27.097zm-23.263 15.48c-3.278 5.75-9.73 8.32-19.334 7.738.607 4.537 7.06 3.278 11.622 3.885-3.607 11.9-24.277 6.73-30.982 15.474 8.42 1.258 14.32 2.646 7.71 15.5 16.005-.4-5.975 3.704-11.595-11.622 17.115-15.346 13.663-27.445 42.58-30.975zm34.86 7.738c6.88 2.846.555 7.034 0 11.622 31.052-16.36 35.944 19.534 42.604 30.98-2.774 7.538-22.914-11.847-11.647-19.358-9.176 3.2-17.824-5.472-3.833-3.885-15.45-13.26-29.188-.4-46.482 3.885 5.446 11.396 29.465-11.32 30.982-3.885-2.013 9.53-13.816 8.95-30.982 11.622 5.795 9.002 9.454 5.898 19.36 3.885 5.975 2.04.25 4.033-3.86 3.86-4.414.754-2.168 3.884 0 3.884-1.233 5.24-9.706 3.2-15.5 3.86 18.25-10.08-14.39-13.08-27.097-15.476 19.432-9.595 43.353-15.216 46.457-30.994zM727.457 1546.5c-16.94 2.8 3.123-7.687-7.71-7.764-9.48.452-.86 12.803 3.832 11.648-6.073 6.853-13.817 23.722-23.22 15.455 3.653-18.276 12.933-30.93 23.22-42.58 8.57.48 1.664 16.438 3.877 23.24zm-15.474 46.436c.632-4.46-.858-6.853-3.885-7.712 10.286-13.08 24.025-34.182 46.456-23.244-2.497-3.956-8.9-4.007-7.71-11.596 6.026 6.35 15.1-1.336 23.217-3.885-10.963-3.782-19.255-.608-30.98 7.736-4.415-.755-2.143-3.904 0-3.86-1.692-5.775-4.944 1.51-11.623 0 4.666-10.685 8.42-16.21 3.885-27.122 9.628-.426 11.996-7.26 19.36 0-.608 4.537-7.06 3.252-11.623 3.86 2.367 3.452 4.665 6.93 0 7.736 23.443 12.83 64.756-4.614 77.462 11.648-27.826-.252-9.125 6.2-38.72 3.885-1.664 4.588-5.897 16.56-15.525 23.22.755 4.413 3.93 2.14 3.885 0 7.892 12.376 11.57 11.673 27.097 15.5-2.246 11.344-60.525-24.4-81.297 3.833zM564.845 1488.42c-6.576-1.464-7.286 3.027-7.737 7.713 9.48-2.142 14.165-9.073 19.36-15.474-8.545 15.603-25.233 34.104-19.36 73.577-19.81-7.615-9.125 1.213-19.36 11.596-3.277.73-3.65-1.51-3.884-3.86-.884-.857 9.3-5.974 7.763-27.12 4.737 1.716 7.918 4.987 7.737 11.647 8.396.658 1.762-13.74 3.885-19.385-17.347 18.656-12.352-38.086 7.71-42.578-1.865-8.82-7.666-19.785 0-27.097 2.55 3.633-.374 19.54 3.885 30.98zm-30.982-220.69c-8.118 3.375 5.595-19.74-3.878-7.737-5.498-4.64-1.536-13.287 3.878-23.263 2.724 6.446 5.02 21.043 0 31zm15.507 11.597c-3.627-2.168-5.872-10.738-7.737-3.885-10.893-7.39 5.317-20.166 3.86-30.98 6.55 5.122-5.1 24.553 3.877 34.865zm3.88-15.475c-10.08-5.42 2.8-20.037 3.858-27.122 1.084 10.486 6.027 20.018 7.737 38.72-4.537-1.944-8.04-32.83-11.596-11.598zm46.435-151.023c.73 3.303-1.51 3.65-3.86 3.884-.45 6.15-18.145 34.08-34.86 23.22 1.692 9 17.115 10.356 7.738 19.384-8.015-2.168-8.17-6.053-3.86-11.648-16.713 9.073-6.504 6.453-23.217 15.526-7.286 9.68 2.29-3.73 0-11.648-7.13 9.93-9.654 2.343-19.36 11.648 4.034-8.118 52.562-37.41 77.42-50.367zm-58.058-220.69c1.084-6.906-3.678-7.938-3.885-3.886-11.97-7.286 21.676-21.754 3.885-34.834 9.73-14.39 8.144 14.694 7.737 23.244 8.396.632 1.762-13.74 3.885-19.385-1.26 22.837 31.587 21.352 50.314 34.86 10.486-3.505-3.252-14.243-7.737-15.476 2.523-6.582 8.9-2.42 7.737 3.885 3.93-2.524 4.007-8.926 11.622-7.738-9.88 7.737 1.007 40.584-3.885 42.552-2.29 7.963-3.096-10.035-7.736-19.334-13.435 4.46-7.13-1.787-11.596 11.622-5.395-16.61-20.418-6.027-19.385-23.244-15.68 6.73-16.16-.755-23.218-3.86-8.04.982-1.084 16.992-7.737 19.335-10.564 2.827-7.79-7.666-15.475-7.737 5.498 26.193-21.4 19.914-23.264 38.72-6.454 2.845 12.428-45.373 3.884-58.053 3.782.077 3.027 4.71 3.885 7.737 6.58 1.413 7.31-3.026 7.736-7.737 9.62 4.58 4.658 23.714 23.23 19.326zm-11.642-42.58c8.37 3.28 13.713 9.532 11.648 23.245-3.756-.148-3-4.763-3.885-7.763-4.182.955-2.62 7.686-7.763 7.763-8.976 8.62 7.182-9.55 3.878-19.385-5.24 3.807-7.71 10.338-11.596 15.5-2.368-7.582 1.717-20.746 7.718-19.36zm120.06-425.93c4.84.98 3.905 7.71 0 7.762 17.618 7.286-2.948 28.71 3.86 58.078-4.943 5.395-18.96 1.69-19.36 11.622-5.194-.78-7.207-16.08-7.762 0-7.563-1.187 6.602-44.062 7.763-61.963 3.227-12.3 5.09 6.878 3.885 11.62 8.52-.477 1.614-16.435 3.86-23.243 4.503.64 6.897-.852 7.756-3.878zm-38.744 104.565c.73-4.414 3.886-2.168 3.886 0 28.787-9.55 41.416-23.063 85.175-23.244-28.51-19.965-56.82 7.564-81.296 11.623C632.777 489 680.57 495.47 708.098 481.74c7.563 1.638-6.324 11.04 11.648 7.736 10.964 23.315 2.27 37.886 19.334 58.078-20.998 3.607-17.294 18.63-42.604 15.475-1.233-12.3-3.2-13.107-19.334-7.738-.478-15.96 30.272-.703 34.84-11.622-19.785-10.66-39.448 2.975-65.815 7.737-1.84-12.15 10.435-10.235 11.596-19.334 16.81 5.066 11.693 3.4 15.5-7.763 5.646 2.142 20.01-4.51 19.36 3.885 9.427-4.007 9.427-15.352 0-19.36-4.39.73-2.17 3.886 0 3.86 1.186 7.866-11.19-.78-11.597-3.86-7.208.582-2.42 13.107-7.763 15.476-23.54-7.665-29.29 12.96-61.963 15.5-.806-6.627 6.61-10.027 0-11.615zm58.08-151.022c2.064 3.123 4.032 6.305 3.884 11.648 3.627-2.87 5.847-7.06 7.763-11.647 7.208 18.63-1.813 25.057 11.596 42.604h-19.36c2.55 5.195 8.293 7.208 15.5 7.737-11.24 7.234 1.743 37.686 7.712 42.578-3 3.452-4.162 8.744-3.86 15.526h-19.358c4.007-35.64-18.172-56.64 7.763-69.726-2.723-11.925-2.723-7.408 0-19.36-1.162-8.065-10.512 5.75-11.648-7.71-3.052 10.183-4.033 16.636-11.622 0-3.504 1.033-10.26 17.14-3.86 15.475-8.82 7.234-13.286-10.938-7.736-23.238 16.888 11.744 24.096-32.718 42.604-19.36-6.924 5.186-10.48 23.92-19.38 15.473zm-46.43-34.834c14.37-1.485 10.105 15.68 27.096 11.62-5.42 7.487-18.404 7.41-19.385 19.335-8.343-8.215 3.912-14.39-3.877-23.218-17.598 6.905-17.165 31.866-30.956 42.604 1.16-16.714 16.46-29.395 27.122-50.34zm7.71 46.48c4.26-11.848-.755-27.73 27.097-23.244-16.03 4.362-20.295 14.597-19.334 27.097-9.88-.478-15.023-5.62-15.475-15.5 8.242-1.814 7.364 5.55 7.712 11.647zm23.245-85.2c-9.228-8.447 7.918 1.942 15.475 0-1.362 30.852-73.785 29.568-61.937 0 11.924 15.45 44.397 9.428 46.462 0zm-3.86-131.638c11.823 4.485 19.56 37.383-11.62 34.84-12.3-3.252 6.852-5.092 11.62-3.885 1.51-9.28-17.642 2.142-11.62-11.596 11.9-2.722 7.407-2.722 19.333 0-26.09-19.03-19.585-3.93-54.193 3.886 18.655-26.522 15.247-6.904 46.48-23.244zm-11.62 42.578c10.408-7.208-4.944 11.77-7.764 15.475 13.74-5.24 7.667-6.253 23.245-7.737-4.69-8.467 9.428-24.903 23.244-27.07-.982-4.892-7.687-3.93-7.764 0-12.455-4.39 3.73-11.068 11.648-7.764-6.602 14.442 2.272 6.124 3.86 19.36-21.554-18.302-7.21 9.427-11.623 19.358 7.21-.53 12.96-2.55 15.5-7.737 6.983 7.034-15.5 16.785-15.5 19.36-5.316 7.18-2.22 10.034 3.886 11.62 1.11 6.254-3.652 6.654-3.885 11.597-4.76-1.69-7.936-4.943-7.762-11.596-10.486 3.504 3.278 14.242 7.763 15.48-8.543 4.944-28.683-7.64-34.833-3.884-9.125-.052 1.413-10.564 7.737-7.737-7.434-9.325-18.172-15.378-27.097-23.244 2.04-3.097 4.033-6.278 3.885-11.595 6.085-.33 14.732 1.84 15.462-3.885zm65.82 30.982c12.1-1.187-9.828 11.19 3.86 11.622-6.073 14.14-5.796-9.002-15.476-3.885-8.397-.66-1.743 13.738-3.86 19.358-3.782-.103-3.027-4.737-3.885-7.737-5.092 4.64-6.098 1.51-11.622 0 15.25-4.587 4.44-12.802 15.5-23.217 2.42 2.142 11.7 15.707 15.482 3.86zm-123.9-54.2c8.17 15.778 25.335 1.213 27.097 19.36-12.23 1.89-13.687-6.983-27.097-3.88-.73 3.305 1.51 3.653 3.885 3.88-1.413 6.052-6.853-3.402-7.763 3.858-8.37-6.427 15.378-10.41 3.878-23.218zm131.638 3.885c.58-9.654 13.106-1.162 15.475 0-.4 5.143-7.26 21.328 0 11.596 6.808 3.356-5.317 20.166-7.71 27.097-1.208-6.68-5.9-28.31 3.832-34.834-.608-4.543-7.06-3.28-11.597-3.86zm-89.034 46.456c3.122.703 3.832 3.86 7.71 3.86v7.736c-12.125 4.31-10.21 1.812-19.36-3.86.91-5.595 11.57-1.362 11.65-7.737zm19.333 46.456c1.233 9.28-26.845 20.694-27.097 3.884 9.68 9.73 15.197-4.46 27.097-3.885zm73.578 0c8.467 11.266-4.84 33.73-11.62 42.577-6.248-17.598 11.273-21.91 11.62-42.578zm-30.974 27.102c2.142-11.216 6.027 5.924 11.596 3.86-2.594 7.71-11.77 8.872-15.455 15.5.407 9.453 12.784.806 11.596-3.886 6.35 2.897-4.614 20.895-15.48 19.36 7.233-7.364.4-9.732 0-19.36-7.687 7.337-6.628 13.584-3.886 23.244-6.93-.503-8.17 4.71-15.5 3.86 2.194-26.93 30.607-27.207 27.13-42.578zm27.097 27.097c-6.834 17.57 5.846 20.113-19.36 34.833-8.395-11.19 16.94-21.625 19.36-34.834zm11.596 50.34c9.93 7.685-9.784 18.326-15.476 23.217 2.62 8.466 12.855-7.337 15.475-11.596 5.42 14.9-17.192 21.754-27.098 27.098 1.387 5.42 6.834.33 7.763-3.885 8.647 2.826-8.544 11.674-7.763 19.36-9.505-15.3 16.662-36.273 27.097-54.194zm-3.834 27.096c9.505 12.326-19.004 19.585-19.385 34.834-8.57-11.344 14.772-23.793 19.386-34.834zm3.833 11.622c5.923 8.7-19.535 19.004-23.22 30.982-3.903-6.686 14.546-24.025 23.22-30.982zm-15.482-50.34c.148 4.916 1.762 21.475-15.475 23.237.78-12.125 9.983-15.83 15.475-23.238zm154.875 69.7c-3.53 10.512-13.54-3.956-19.334-3.885-33.376 7.485 8.066-11.72 19.333 3.885zm-3.878 7.737c-5.62 9.828-23.47 7.486-27.07 19.36-6.454-2.976 7.13-18.354 19.333-15.476-5.143-11.017-17.217 2.974-23.218 3.858-9.126 5.26 17.39-21.785 30.955-7.743zm-3.86 11.596c11.217 8.448 25.11-13.46 46.457-7.71-14.9 14.77-49.43 9.93-61.937 27.097-8.195-1.213 4.06-13.435 11.596-11.622-3.884-15.378-17.113 17.043-15.474-3.885 20.295-.355 24.528-16.765 46.482-15.475-7.408 5.517-16.81 8.996-27.122 11.596zm58.105-7.717c2.975 15.778-66.196 25.864-61.982 30.956-13.99-14.824 50.992-15.502 61.982-30.957zm-54.245 34.84c15.378-12.428 47.895-25.986 69.726-19.358-25.21 4.484-47.217 12.176-69.725 19.36zm69.72-11.596c-15.553 8.647-87.396 22.76-30.982 0h30.98zm-69.72 27.07c4.207-14.118 83.917-17.797 38.745-11.595-11.874 4.085-30.35 16.184-38.745 11.596zm65.84-3.85c2.776 10.51-18.248-2.776-15.474 7.736-5.645-1.716.382-3.4 0-7.737-12.202-1.865-15.15 5.517-23.243 7.737-3.355-9.583 22.457-12.855 38.72-7.737zm-3.884 27.096c-3.374-7.563 30.253 9.654 30.983 23.244-10.66-7.415-18.927-17.198-30.982-23.244zm-96.796 0c19.16 31.607 1.06 43.055 0 0zm11.622 3.878c6.93-.502 8.17 4.738 15.475 3.86-5.142 6.48 1.414 24.65-11.595 23.218 2.245-12.558-2.64-17.998-3.88-27.077zm46.482 7.745c8.066-10.338 18.475 9.654 30.982 7.737-5.17 16.055-21.928-4.137-30.982-7.737zm-23.263 0c8.62-2.142 5.517 7.39 11.648 7.737-2.846 6.905-7.06.555-11.648 0-2.852 11.925 10.66 7.46 7.763 19.36-12.55 4.787-2.975-12.527-15.5-7.764 1.658-7.363 8.343-9.705 7.737-19.333zm23.263 30.975c.58-9.628-2.013-16.08-7.737-19.36 6.454-17.52 15.656 22.232 15.456 0 7.686.053 4.97 10.565 15.5 7.712-13.99 7.408-1.613 11.12 0 23.244-9.454 9.88-21.857-11.467-3.885 0 .583-10.886-9.47-11.164-19.332-11.596zm-232.312-19.36c5.776 8.396 22.205 6.176 23.218 19.36-13.635-7.79-25.232 14.596-34.834 23.217 14.623-8.62 28.407-18.05 42.604-27.097 5.724 3.304 8.318 9.73 7.737 19.36-9.2 2.42-18.048 5.194-19.384 15.474-9.325 1.587-8.42-7.06-19.334-3.86 1.336-5.09 6.808-6.07 7.71-11.62-9.098 1.212-7.18 13.434-19.333 11.62-8.17-8.09 5.09-14.57 11.62-19.358-3.78-3.956-7.665-7.84-11.62-11.622-1.162-10.176 15.023-3.045 11.616-15.474zm7.718 65.822c3.427 12.43-12.758 5.317-11.596 15.475 18.908-.355 11.422-15.63 15.475-23.244-10.01 10.338-4.06-8.9-19.36-3.86 1.943-13.434 21.606-1.967 27.098 3.86 4.363-3.478-.25-8.647 7.764-15.475 6.905 2.846.555 7.034 0 11.622 11.745-8.95 22.438-7.008 27.097-7.737 7.39 17.824-30.703 23.418-38.744 38.72-5.698-11.016 23.393-20.393 34.86-27.123-30.226-2.013-46.734 32.188-61.937 50.34 15.177-3.53 61.66-48.9 42.603-27.096-11.345 12.958-30.2 33.047-58.078 42.604.632-4.51-.884-6.88-3.885-7.737 14.12-14.32 4.44 11.746 15.475 0-2.846-14.52-5.446-24.902 7.737-30.98-1.136-9.23-10.486 4.31-11.622 7.736-10.84-.052 9.228-10.564-7.71-7.737 14.118-12.578-8.874-13.056 3.832-38.72-9.505 8.144-6.653-9.047-11.596-23.218 8.195-1.162 4.44 23.244 19.36 23.218-17.85 13.713 11.118 7.563-7.764 15.475.4 9.957 14.442 6.227 19.385 11.622 4.866-.955 3.904-7.686 0-7.737 2.856-6.92 7.044-.59 11.607-.008zm-38.7 73.553c7.866-9.15 7.034-4.943 23.218-7.737 8.092 6.098 6.808 21.58 15.475 27.097-9.68 11.648-18.908-6.853-11.596-15.475-15.5 2.75-.225 18.172-7.736 23.244-15.326.632 1.213-5.976-7.763-11.648-7.207 5.672-4.56 21.25-19.358 19.385 2.923-20.59 5.776-33.523 0-58.077-3.782.103-2.975 4.737-3.86 7.737-12.983-3.53-1.94-7.208-3.884-19.385 3.452 3.027 8.75 4.182 15.5 3.885-6.318 6.272 3.44 16.204.006 30.975zm81.297-15.475c-6.323 5.872-.102-9.3 3.886-19.385 3.427 3.027 8.744 4.182 15.5 3.885 3.278.703 3.633-1.51 3.833-3.885 7.51 14.545-30.376 10.26-23.22 19.385zm-15.474 23.212c10.512 3.504-8.847 8.673-7.737 15.5 10.634-8.17 5.95 5.092 3.884 11.622 9.757-2.62 6.834-12.855 3.86-15.5 8.698-7.537 20.417-12.074 11.595-27.097 6.53-8.976 21.5-9.505 27.096-19.36 8.466 2.62-7.31 12.88-11.596 15.476 1.233 8.24 11.97-5.517 15.475-7.71 2.8 11.924-25.36 26.14-34.834 38.692 19.967-7.11 27.53-26.645 46.457-34.834 4.207.956 2.62 7.687 7.763 7.738-4.414 11.32-21.173 7.486-11.622 23.218-16.462-3.53-19.488 6.35-23.238 15.5 11.19-12.906 28.64-9.402 34.86-19.36 7.234 15.127-30.272 18.657-42.604 27.098 22.69 4.26 49.683-22.23 65.815-27.097-3-3.452-4.16-8.744-3.884-15.475 6.93-1.11 7.937 3.652 3.885 3.86 3.628 2.064 21.45-2.75 27.098-3.86 5.42 1.362.355 6.808-3.885 7.737 15.378 5.09 3.86 4.64 30.982 7.736 7.537 5.266-23.54 4.588-30.982 7.737 7.434 9.35 20.192-5.595 30.982 3.885-8.015 8.744-21.45 12.074-34.834 15.475 6.628 8.847 29.543 1.44 42.598 3.885 10.338 6.88-22.69 2.827-30.982 3.86-8.292 3.05-21.65 9.4-27.097 3.884.63-4.537 7.06-3.278 11.62-3.885-4.787-11.745-13.33 4.207-23.263 0-1.788-8.24 5.543-7.363 11.648-7.737-3.375-11.267-5.795-4.336-15.5-3.86-7.563 15.127-11.016 19.386-27.097 19.36-.658 8.396 13.74 1.742 19.36 3.86-21.277 1.006-12.023 22.637-34.84 34.86-.982 7.865 14.138 18.778 19.358 7.736-3.375-5.846-5.795 1.058-15.475-3.885 6.228-11.9 18.605-5.445 27.098 0 4.362-.728 2.142-3.884 0-3.858.632-4.537 7.06-3.278 11.596-3.885-5.472-11.32-25.206 10.615-23.218-11.596 14.72 5.596 1.968-16.86 30.956-19.384-2.826-3.607-7.008-5.872-11.622-7.737 5.446-11.294 13.358 6.852 23.264 3.884-4.233 7.13-30.575 11.9-11.648 19.36-2.826 6.878-7.008.554-11.622 0-3.123.702-3.86 3.884-7.71 3.884 15.248 1.51 14.52 19.004 30.98 19.334 4.614 6.705-29.09-3.375-30.98 15.475-3.705-8.7-12.527-7.208-19.386 0-8.976-2.594-10.357-12.855-19.36-15.475 1.718-4.762 4.97-7.937 11.65-7.737-3.68-6.982-28.182 1.11-7.764-7.737-3.807-10.84-10.338 5.62-15.5-3.86 9.402-11.492 21.25-12.854 30.982-7.762v-11.622c-10.84 9.047-18.882 3.607-34.834 11.622.503-6.956-4.737-8.17-3.86-15.475 5.067-4.665 6.073-1.51 11.597 0-1.137-9.02-10.462-9.02-11.597 0-8.82-6.58 8.195-19.913 19.334-19.358-6.88-10.357-25.51-.052-23.218 11.596-11.57-10.61-2.55-17.87-11.623-30.98-12.1 19.384-21.805-24.755-3.885-30.957-3.904-2.548 1.968 32.622-7.737 19.36 1.513 16.507 15.755 11.52 23.24 3.852zm38.693 112.304c11.492-7.79 28.083 1.007 34.86-3.885-.104-3.755-4.738-3-7.738-3.884 7.26-7.815 36.047 9.073 38.72 23.244-5.725-4.485-9.758-4.485-15.482 0 3.807 10.867 10.338-5.62 15.48 3.885 7.338-.426 2.698-12.803 11.623-11.622-5.117-2.117-16.714-27.6-19.36-7.737-3.78-.13-3.025-4.737-3.858-7.763-.658-4.537-7.06-3.252-11.648-3.86 17.72-14.015 32.595 12.856 34.86 7.738 11.72 4.738-2.75 14.772-3.885 19.36 17.824-4.11 33.15-10.738 50.34-15.475-22.333 17.365 16.463 24.625 15.476 50.34-9.88-10.537-17.946-16.964-34.834-11.647 8.62 8.144 17.895-3.278 27.097 7.763-5.67 5.422-31.38-1.967-42.577-3.884 3.4 6.853 17.165 6.4 7.71 15.5 18.405-1.64 27.956 5.62 42.605 7.737-10.79 11.145-31.182 12.68-38.72 27.123-5.594 2.117-20.017-4.537-19.358 3.833-4.97-10.26 30.55-13.21 38.745-23.22-1.387-5.065-6.834-6.07-7.763-11.595-5.724 1.665 1.51 4.943 0 11.596-7.892-1.135-7.59-10.46-15.5-11.595-2.29 10.06 1.587 13.94 11.648 11.596-12.1 11.72-20.72-3-46.456 3.886-13.713-14.797-27.374-49.986-42.604-50.34-5.395-13.99 21.4-4.815 30.982-15.476-.73-3.15-3.878-3.885-3.878-7.737-3.782.077-3 4.71-3.885 7.737-7.41 1.787-16.663-11.95-15.476 3.86-20.773.147-28.058-13.236-34.84-27.098 4.766 1.693 7.94 4.94 7.715 11.624zm19.384 34.834c22.03 1.942 7.71 16.16 15.475 30.98-3.757-.102-3.002-4.736-3.886-7.736-4.414 1.362-9.81 6.808-3.86 7.737-14.32 7.616 4.034-18.048-3.858-27.122-4.537.658-3.278 7.086-3.885 11.648-5.284 12.346-5.284-15.177.014-15.506zm116.13 38.72c4.44.754 2.17 3.884 0 3.884-.677 3.304 1.51 3.652 3.886 3.86-3.375 5.846-5.795-1.06-15.475 3.884.103 3.756 4.737 3 7.737 3.885-13.235-1.213-22.915 9.454-42.578 11.596 6.35 11.066 20.973-1.866 27.097-3.886 31.183 13.765 11.468 2.872-7.736 7.763 5.846 5.75 16.965 6.227 27.07 7.737-1.032 11.345-5.316 14.37 0 19.36-6.555 10.06-17.97-7.512-30.955-3.886 7.407 6.808 20.19 8.215 30.955 11.622-10.183 11.216-22.083-8.673-38.72-3.885.356-5.472.66-10.938-3.832-11.596 5.595-5.977 15.075-8.12 27.097-7.738-18.424 6.453-4.46 10.106 11.596 11.596-.607-4.537-7.06-3.252-11.596-3.86.632-4.536 7.06-3.277 11.596-3.858-9.93-14.623-47.314-1.742-50.34-23.264 25.663-.154 39.93-11.698 54.2-23.217zm-7.737 85.2c-.678-3.304 1.51-3.652 3.885-3.885-3.504-4.362-8.673.226-15.475-7.737-8.466 2.62 7.337 12.855 11.596 15.475 8.847 1.084 14.545-.936 15.5-7.737 10.486 3.504-8.847 8.673-7.763 15.475-15.126-5.516-23.367-17.894-34.834-27.096 6.945-9.604 57.44 10.866 27.09 15.506zM789.42 752.764c-15.204 17.294 22.386-10.106 15.475 15.475 4.537-.633 3.278-7.06 3.885-11.623 14.468.355 11.04 4.336 23.238 0-12.1 17.114 1.536 11.422 15.475 15.5-4.588 10.435-20.192-.026-27.122 0 3.53 6.808 13.585 7.06 19.386 11.596-4.866 7.737-26.568-11.72-30.982 3.885 3.504-15.223-35.39-.73-38.72 0-10.182-11.57 8.17-2.827 15.5-7.737-.606-7.156-13.13-2.393-15.5-7.736.782-5.195 16.082-7.208 0-7.763 5.802-4.485 9.46-11.19 19.366-11.596zm-139.374 3.86c2.04-3.1 4.033-6.28 3.86-11.623 12.15 4.39 10.234-1.11 19.358 3.886-7.763 14.668-11.32-5.898-23.218 7.737zM626.782 745c.452 7.435 12.984-4.536 23.264 0 .478 6.957-4.762 8.17-3.885 15.476-3.025-6.324-12.854-21.25-11.62 0-11.823 2.826-14.12-3.93-23.245-3.86 18.075-10.563-8.925-16.584 30.982-23.217-1.053 7.95-10.326 7.723-15.495 11.6zm-23.218 19.36c4.97 4.007 9.957 40.732-3.885 38.72 3.096-8.926 3.25-12.804 3.884-30.957-6.576-1.44-7.31 3-7.737 7.737-12.758-5.768 6.575-10.91 7.737-15.5zm27.096 7.764c8.7-2.975.13 30.097 7.763 15.475 14.668 6.6-8.42 6.375-7.763 11.62-6.653-1.212 5.04-13.434-11.596-11.62.103 3.78 4.737 3.025 7.71 3.884-2.974 3.427-4.16 8.744-3.832 15.475h-11.648c8.518-16.237-9.628-35.242 7.763-42.605-4.033 3.678-3.556 19.966 7.71 19.36-9.44-15.32 5.81 4.34 3.893-11.59zm174.235 30.955c5.517-15.153 31.607 13.105 23.244 0 1.69-5.75 4.942 1.535 11.62 0-5.42 6.2-13.357 9.905-23.217 11.62.103-3.755 4.717-3 7.71-3.884-3.045-14.493-13.505-.225-19.358-7.737zM646.167 903.76c-.936-21.023-6.2-37.685-3.885-61.962-8.9 9.176-1.387 34.79-3.86 50.34-9.653-17.164-12.776-67.834 7.738-85.174 4.007 14.997-2.013 15.96 3.885 27.097 12.248-33.775 2.065 14.32 15.455 11.623-8.42 16.08-13.686 41.087-19.333 58.078zm11.597-27.096c7.918 16.385 9.228 34.51 0 50.34-11.345-3.277 5.04-9.756 0-19.358-3.756.103-3 4.737-3.86 7.712-4.11 1.91 1.162-24.478 3.86-38.694zm-58.08-27.103c.756 3.124 3.905 3.86 3.886 7.713 3.53-2.62 2.194-16.914 19.385-15.475v15.475c-10.06 6.705-12.203-5.672-7.763 11.648-14.545 2.924-13.106-10.13-19.36-15.5-11.44 3.357 9.003 5.796 3.86 15.5-10.21 1.162-9.983-8.09-11.596-15.5 19.688-6.35 8.847-23.817 27.097-34.833 7.537-1.917 13.94 19.21 0 15.475 2.065-3.097 4.033-6.28 3.885-11.596-10.65 4.812-8.332 22.662-19.393 27.095zm77.458-15.5c.703 4.415 3.885 2.143 3.885 0-3.278 12.88 8.092 41.165 7.737 30.982-18.146 1.968 7.434 29.975-15.5 27.097 10.59 68.44-9.706 1.786 0-19.335-10.383 16.184-1.994-48.398 11.622-61.982 10.512-2.75-2.775 18.275 7.737 15.5-2.846 6.905-7.034.555-11.596 0 .607 4.485-.858 6.905-3.885 7.738zm38.72 19.36c-6.15 6.782-5.196 20.644-7.764 30.98-13.158-18.603-14.468-42.273 23.244-50.34 9.88 6.88-2.575 36.15 7.737 42.604-13.74.852-12.178-4.29-23.22-23.244zm-220.69-7.737c5.265-9.957 3.677 19.16 7.71 23.244-18.45-.51-5.11-8.776-7.71-23.244zm81.295 7.737c1.11 6.28-3.652 6.68-3.885 11.622-1.917 9.783 19.237-10.79 15.5 7.763-3.097-2.697-10.615-6.027-11.622 0-8.26 2.272-14.06-23.14.007-19.385zm-77.438 61.937c-4.39-.703-2.17-3.885 0-3.833-7.867-25.083 13.028-51.322 0 3.833zm255.53-23.218c10.513 5.194-.98 29.316 15.5 58.077-4.536-.607-3.277-7.06-3.884-11.596-4.737 1.666-7.937 4.944-7.737 11.597-5.24-1.213-3.228-9.68-3.886-15.475-6.2-1.665-12.984 14.442-3.86 15.475-1.36 5.446-6.833.33-7.736-3.885-7.892 4.69 1.89 16.74-15.5 19.385.503 10.712 7.408 13.287-3.885 7.737 1.162 33.4-12.455 52.05-15.475 81.297 11.822-44.164-13.79-123.822 23.244-150.99 4.814-3.555 34.737-2.167 23.22-11.62zm-116.136 11.62c8.9 6.557 5.117 25.84 15.475 30.982-9.978 9.725-15.65-17.72-15.476-30.98zm11.622 42.572c1.336-5.42 6.808-.33 7.71 3.885 3.628-2.846 5.9-7.034 7.738-11.596 6.556 7.642 4.233 24.174 7.763 34.835-9.983-9.325-5.795-21.25-19.36-19.385.66-4.485-.85-6.854-3.85-7.738zm-58.08 205.216c9.403 5.543-13.886 23.948-3.884 30.98-7.31 9.758-3.652-13.512-7.737-11.595 6.608-3.704 8.473-12.202 11.622-19.385zm-69.7 34.867c-11.97-5.04 11.12-5.117 7.713 3.86 3.33.702 3.65-1.51 3.877-3.86 7.71 2.594-3.807 12.855 3.885 15.5-3.782 6.227-10.338 8.873-15.475 3.833 2.826-3.58 7.034-5.847 11.596-7.712-2.142-5.575-6.02-9.46-11.596-11.62zm50.316 7.737c-.103 3.756-4.71 3-7.737 3.885 7.034 10.338 8.04 11.145-3.885 23.22 2.872 3.626 7.06 5.87 11.622 7.762-3.375 5.82-5.795-1.085-15.475 3.858 5.776-17.546-10.66-13.61 7.737-27.122-1.032-9.1-14.39.38-15.475 3.885-4.415-.728-2.143-3.884 0-3.884-16.79-12.133 12.423-1.273 23.212-11.604zm251.672 19.36c10.286 1.94-13.306 22.107 0 27.096 13.235-2.775-17.643 1.787-3.885 7.737-14.462 7.183-2.162-27.626 3.884-34.834zm-46.43 27.096c4.285 1.69 9.628 27.53 11.596 7.737 9.402 13.842 30.852 15.604 34.834 34.86-3.427 1.742-6.905 3.4-7.71 7.737-15.682-13.254-50.013-22.327-38.72-50.334zm27.07 240.05c-2.09 5.62 4.538 20.018-3.858 19.36 12.1 6 13.287 22.837 19.334 34.833-5.698-2.012-9.73-5.723-15.475-7.736-6.627-18.882 1.942-35.44-11.622-65.79 7.286 1.233 24.877 14.9 19.385-19.385 9.428-2.447 8.473 49.256-7.763 38.718zm-11.615 11.648c-5.725-5.446-8.32-12.403-7.712 3.833-3.93-2.473-4.033-8.874-11.622-7.713 2.523-10.357 11.093-14.745 15.48-23.244 16.38 5.847 7.1 13.28 3.853 27.123zm-332.97 150.99c-8.143 9.88-28.56 7.563-46.455 7.737-2.143-4.936 31.407-7.182 46.456-7.737zm77.438-1153.82c7.815 6.808-10.912 19.837-3.885 38.72-8.04-2.17-8.19-6.028-3.878-11.623-3.278-.703-3.627 1.51-3.833 3.86-10.157-9.132 10.59-20.122 11.596-30.957zm197.473 720.15c14.12-17.017-8.395-23.722 11.623-34.834-.226 4.97-4.988 5.37-3.885 11.622 6.88-.884 19.385 3.904 15.475-7.763-18.275-4.032 17.875-50.14-3.885-65.815-6.124 10.21-2.846 13.487 3.885 3.885-8.292 9.783 3.078 39.222-11.596 42.604.884-6.905 7.39-15.178 0-23.244-8.673 11.996-2.523 38.77-23.264 38.72.632 14.693.148 24.527-7.71 11.62 3 9.907 3.832 21.954 11.595 27.098 2.394-10.486-4.917-30.73 3.885-34.86-1.362 15.404 4.814 38.416-7.763 42.604 11.422 9.783.832 14.694 11.648 15.475-1.742 8.847-13.66 27.323-3.878 34.86 7.105-21.65 30.878-49.154 42.597-54.193-2.117-5.62 4.485-20.018-3.878-19.36-15.18 5.5-19.515 21.806-30.982 30.982-.226-8.196 8.847-32.466 3.885-27.097-.84 4.296-4.32 5.986-7.752 7.696zm30.956-34.834c-3.653-21.224 14.19-43.76 7.763-69.674 0 2.142-3.15 4.388-3.88 0 .885-3.026.104-7.666 3.88-7.763 11.518-4.64 4.942 27.98 11.62 15.475-6.175-17.365 1.51-28.787-3.884-34.834-.807 4.692-4.31 2.368-7.737 0 2.574 27.574-8.72 9.628-15.5 15.475 21.83 12.204-4.46 42.953 11.62 54.194-11.795-.4-16.635 25.87-3.884 27.128zm46.482-762.753c8.22-18.883 37.583-16.637 54.193-27.098-23.462 1.104-58.774 10.783-54.192 27.097zm-224.57-11.623c-.63 4.562.68 10.99-3.858 11.622-.955-5.95-6.402-.582-7.763 3.858 11.545 1.233 19.03-2.543 19.36 0-.582-10.84 15.83-20.566 23.243-15.475-12.1 1.187 9.828-11.19-3.885-11.596-10.615 3.58-13.66 14.694-23.218 19.334.833-4.872 6.028-7.924-3.878-7.743zm-7.743 81.316c-.555-13.66 18.553-27.626 11.622-34.86-2.29 10.086-27.8 43.204-11.622 34.86zm0 127.752c16.514-16.765 11.52-23.193 15.475-27.07-12.777-5.293-24.45 21.12-15.475 34.814-2.09-5.57 15.075-9.43 3.885-11.597-.226 2.342-.606 4.588-3.885 3.852zm-46.482 69.726c-2.142 5.544-6.027 9.43-11.596 11.597-3.982-5.092-3.807-14.268-7.763-19.36-11.093.73-23.115 20.444-19.334 23.245 9.73-5.976 14.694-13.965 15.475-19.36 11.093 15.805-20.67 22.135-27.097 23.22-3.072 13.383 4.285 16.358 7.737 23.243-4.588-.58-8.796-6.905-11.622 0 7.51 9.002-4.188 39.396 7.763 61.937 5.498-16.21 8.17-29.44 27.07-42.578-2.974-.858-7.614-.103-7.736-3.885 8.066 2.064 8.215-15.1 3.885-3.86-7.59 3.478-10.764 26.29-23.218 19.36 22.386-18.857 3.73-43.663 30.956-54.22-2.117 5.62 4.51 20.018-3.885 19.36-9.376-11.875-2.42 4.458-7.737 3.884-2.14-13.66-11.673 13.66-3.884 0 7.408 7.26 7.034-2.29 19.385 0-5.29 4.943-5.29 18.275 0 23.218-7.31 5.62-20.14 5.698-23.243 15.475 40.848-6.587 28.27-77.572 34.846-81.276zM518.39 690.81c-7.687 7.815-18.302 12.655-23.22 23.218-5.214-5.472 7.59-25.742 23.22-23.218zm15.473-135.516c5.317 8.82-9.957 14.545 0 15.475 6.027-13.106 18.45 19.663 23.244 7.763-7.26-.936 2.194-6.376-3.86-7.763-6.93 10.39-10.51-15.023-19.384-15.475zm42.604-42.604c-6.027-.303-2.672 11.267 0 3.885 2.168-8.744 6.053 4.69 11.622-3.885.354 6.35-6.454 16.862 0 7.737 3.05-.426 11.718-12.777 3.884-11.596-4.033 9.756-15.378-6.254-19.385 0 2.367.232 4.606.58 3.877 3.858zm-61.963 92.945c3.2-17.27 9.906-27.703 7.763-34.86-.226 2.368-.607 4.588-3.885 3.885 0-2.142-3.15-4.388-3.885 0 11.403 4.652-10.783 20.237.007 30.975zm42.604 65.815c2.775-4.136 15.1-17.85 3.86-23.244-3.557 7.312-20.65 17.927-3.86 23.244zm-7.738 34.834c-6.15 10.21-2.872 13.513 3.885 3.885 4.336-7.737 20.166-39.377 11.596-34.834-5.548 9.925-6.432 24.496-15.48 30.95zm271.006 139.4c8.42-2.774 21.58 13.288 34.86 3.886-8.9-4.84-17.824-11.996-23.218 0-3.427-12.455 10.035-8.04 11.622-15.5-10.26-.89-29.995 8.31-23.264 11.615zm-15.48 3.88c-10.842-1.51-54.123-16.837-46.457 0 9.15-9.474 32.923 8.29 46.455 0zm-154.85 27.102c8.292-13.565 6.93-32.014-3.885-34.86 7.138 13.584-3.626 21.625 3.886 34.86zM510.652 892.14c6.072 2.696-3.2 17.642 3.86 19.384 3.73-7.918 7.917-15.352 11.647-23.263-5.803.678-14.328-1.387-15.508 3.88zm232.312 375.59c0-1.613 21.076-4.44 11.596-11.622-2.8 4.085-11.622.426-19.334 7.737 13.713 16.836-20.166 24.832-3.878 42.578 14.52-17.85 40.61-19.966 65.815-19.36-12.48-8.77-41.59-10.66-38.72-23.217-1.037 3.504-14.395 12.983-15.48 3.884zm-236.197 42.578c7.157-9.828 11.72-26.47 23.218-11.596-1.31-23.012-10.357-2.62-27.097-3.885.277-5.42-.832-14.823-3.86-7.763 6.255 12.003 3.35 15.05 7.74 23.244zm220.69 69.7c-12.758-9.757-5.543 7.815-3.885 15.5-3.885 0-4.588-3.15-7.71-3.885 8.065 20.798-10.894 62.163-3.88 81.297 9.732-16.662 20.115-33.956 30.983-58.078-1.084-60.8-6.376 26.393-23.218 30.98 4.46-39.273 15.578-30.98 15.475-65.815-6.705 2.343.303 18.38-7.763 19.334 3.477-28.03-1.414-39.02 0-58.077-.91 7.286-6.35-2.168-7.712 3.885 1.03 5.415-.254 25.936 7.71 34.86zm-259.41 58.053c-18.074 45.928 12.152 9.552 3.86-11.595-.832 3-.077 7.64-3.86 7.737.027-2.142-3.122-4.388-3.884 0 2.375.226 4.614.58 3.885 3.86zm-42.577 151.043c15.88-.884 25.335-8.215 34.84-15.5-12.15-2.646-15.804.426-19.36-3.885 5.422-2.697 18.025-17.617 11.623-19.334-11.925 10.035-15.403 28.484-27.103 38.72zm429.766 7.71c5.117.053 3.556 6.81 7.737 7.764 3.15-8.396 33.48-9.906 23.244-11.648-13.435 5.853-21.476-3.324-30.98 3.884zM409.97 1600.7c-13.86-10.384-27.574 14.318-42.604 3.884 5.22 18.146 38.396-7.363 42.604-3.885zm-65.816 27.096v7.737c3.878 0 4.588 3.15 7.737 3.885 8.042-14.14 1.537-18.882 11.623-30.98-10.59-2.827-7.815 7.685-15.48 7.762-.86 7.31 4.36 8.544 3.858 15.455-3.857.05-4.587-3.104-7.736-3.86z"/></svg>