<?xml version="1.0" encoding="utf-8"?>
<!-- Generator: Adobe Illustrator 18.0.0, SVG Export Plug-In . SVG Version: 6.00 Build 0)  -->
<!DOCTYPE svg PUBLIC "-//W3C//DTD SVG 1.1//EN" "http://www.w3.org/Graphics/SVG/1.1/DTD/svg11.dtd">
<svg version="1.1" id="Layer_1" xmlns="http://www.w3.org/2000/svg" xmlns:xlink="http://www.w3.org/1999/xlink" x="0px" y="0px"
	 viewBox="344.154 40.326 642.732 1645.949" enable-background="new 344.154 40.326 642.732 1645.949" xml:space="preserve">
<path opacity="0.1" d="M766.176,377.173c-5.795,7.131-16.159,9.654-19.334,19.359C729.755,392.802,756.548,366.009,766.176,377.173z
	 M700.361,721.789c17.998-2.472,19.159-15.752,30.982-15.5c-10.383-4.511,10.08-10.106,11.622-15.475
	C720.753,693.099,714.577,711.477,700.361,721.789z M499.029,1263.852c-14.771-4.162-26.064,14.875-15.475,23.219
	c-0.607-16.21,1.968-9.325,7.737-3.859C490.711,1273.558,497.365,1271.234,499.029,1263.852z M591.967,55.826
	c6.653-6.453,43.23-2.975,30.981-15.5C619.019,49.476,583.424,47.03,591.967,55.826z M615.186,67.422
	c10.938,3.201,10.035-5.446,19.359-3.859c-6.201,15.223,16.739,1.336,15.5,11.622c-13.384,3.078-16.359-4.311-23.264-7.763
	c-6.401,27.045-16.333,33.601-30.956,46.482c23.012-3.982,24.096-26.29,34.834-34.86c16.333,4.717-11.596,15.455,0,15.5
	c8.544-6.376,17.598-23.522,27.097-7.763c-5.317,0.174-8.473-1.813-11.596-3.885c5.95,21.476,20.844,20.85,23.218,38.745
	c-16.281,4.666-16.991-6.253-27.097-7.737c-3.401,12.429,12.777,5.292,11.622,15.481c-18.934,13.487-42.094,22.334-38.719,30.981
	c-28.865,1.362-30.801,20.844-50.341,15.475c8.396-17.469,43.888-28.31,46.456-38.719c-9.68,7.363-15.197-3.201-27.071,3.885
	c-0.052-3.904,3.104-4.614,3.859-7.763c-8.821,3.478-22.586-0.729-15.5,7.763c3.627-2.065,21.476,2.749,27.097,3.885
	c-18.327,3.607-25.838,18.024-42.578,23.218c-1.865-8.796,21.373-11.596,11.596-15.481c-5.498,0.91-6.505,6.376-11.596,7.737
	c-2.013-5.724-5.724-9.757-7.737-15.475c17.114,6.531,4.614-7.182,3.885-15.5c17.946,1.717,21.979-10.486,23.218-15.481
	c13.661-12.3-15.5,9.228-23.218,11.596c-5.569-16.914,19.03-24.322,15.455-34.834c-5.75,12.777-4.537-12.958-15.455-7.763
	c-3.401,12.455,10.009,8.041,11.596,15.526c-9.957-0.658-18.604,19.688-23.218,11.596c10.357-5.369,14.468-14.165,7.737-27.123
	c5.795-5.795,16.281-6.905,19.334-15.475c-51.877,8.396-25.709,89.686-15.455,123.919c-13.887-4.111-24.399,4.414-38.745,15.481
	c15.049,14.874,37.809,14.365,50.341,23.218c5.317-8.821-9.957-14.545,0-15.475c4.337,0.832,6.053,4.311,7.737,7.737
	c-15.63,18.83,1.233,53.29,11.648,69.726c-0.91-24.625-11.416-36.15-11.648-46.482c6.879,3.452,4.943,15.733,19.385,11.622
	c9.854-6.885-2.594-36.125,7.711-42.604c20.618,6.279,8.899,19.508,11.622,42.604c-5.092,4.962-14.268,4.962-19.334,0
	c-2.897,11.925,10.615,7.434,7.711,19.334c-16.307,1.942-10.841,39.396-27.097,19.385c2.368,17.591,29.091,32.898,27.097,11.622
	c7.918,16.888,19.914,21.779,19.385,38.719c-0.955-6.853-45.727,61.834-46.482,54.2c-0.381-4.007,5.421-3.078,3.885,3.878
	c-12.325-5.543-30.478-1.084-23.218,7.737c1.136-9.028,10.461-9.028,11.596,0c-23.773,18.353-29.846,31.762-38.693,50.341
	c-0.955-4.207-6.402-9.299-7.763-3.885c4.362,0.807,6.027,4.285,7.763,7.737c-5.543,0.936-6.556,6.376-11.648,7.737
	c0-9.021,0-18.075,0-27.097c12.048-6.124,34.789-21.857,30.981-30.981c-1.136,13.513-10.486-0.329-11.622,7.737
	c-13.21,8.144-35.441,40.584-23.218,69.7c1.665-13.816,9.731-21.25,19.334-27.097c-10.59,13.384-8.266,18.275-15.475,30.982
	c6.653,1.536,9.931-5.75,11.648,0c-6.505,12.855-13.565,32.569-23.264,30.982c16.765,52.561-23.696,116.331-11.596,139.375
	c-11.422-5.543,9.002-2.949,3.885,7.763c-2.168,8.015-6.053,8.195-11.622,3.885c0,2.549,0,5.143,0,7.711
	c0.858,3.027,0.103,7.666,3.885,7.763c7.086-14.165,18.682-33.576,30.956-31.007c-4.162-7.182,21.65-42.12,34.86-42.578
	c-10.815-12.151,35.066-33.524,15.455-42.578c-6.731,7.892,2.923,7.589-3.859,15.475c-13.939-11.145-20.895,28.987-34.86,7.737
	c-5.924,11.648-8.092,26.819,3.878,19.359c-7.866-8.596,22.334-21.353,27.097-23.218c-13.99,13.081-22.786,31.407-38.693,42.578
	c-0.355-6.324,6.427-16.836,0-7.737c-2.22,10.312-5.446,30.02-27.097,30.956c1.439-10.357,26.445-17.139,15.475-27.071
	c-3.375,5.646-5.795,12.248-15.475,11.596c0-3.859,0-7.737,0-11.596c13.184,11.093-2.446-14.745,15.475-15.5
	c1.536,6.679-5.75,9.931,0,11.622c0.832-3.027,3.252-4.485,7.737-3.859c1.162-7.615-5.221-7.686-7.737-11.648
	c14.797-10.435,30.575-30.072,19.334-42.578c-3.052,18.959-15.326,49.057-30.956,42.578c16.184-30.801,14.016-78.418,27.122-92.912
	c1.865,14.19,10.964,8.744,3.833,27.097c7.208-3.704,12.958,11.622,15.5,0c-11.267-5.421,6.879-13.332,3.885-23.218
	c-13.765-6.027-2.342,13.158-11.622,11.622c-0.581-9.628,2.013-16.081,7.737-19.385c0.832,4.362,4.285,6.053,7.763,7.763
	c-0.884-7.337,4.336-8.544,3.859-15.5c-6.653-1.51-9.906,5.776-11.622,0c5.117-0.026,3.53-6.782,7.763-7.737
	c1.136,3.452,10.461,16.965,11.596,7.737c-11.848-3.807,4.459-10.338,3.859-15.475c-10.383-6.905-7.46,17.043-11.596,3.885
	c3.356-8.492,20.669-22.941,11.596-31.007c-1.839,4.588-4.111,8.796-7.737,11.648c1.839-13.687,9.809-21.224,15.5-30.982
	c-2.568,0-5.169,0-7.763,0c-0.2-2.368-0.555-4.588-3.859-3.885c2.826,16.965-7.686-3.098-7.737,7.737
	c10.383,13.739-11.596,37.99-7.737,46.482c-10.183-14.371,5.014-26.316,0-34.86c-6.905,4.943-10.964,32.621-19.385,23.244
	c2.646-17.365,30.652-31.33,7.763-30.982c10.867-6.931,32.543-21.353,34.834-19.359c-19.205-3.982,3.478-11.996,3.885-11.622
	c-8.092-5.776-14.571,3.885-19.359,3.885c3.001,0.858,4.485,3.252,3.859,7.737c-11.971,0.026-10.183,5.898-23.218,11.622
	c4.84-14.649,28.51-42.629,46.482-54.219c40.48-26.116,43.61,11.796,61.937,19.359c-1.162-4.537-20.521-9.706-7.737-15.475
	c5.343,6.253,10.938,12.248,15.475,19.359c-15.984,2.246-24.148,8.17-38.719,27.097c3.478-11.345,3.478-11.9,0-23.244
	c4.943,0.226,5.369,4.969,11.596,3.885c-5.24-17.417-21.702-8.673-19.334-27.097c0.91,26.064-26.819,25.838-23.218,27.097
	c0.91,7.26,6.35-2.194,7.737,3.885c-4.537,10.183-4.814,13.487-11.622,3.885c4.033,9.073-4.511,25.412-3.885,27.097
	c12.803-5.04,19.256-54.148,34.834-30.982c-8.215-14.72-18.753,19.889-11.622,7.737c5.143-0.052,3.556-6.782,7.763-7.737
	c-6.982,25.709-21.779,28.032-3.885,42.578c-6.808-2.672-11.971-4.259-15.475,0c3.001,0.858,4.511,3.252,3.885,7.763
	c-8.215-14.72-18.779,19.889-11.622,7.737c5.092-0.052,3.53-6.782,7.737-7.737c3.304,9.021-13.539,16.688-3.859,19.359
	c1.11-3.627,10.435-3.627,11.596,0c0.2,2.342,0.581,4.588,3.859,3.859c0.884-7.311-4.336-8.544-3.859-15.475
	c4.814,4.866,13.965-19.534,15.475-19.385c-12.203,11.951,12.255-23.522,0-11.596c-1.187,10.635-13.435,8.17-11.622-3.885
	c11.293,5.569,4.388,2.975,3.885-7.737c10.59,5.066,15.455,3.401,23.218-7.737c-14.971,26.193-5.421,60.092-19.334,81.297
	c-1.51-6.627,5.724-9.906,0-11.596c-0.226,2.342-0.581,4.588-3.885,3.859c0.026-2.142-3.123-4.388-3.885,0
	c4.311,3.782,13.306,22.36,3.885,27.123c-0.658-5.795,1.387-14.294-3.885-15.5c-2.168,9.654-5.924,24.025,3.885,23.244
	c-5.143,3.885-14.391,3.652-15.475,11.622c17.746,9.428-15.126,20.295-3.859,23.244c0.807-4.711,4.285-2.42,7.737,0
	c8.447-12.229,10.512-30.801,23.218-38.745c1.665,31.762-30.781,63.854-27.097,89.06c-2.272-4.762-8.144,4.111-11.622,3.885
	c8.976,3.027-12.829,27.929-3.885,30.956c5.621-6.001,5.169-18.075,11.648-23.218c-14.945,55.632-31.104,107.361-77.463,139.375
	c-3.627-11.674-17.469-7.208-3.885,0c-17.895-4.414-18.701,7.789-19.334,19.359c4.788-12.222,11.241-0.703,19.334-11.596
	c-8.144,15.984,5.117-1.484,11.622-3.885c2.62,21.979-16.333,22.386-23.218,34.86c-5.795-7.086,1.258-24.78-3.859-15.5
	c-9.731,48.599-7.989,135.238,11.596,193.594c-5.343,0.148-8.492-1.813-11.596-3.885c4.136,24.903-6.531,55.303,0,69.726
	c0-3.885,0-7.763,0-11.648c7.137,9.654,11.17-37.661,3.859-46.43c6.756-0.329,12.048,0.858,15.475,3.833
	c-4.285-11.441-1.336-27.323-3.885-30.956c0.026,2.168-3.098,4.388-3.859,0c1.058-9.125,17.165-2.368,15.475,3.859
	c-0.936,5.543-6.35,6.556-7.737,11.622c9.706-4.943,12.125,1.968,15.5-3.859c-5.75-0.729-3.556-9.351-3.885-15.475
	c-6.808-3.556-19.308-1.362-23.218-7.737c16.791,3.885,17.243-8.57,23.218-15.526c-14.468-4.085-6.15,14.545-19.359,11.648
	c10.938-6.124-8.744-20.747,3.859-27.097c-1.233,4.711,0.632,23.922,3.885,11.596c-5.621-28.084,18.63-16.914,11.622-34.86
	c12.506,4.788,2.975-12.506,15.475-7.712c-10.286,5.317,7.46,15.1,7.763,7.712c-3.026-0.858-4.511-3.201-3.885-7.712
	c7.615,1.136,7.686-5.24,11.622-7.763c-8.596,16.739,16.307,9.983,23.218,15.475c-1.31-1.033-6.053,5.517,0,7.763
	c-2.723-1.007,4.485-12.403,7.763-11.596c2.568,0.607,2.013,10.357,3.885,11.596c12.377,8.318,51.244,8.015,58.052,30.956
	c-12.855-11.596-32.569-6.479-30.982-15.455c-30.575,9.706-51.677-2.117-73.553,7.712c-0.858-3.001-0.103-7.641-3.885-7.712
	c-3.052,8.744,4.311,25.89,7.763,15.455c-9.228-7.737,7.008-1.007,7.737,3.885c13.261-12.351,62.415-15.3,69.7,7.763
	c-6.905-2.343-16.107,11.345-19.385,0c7.234-0.555,12.958-2.568,15.5-7.763c-19.282-3.782-23.064,7.918-34.834,11.648
	c4.162-18.198-29.975,2.091-38.719-7.763c3.833,13.158-27.374,10.964-15.475,19.359c7.563-5.517,32.95-13.261,42.552-3.859
	c-9.002,1.284-16.662,3.93-19.334,11.596c7.434,17.494,1.284,19.334,3.885,42.604c-3.73-3.201-7.918-25.057-11.622-15.5
	c10.131,16.029-6.253,3.33-7.763,19.385c15.178-0.2,11.996,8.144,15.5,11.596c1.865-4.562,4.136-8.77,7.737-11.596
	c0.226,2.343,0.581,4.562,3.859,3.859c-22.257,17.114-44.494,16.714-58.078,46.456c-0.832-3.001-0.077-7.641-3.859-7.737
	c-0.858,7.337,4.362,8.57,3.859,15.475c-10.131-7.841-7.615,10.79-15.455,7.763c6.053,5.143-26.167,72.146-11.648,38.693
	c24.399-24.625,35.544-62.537,69.7-77.412c-1.058,5.821-16.636,16.281-7.737,19.334c7.06-15.804,50.567-54.774,69.7-34.834
	c-4.362,0.4-6.027-5.621-7.763,0c9.273,2.272-9.351,8.144-11.596,11.622c-2.065-5.569,15.1-9.454,3.885-11.622
	c-12.351,16.133-46.785,30.575-42.604,50.341c9.325-11.344,24.677-16.636,38.719-23.218c-1.51,5.517-4.666,6.531,0,11.596
	c-16.41,8.144-27.955,21.102-42.604,30.981c2.594,0,5.169,0,7.763,0c0.226,2.368,0.555,4.588,3.859,3.885
	c3.33-9.783,22.283-23.922,30.982-15.475c-12.151,12.229-40.506,20.547-42.604,30.956c-10.106,3.175-3.304-14.797-7.737-7.737
	c-11.596,2.549,3.704,8.241,0,15.474c-24.399,1.033-10.564,16.914-27.097,23.244c7.686-8.95-0.981-4.311-3.885-11.622
	c0.103-10.486,31.285-9.68,19.385-19.359c-5.795,15.578-16.184-3.452-19.385,3.859c8.925,6.453-6.653,10.486-7.737,11.622
	c4.537,0.658,4.207,6.124,3.859,11.648c-14.19,6.957-11.145,11.093-27.097,11.596c1.233,8.976-0.632,14.874-3.878,19.359
	c12.577,4.485,23.844-11.848,30.981,0c-2.897,7.311-11.519,2.672-3.859,11.596c-2.697-3.026-21.605-8.596-23.244,0
	c14.371,6.305,21.173,20.14,42.604,19.385c2.091,10.486,3.097,9.654,7.763,23.218c-7.66-4.085-24.251-4.988-34.86-15.475
	c0.632,20.495,19.785,30.227,3.885,46.456c13.739,6.027,2.342-13.132,11.596-11.596c17.772,4.007,3.001,15.352,7.737,19.334
	c8.066-10.157,16.333-2.065,23.244-7.737c-2.897,17.92,14.797,5.395,15.5,11.622c-6.905,7.866-15.752,2.568-3.885,11.596
	c-11.971-5.421-17.417,23.496-11.622,11.648c5.143-0.052,3.556-6.782,7.737-7.763c-1.439,19.663-16.965,21.631-15.5,34.834
	c-0.91-4.182-6.35-9.28-7.711-3.859c22.205,6.227-14.92,7.615,0,15.5c4.136-10.061,22.941-5.421,27.097-15.5
	c-5.95-0.929-0.581-6.376,3.885-7.737c1.058,29.342-34.208,24.903-38.745,46.456c5.898-5.95,23.618-19.992,30.981-11.596
	c-14.945-0.632-28.007,20.773-19.334,30.982c7.408-14.971,17.243-34.634,30.956-23.264c-9.099,5.646-8.647,9.654-15.475,0
	c0.858,7.337-4.362,8.544-3.885,15.5c6.679,1.51,9.931-5.75,11.622,0c-13.261,3.581-29.239,21.328-34.86,0
	c-1.665,18.379-4.233,10.712,3.885,15.475c-9.376,5.24-2.42,7.763-7.737,11.622c-2.523-6.176-4.259-6.705-7.763-3.859
	c-13.765,11.19-57.723,73.153-30.981,108.419c-5.724-2.013-9.731-5.75-15.455-7.763c7.737,16.307,18.075,38.945,0,50.341
	c14.345,9.021,20.14,5.04,30.981,15.474c3.375-13.358,20.495-13.035,23.218-27.071c-13.435,11.848-21.353,6.35-34.86,19.334
	c2.846-10.564-7.686-7.789-7.737-15.475c3.33,8.518,24.928,8.518,15.5,0c-0.226,2.368-0.607,4.562-3.878,3.885
	c4.433-26.393,0.052-11.57-11.622-27.123c7.963-1.032,3.652-14.391,11.622-15.475c5.395,4.866,1.665,21.908,11.622,11.596
	c-12.906,11.267,9.551,19.23,0,27.123c25.664-10.061-10.912-34.711,3.885-46.456c0,2.568,0,5.143,0,7.737
	c7.589,1.161,7.666-5.221,11.596-7.737c0.884,7.311-4.362,8.518-3.885,15.475c20.895-18.198,5.395-2.523,23.264,15.474
	c-2.846-10.538,7.686-7.763,7.711-15.474c-5.569-8.57-9.454,4.866-11.596-3.859c12.958-16.41,6.453-20.34,3.885-46.482
	c-4.788,8.466-6.253,27-7.763,38.719c-9.957-11.241,5.091-27.348-3.885-34.834c-8.421,9.88-7.06-22.638-15.475-15.475
	c-0.607-8.466,15.629-29.742-3.859-27.122c12.855,2.672,6.227-8.015,3.859-11.596c5.343,0.148,8.492-1.839,11.622-3.885
	c-5.621,9.809,1.891,25.458-3.885,34.86c0.026-2.168-3.123-4.44-3.885,0c13.08,5.395,16.262-24.877,15.5-38.745
	c3.504-6.834,8.673-11.996,15.475-15.5c-8.37,3.478,0.478,22.083,3.885,11.648c-7.06-4.588,8.873-3.356,0-15.474
	c14.745-2.394,30.375-10.383,15.5-11.648c5.724-4.588,6.027-14.623,11.596-19.334c0.129,80.412-23.47,177.842-54.193,201.305
	c5.569,8.57,9.454-4.84,11.622,3.885c-12.577-5.472-22.889,19.637-30.981,15.5c1.136-7.918,10.461-7.589,11.596-15.5
	c-13.584,16.488-21.147,6.782-30.981,15.5c18.327,9.983-19.611,15.752-7.737,19.359c2.697-3.026,21.605-8.621,23.264,0
	c-15.023,2.568-13.79,0-23.264,3.859c-2.646,12.177,0.478,15.829-3.859,19.359c-3.885-5.143-3.678-14.391-11.622-15.475
	c-3.201,12.429-3.304,8.041,3.885,15.475c-5.472,5.543-18.804-0.832-27.097-3.885c-1.162,7.641,5.24,7.686,7.711,11.622
	c-5.924,6.098-22.534-6.453-27.097,7.763c-4.711-5.621-14.771-5.898-19.334-11.648c-10.938,21.502-27.122,2.446-30.981,30.981
	c55.484,3.756,106.78-13.158,158.734-23.218c37.28-7.208,84.872-3.278,104.56-30.981c-5.795-0.658-14.32,1.387-15.5-3.859
	c-2.368-12.525,23.67-0.2,7.737,0c18.404-0.226,32.014-4.969,11.648-11.648c4.182,0.955,9.28,6.402,3.833,7.763
	c-5.95-14.268-13.965-4.111-19.334-15.475c-12.984-119.46,9.828-240.831-7.763-356.206c15.223-11.822,4.362-52.683,30.982-61.963
	c-22.889-44.772,32.369-81.296,23.244-112.297c21.102-8.57,22.134-37.209,38.719-50.315
	c-8.241,73.404,29.091,115.298,19.359,178.094c25.032-23.012-6.305-89.311,23.238-120.015
	c-14.19-36.196,27.148-84.272,23.218-96.797c0.658,9.68-5.924,12.125-11.596,15.475c3.401-6.853,12.248-11.293,3.859-19.359
	c10.564,2.826,7.789-7.686,15.475-7.763c5.092,4.285,1.639,36.705,7.763,27.122c2.065-17.823,0.155-19.585,11.622-30.981
	c-7.892,9.809-0.355,39.222-3.885,42.604c-5.698-10.661-19.463,3.097-7.737,7.737c4.44-21.676,1.813,18.024,15.481,11.596
	c5.75-11.345-4.388-14.371,7.737-19.334c9.202,10.009-12.203,37.809-3.885,46.456c5.395-6.253,3.278-19.966,11.622-23.244
	c4.233,37.183-14.52,13.635-7.737,54.219c-4.362,0.381-6.027-5.621-7.737,0c2.291,0.677,21.424,24.58,11.622,34.86
	c-8.344-3.278,1.439-24.703-7.763-27.123c-6.376,16.462-4.943,23.722,3.885,30.956c0,2.594,0,5.169,0,7.763
	c-23.973-4.891,7.131,14.997-3.885,30.956c-1.787-17.598-9.757,14.668-15.455,7.763c9.021,9.931,1.465,26.619,3.859,38.719
	c0.226-2.368,0.581-4.588,3.885-3.885c-0.026,2.168,3.123,4.388,3.859,0c-10.383-13.158,18.398-20.166,19.359-34.834
	c0.858,3.001,0.103,7.615,3.878,7.763c0.858-3.026,0.103-7.666,3.885-7.763c0.381,11.996-1.762,21.476-7.763,27.097
	c-2.297-7.892,7.26-21.328,0-11.596c-9.531,41.01-61.279,51.07-46.482,89.06c8.215,20.947,46.559,13.913,46.482,50.315
	c-12.526-8.396-7.234,0.452-11.622,3.885c-6.401-0.077-2.168-10.764-7.737-11.648c-3.756,17.617-22.638,42.094-7.737,46.482
	c-2.039-25.432,24.025-10.286,27.097-23.218c2.368,1.839,2.42,48.728-7.737,27.097c0.581,14.797-0.2,28.181-7.763,34.834
	c-0.658-5.795,1.387-14.294-3.859-15.5c-4.136,26.064-35.241,60.092-38.719,92.938c0.929-4.207,6.376-9.299,7.737-3.859
	c-6.227,8.744-4.111,16.03-11.596,15.475c11.719,21.424-9.505,18.475,7.711,34.834c-10.938-0.658-26.542,3.356-27.097-7.737
	c3.027-0.858,7.666-0.103,7.763-3.885c-7.641,1.161-7.711-5.24-11.648-7.712c-0.607,4.537,0.703,10.964-3.833,11.596
	c0.503-5.092,0.555-28.032-3.885-15.475c1.387,14.371-7.06,30.523-15.5,23.218c-3.149,30.427-4.285,76.25,7.737,81.297
	c9.125,21.754-11.396,60.324,11.648,73.579c-3.885-13.235,1.613-11.622-7.763-19.333c7.763-19.159,19.108-37.28,30.982-30.981
	c-5.446-1.007-4.414-8.518-7.737-11.622c27.903,5.24,45.198-13.584,73.559,11.622c1.484,21.728-10.59,7.486-15.5,19.333
	c-5.569,2.091-9.454-15.074-11.596-3.885c13.584,6.479,4.485,10.512,0,11.648c4.866,1.562,7.918,4.969,7.737,11.622
	c-16.236-9.299-6.905,5.169-15.481,11.596c-14.216-9.654-34.686,4.917-30.982-11.596c-0.729,5.724-9.351,3.53-15.5,3.859
	c4.336-5.595,4.182-9.428-3.885-11.596c-1.813,12.151,5.517,15.126,7.763,23.218c25.864,0.529,49.154-0.478,61.937,3.859
	c-20.166,8.925-62.918-10.738-77.412,3.885c57.02,23.948,100.449-9.254,100.682-50.341c6.982,3.304,10.635,9.983,19.334,11.622
	c-3.201-12.403-3.304-8.041,3.885-15.5c-3.027-0.858-7.666-0.103-7.737-3.859c4.562-0.607,10.99,0.677,11.622-3.859
	c-6.679,0.174-9.931-3.001-11.622-7.763c9.931,10.364,5.543-10.357,15.475,0c-0.529-20.695-15.707-6.556-19.359-19.334
	c2.142,0,4.414-3.149,0-3.885c-7.286,7.686-3.627,16.533-7.763,19.359c-0.91-7.26-6.35,2.194-7.711-3.885
	c44.817-109,36.15-257.467,42.578-379.45c3.859-73.101-12.455-173.073,30.982-240.05c18.249,9.021,37.157-21.579,34.834-34.86
	c0.884,3.026,0.123,7.666,3.885,7.737c12.403-83.994-55.807-152.81-50.315-255.531c-7.131-10.938-13.765-22.412-19.385-34.86
	c17.875,5.24,23.722-0.278,46.456-3.859c12.177,9.299,16.333,2.523,30.982,7.737c23.973-13.435,45.979-28.891,54.193-58.078
	c-24.528-87.724-55.329-169.22-85.175-251.672c-46.456-37.409-136.652-31.104-174.235-77.438
	c-5.317-33.776-3.026-65.841,19.385-81.297c7.363-51.27-25.987-61.782-46.482-85.175c-3.607-26.09-16.514-42.855-27.097-61.963
	c-7.963-7.111-57.878-9.325-23.218-3.859c0.4,7.311,12.777,2.672,11.596,11.596c-14.874,0-32.24-3.278-38.693-3.859
	C634.9,59.711,611.804,59.485,615.186,67.422z M801.042,338.48c-0.781,0.832,52.354-3.782,30.981,3.859
	C820.273,346.52,815.336,347.882,801.042,338.48z M793.279,338.48c20.495-1.484-1.762,15.655,19.385,11.596
	c-7.866,23.973-50.186,24.832-77.438,58.078c10.738,5.421,26.516-17.217,34.84-27.097c16.436,1.536,107.406-46.734,46.482-15.481
	c26.819,3.427,27.097-15.681,61.937-7.763c-6.098,11.119,23.167,14.39,0,15.475c17.895,12.532,16.559,22.889,27.097,38.745
	c-3.885,0-7.737,0-11.622,0c0.129-3.782,4.762-3.027,7.737-3.885c-2.827-3.607-7.06-5.872-11.622-7.737
	c-4.969,9.228-17.32,11.041-27.097,15.475c0.955,9.983,6.679-5.317,15.5,0c-5.446,6.201-13.358,9.906-23.244,11.622
	c0.755-3.123,3.904-3.859,3.859-7.737c-9.983,0.329-4.059,16.585-19.334,11.622c9.351-6.853,2.749-17.875,23.218-19.359
	c-13.635-5.524,14.32-31.711,27.097-23.218c-8.796-16.81-35.015-10.235-54.193-7.763c0.103-3.756,4.737-3.001,7.763-3.885
	c-0.129-3.756-4.762-2.975-7.763-3.885c9.602-11.848,23.522,4.666,38.745,0c-9.325-5.976-16.559-8.118,3.859-7.711
	c-65.415-12.455-90.925,45.624-112.297,38.719c8.118-7.131,23.644-23.722,46.482-27.122c-48.018-2.394-56.942,39.577-81.316,61.963
	c18.753-3.278,42.5-34.886,69.7-42.604c-7.763,11.596-22.412,16.333-34.86,23.244c1.742,3.427,3.401,6.931,7.763,7.737
	c0.658-5.821,8.621-17.069,23.218-19.359c1.439,12.1-0.4,12.706,0,23.244c-13.132-1.387-4.891-11.596,0-19.359
	c-7.389,1.665-9.731,8.344-19.334,7.737c14.416,8.873-40.229,29.742-58.078,46.456c6.679,6.627-5.698,15.223,11.596,15.5
	c-0.4,13.713-12.803-8.215-11.596,3.885c-5.846-6.453,1.562-10.409-3.885-23.244c20.469-7.918,29.039-27.729,54.2-30.982
	c-0.729-3.149-3.885-3.859-3.885-7.763c-15.378,2.697-19.082,17.043-30.956,23.244c-13.765-10.59,4.64-28.103,19.334-38.719
	c-1.691-6.402-16.636,6.201-19.334,11.622c-12.3-25.283,22.457-46.559,46.456-73.553c20.592,4.969-11.319,19.811,7.737,23.218
	C797.635,362.879,792.04,348.592,793.279,338.48z M750.702,350.076c-3.33,5.169,7.789-15.552,11.596-23.244
	c19.308,11.648,15.578,29.491-7.737,38.745c-9.325,8.466,6.047-7.363,7.737-11.622c-15.578,6.376-9.931,16.41-19.334,23.218
	c-8.596-7.26,23.167-31.84,23.218-27.097C766.054,337.395,774.623,330.82,750.702,350.076z M700.361,481.733
	c3.607-22.308,34.208-51.522,7.737-3.885C703.613,477.222,701.219,478.713,700.361,481.733z M770.061,462.373
	c-8.621-9.783,9.731-16.004,19.359-19.359c-2.697,7.641-10.312,10.312-19.359,11.596c1.058,9.151,14.416-0.355,15.5-3.859
	c8.092,2.42-14.345,16.159,7.711,15.475C779.037,486.398,791.789,457.992,770.061,462.373c19.759,18.301-28.962,14.139-34.84,30.956
	C728.871,480.423,758.213,469.988,770.061,462.373z M746.843,489.476c1.162,8.925-11.19,4.285-11.622,11.622
	c2.368,5.724,19.837-9.428,3.859,3.859c1.136,7.892,10.461,7.589,11.622,15.475c-5.498,6.531-14.945-15.778-23.244-19.334
	C733.285,496.555,736.937,489.902,746.843,489.476z M758.439,504.951c8.899,9.931,18.172-12.577,27.123-15.475
	c-1.387-5.421-6.834-0.329-7.737,3.859c-8.215-1.187,4.059-13.435,11.596-11.596c1.942,9.654,7.337,15.907,11.622,23.218
	c-0.478,8.544-16.41,1.665-23.218,3.885c1.058-7.989,14.416-3.652,15.455-11.622c-9.957-10.964-16.688,14.042-27.097,15.475
	c7.537,9.228,49.657,10.486,50.367,38.719c-2.472-2.142-11.719-15.733-15.5-3.859c-8.447,9.228,1.917-7.918,0-15.475
	c-16.81-1.51-5.924,18.63-11.622,19.334c-10.286-1.465-0.503-28.684-23.244-27.097c2.62,8.699,14.216,16.836,3.885,27.097
	c-11.596-2.523,3.73-8.266,0-15.475c-3.304-0.703-3.652,1.51-3.885,3.885c-3.652-3.278-2.549-9.551-3.885-23.244
	c-13.765,14.371,3.73-12.984-19.334-7.737C746.468,494.942,777.65,491.109,758.439,504.951z M735.221,481.733
	c-4.588-16.21,22.715-39.603,50.341-46.456C768.022,452.293,749.869,456.249,735.221,481.733z M874.621,384.936
	c-21.399,8.899-53.619,25.587-69.726,27.097C811.303,387.156,848.479,377.805,874.621,384.936z M851.357,400.417
	c-3.278,5.75-9.731,8.318-19.334,7.737c0.607,4.537,7.06,3.278,11.622,3.885c-3.607,11.9-24.277,6.731-30.982,15.475
	c8.421,1.258,14.32,2.646,7.711,15.5c16.004-0.4-5.976,3.704-11.596-11.622C825.893,416.046,822.441,403.947,851.357,400.417z
	 M886.217,408.154c6.879,2.846,0.555,7.034,0,11.622c31.052-16.359,35.944,19.534,42.604,30.981
	c-2.775,7.537-22.915-11.848-11.648-19.359c-9.176,3.201-17.824-5.472-3.833-3.885c-15.449-13.261-29.188-0.4-46.482,3.885
	c5.446,11.396,29.465-11.319,30.982-3.885c-2.013,9.531-13.816,8.951-30.982,11.622c5.795,9.002,9.454,5.898,19.359,3.885
	c5.976,2.039,0.252,4.033-3.859,3.859c-4.414,0.755-2.168,3.885,0,3.885c-1.233,5.24-9.706,3.201-15.5,3.859
	c18.25-10.08-14.391-13.08-27.097-15.475C859.192,429.553,883.113,423.932,886.217,408.154z M727.457,1546.499
	c-16.939,2.801,3.123-7.686-7.711-7.763c-9.48,0.452-0.858,12.803,3.833,11.648c-6.072,6.853-13.816,23.722-23.218,15.455
	c3.652-18.275,12.932-30.93,23.218-42.578C732.149,1523.739,725.244,1539.698,727.457,1546.499z M711.983,1592.936
	c0.632-4.459-0.858-6.853-3.885-7.712c10.286-13.08,24.025-34.182,46.456-23.244c-2.497-3.956-8.899-4.007-7.711-11.596
	c6.027,6.35,15.1-1.336,23.218-3.885c-10.964-3.781-19.256-0.607-30.982,7.737c-4.414-0.755-2.142-3.904,0-3.859
	c-1.691-5.776-4.943,1.51-11.622,0c4.666-10.686,8.421-16.21,3.885-27.123c9.628-0.426,11.996-7.26,19.359,0
	c-0.607,4.537-7.06,3.252-11.622,3.859c2.368,3.453,4.666,6.931,0,7.737c23.444,12.829,64.757-4.614,77.463,11.648
	c-27.826-0.252-9.125,6.201-38.719,3.885c-1.665,4.588-5.898,16.559-15.526,23.219c0.755,4.414,3.93,2.142,3.885,0
	c7.892,12.377,11.57,11.674,27.097,15.5C791.034,1600.447,732.755,1564.703,711.983,1592.936z M564.845,1488.421
	c-6.576-1.465-7.286,3.026-7.737,7.712c9.48-2.142,14.165-9.073,19.359-15.474c-8.544,15.604-25.232,34.105-19.359,73.578
	c-19.811-7.615-9.125,1.213-19.359,11.596c-3.278,0.729-3.652-1.51-3.885-3.859c-0.884-0.858,9.299-5.975,7.763-27.122
	c4.737,1.717,7.918,4.988,7.737,11.648c8.396,0.658,1.762-13.739,3.885-19.385c-17.346,18.656-12.351-38.086,7.711-42.578
	c-1.865-8.821-7.666-19.785,0-27.097C563.509,1461.073,560.586,1476.98,564.845,1488.421z M533.863,1267.73
	c-8.118,3.375,5.595-19.74-3.878-7.737c-5.498-4.64-1.536-13.287,3.878-23.263C536.587,1243.176,538.884,1257.773,533.863,1267.73z
	 M549.37,1279.327c-3.627-2.168-5.872-10.738-7.737-3.885c-10.893-7.389,5.317-20.166,3.859-30.981
	C552.042,1249.584,540.394,1269.015,549.37,1279.327z M553.249,1263.852c-10.08-5.421,2.801-20.037,3.859-27.122
	c1.084,10.486,6.027,20.018,7.737,38.719C560.308,1273.506,556.804,1242.621,553.249,1263.852z M599.685,1112.829
	c0.729,3.304-1.51,3.652-3.859,3.885c-0.452,6.15-18.146,34.079-34.86,23.219c1.691,9.002,17.114,10.357,7.737,19.385
	c-8.015-2.168-8.17-6.053-3.859-11.648c-16.714,9.073-6.505,6.453-23.218,15.526c-7.286,9.68,2.291-3.73,0-11.648
	c-7.131,9.931-9.654,2.343-19.359,11.648C526.3,1155.078,574.828,1125.787,599.685,1112.829z M541.627,892.139
	c1.084-6.905-3.678-7.937-3.885-3.885c-11.971-7.286,21.676-21.754,3.885-34.834c9.731-14.39,8.144,14.694,7.737,23.244
	c8.396,0.632,1.762-13.739,3.885-19.385c-1.258,22.838,31.588,21.353,50.315,34.86c10.486-3.504-3.252-14.242-7.737-15.475
	c2.523-6.582,8.899-2.42,7.737,3.885c3.93-2.523,4.007-8.925,11.622-7.737c-9.88,7.737,1.007,40.584-3.885,42.552
	c-2.291,7.963-3.097-10.035-7.737-19.334c-13.435,4.459-7.131-1.787-11.596,11.622c-5.395-16.61-20.418-6.027-19.385-23.244
	c-15.681,6.731-16.159-0.755-23.218-3.859c-8.041,0.981-1.084,16.991-7.737,19.334c-10.564,2.827-7.789-7.666-15.475-7.737
	c5.498,26.193-21.399,19.914-23.264,38.719c-6.453,2.846,12.429-45.372,3.885-58.052c3.782,0.077,3.027,4.711,3.885,7.737
	c6.582,1.413,7.311-3.026,7.737-7.737C528.017,877.393,523.054,896.527,541.627,892.139z M529.985,849.561
	c8.37,3.278,13.713,9.531,11.648,23.244c-3.756-0.148-3.001-4.763-3.885-7.763c-4.182,0.955-2.62,7.686-7.763,7.763
	c-8.976,8.621,7.182-9.551,3.878-19.385c-5.24,3.807-7.711,10.338-11.596,15.5C519.899,861.338,523.984,848.174,529.985,849.561z
	 M650.046,423.629c4.84,0.981,3.904,7.711,0,7.763c17.617,7.286-2.949,28.71,3.859,58.078c-4.943,5.395-18.959,1.691-19.359,11.622
	c-5.195-0.781-7.208-16.081-7.763,0c-7.563-1.187,6.602-44.062,7.763-61.963c3.227-12.3,5.091,6.879,3.885,11.622
	c8.518-0.478,1.613-16.436,3.859-23.244C646.793,428.146,649.187,426.655,650.046,423.629z M611.301,528.195
	c0.729-4.414,3.885-2.168,3.885,0c28.787-9.551,41.416-23.063,85.175-23.244c-28.51-19.966-56.82,7.563-81.297,11.622
	c13.713-27.574,61.505-21.102,89.034-34.834c7.563,1.639-6.324,11.041,11.648,7.737c10.964,23.315,2.271,37.886,19.334,58.078
	c-20.998,3.607-17.294,18.63-42.604,15.475c-1.233-12.3-3.201-13.106-19.334-7.737c-0.478-15.959,30.272-0.703,34.84-11.622
	c-19.785-10.661-39.448,2.975-65.815,7.737c-1.839-12.151,10.435-10.235,11.596-19.334c16.81,5.066,11.693,3.401,15.5-7.763
	c5.646,2.142,20.011-4.511,19.359,3.885c9.428-4.007,9.428-15.352,0-19.359c-4.388,0.729-2.168,3.885,0,3.859
	c1.187,7.866-11.19-0.781-11.596-3.859c-7.208,0.581-2.42,13.106-7.763,15.475c-23.541-7.666-29.291,12.958-61.963,15.5
	C610.494,533.183,617.909,529.783,611.301,528.195z M669.379,377.173c2.065,3.123,4.033,6.305,3.885,11.648
	c3.627-2.872,5.847-7.06,7.763-11.648c7.208,18.63-1.813,25.057,11.596,42.604c-6.453,0-12.906,0-19.359,0
	c2.549,5.195,8.292,7.208,15.5,7.737c-11.241,7.234,1.742,37.686,7.711,42.578c-3.001,3.452-4.162,8.744-3.859,15.526
	c-6.453,0-12.906,0-19.359,0c4.007-35.641-18.172-56.639,7.763-69.726c-2.723-11.925-2.723-7.408,0-19.359
	c-1.162-8.066-10.512,5.75-11.648-7.711c-3.052,10.183-4.033,16.636-11.622,0c-3.504,1.033-10.26,17.14-3.859,15.475
	c-8.821,7.234-13.287-10.938-7.737-23.238c16.888,11.745,24.096-32.717,42.604-19.359
	C681.834,366.886,678.278,385.62,669.379,377.173z M622.949,342.339c14.371-1.484,10.106,15.681,27.097,11.622
	c-5.421,7.486-18.404,7.408-19.385,19.334c-8.344-8.215,3.911-14.39-3.878-23.218c-17.598,6.905-17.165,31.866-30.956,42.604
	C596.988,375.966,612.288,363.285,622.949,342.339z M630.66,388.82c4.259-11.848-0.755-27.729,27.097-23.244
	c-16.03,4.362-20.295,14.597-19.334,27.097c-9.88-0.478-15.023-5.621-15.475-15.5C631.19,375.359,630.312,382.722,630.66,388.82z
	 M653.905,303.62c-9.228-8.447,7.918,1.942,15.475,0c-1.362,30.852-73.785,29.568-61.937,0
	C619.367,319.069,651.84,313.048,653.905,303.62z M650.046,171.982c11.822,4.485,19.559,37.383-11.622,34.84
	c-12.3-3.252,6.853-5.092,11.622-3.885c1.51-9.28-17.643,2.142-11.622-11.596c11.9-2.723,7.408-2.723,19.334,0
	c-26.09-19.03-19.585-3.93-54.193,3.885C622.22,168.704,618.812,188.322,650.046,171.982z M638.424,214.56
	c10.409-7.208-4.943,11.771-7.763,15.475c13.739-5.24,7.666-6.253,23.244-7.737c-4.691-8.467,9.428-24.903,23.244-27.071
	c-0.981-4.891-7.686-3.93-7.763,0c-12.455-4.388,3.73-11.067,11.648-7.763c-6.602,14.442,2.272,6.124,3.859,19.359
	c-21.553-18.301-7.208,9.428-11.622,19.359c7.208-0.529,12.958-2.549,15.5-7.737c6.982,7.034-15.5,16.785-15.5,19.359
	c-5.317,7.182-2.22,10.035,3.885,11.622c1.11,6.253-3.652,6.653-3.885,11.596c-4.762-1.691-7.937-4.943-7.763-11.596
	c-10.486,3.504,3.278,14.242,7.763,15.481c-8.544,4.943-28.684-7.641-34.834-3.885c-9.125-0.052,1.413-10.564,7.737-7.737
	c-7.434-9.325-18.172-15.378-27.097-23.244c2.039-3.098,4.033-6.279,3.885-11.596C629.047,218.116,637.694,220.284,638.424,214.56z
	 M704.245,245.542c12.1-1.187-9.828,11.19,3.859,11.622c-6.072,14.139-5.795-9.002-15.475-3.885
	c-8.396-0.658-1.742,13.739-3.859,19.359c-3.782-0.103-3.027-4.737-3.885-7.737c-5.092,4.64-6.098,1.51-11.622,0
	c15.249-4.588,4.44-12.803,15.5-23.218C691.184,243.825,700.464,257.39,704.245,245.542z M580.345,191.342
	c8.17,15.778,25.335,1.213,27.097,19.359c-12.229,1.891-13.687-6.982-27.097-3.878c-0.729,3.304,1.51,3.652,3.885,3.878
	c-1.413,6.053-6.853-3.401-7.763,3.859C568.097,208.133,591.845,204.151,580.345,191.342z M711.983,195.227
	c0.581-9.654,13.106-1.162,15.475,0c-0.4,5.143-7.26,21.328,0,11.596c6.808,3.356-5.317,20.166-7.711,27.097
	c-1.207-6.679-5.898-28.31,3.833-34.834C722.972,194.543,716.519,195.807,711.983,195.227z M622.949,241.683
	c3.123,0.703,3.833,3.859,7.711,3.859c0,2.568,0,5.169,0,7.737c-12.125,4.311-10.209,1.813-19.359-3.859
	C612.211,243.825,622.871,248.058,622.949,241.683z M642.283,288.139c1.233,9.28-26.845,20.695-27.097,3.885
	C624.866,301.755,630.383,287.564,642.283,288.139z M715.861,288.139c8.466,11.267-4.84,33.731-11.622,42.578
	C697.992,313.119,715.513,308.808,715.861,288.139z M684.886,315.242c2.142-11.216,6.027,5.924,11.596,3.859
	c-2.594,7.711-11.771,8.873-15.455,15.5c0.407,9.454,12.784,0.807,11.596-3.885c6.35,2.897-4.614,20.895-15.481,19.359
	c7.234-7.363,0.4-9.731,0-19.359c-7.686,7.337-6.627,13.584-3.885,23.244c-6.931-0.503-8.17,4.711-15.5,3.859
	C659.951,330.891,688.364,330.613,684.886,315.242z M711.983,342.339c-6.834,17.572,5.846,20.114-19.359,34.834
	C684.228,365.983,709.563,355.548,711.983,342.339z M723.579,392.679c9.931,7.686-9.783,18.327-15.475,23.218
	c2.62,8.466,12.855-7.337,15.475-11.596c5.421,14.9-17.191,21.753-27.097,27.097c1.387,5.421,6.834,0.329,7.763-3.885
	c8.647,2.826-8.544,11.674-7.763,19.359C686.977,431.572,713.144,410.6,723.579,392.679z M719.746,419.776
	c9.505,12.326-19.004,19.585-19.385,34.834C691.791,443.266,715.132,430.817,719.746,419.776z M723.579,431.398
	c5.924,8.699-19.534,19.004-23.218,30.982C696.457,455.694,714.906,438.355,723.579,431.398z M708.098,381.057
	c0.148,4.917,1.762,21.476-15.475,23.238C693.404,392.17,702.606,388.466,708.098,381.057z M862.973,450.758
	c-3.53,10.512-13.539-3.956-19.334-3.885C810.264,454.358,851.706,435.154,862.973,450.758z M859.095,458.495
	c-5.621,9.828-23.47,7.486-27.071,19.359c-6.453-2.975,7.131-18.353,19.334-15.475c-5.143-11.016-17.217,2.975-23.218,3.859
	C819.014,471.498,845.53,444.453,859.095,458.495z M855.236,470.091c11.216,8.447,25.109-13.461,46.456-7.711
	c-14.9,14.771-49.431,9.931-61.937,27.097c-8.195-1.213,4.059-13.435,11.596-11.622c-3.885-15.378-17.114,17.043-15.475-3.885
	c20.295-0.355,24.528-16.765,46.482-15.475C874.95,464.012,865.548,467.491,855.236,470.091z M913.34,462.373
	c2.975,15.778-66.196,25.864-61.982,30.956C837.367,478.506,902.35,477.828,913.34,462.373z M859.095,497.214
	c15.378-12.429,47.895-25.987,69.726-19.359C903.609,482.339,881.603,490.031,859.095,497.214z M928.814,485.617
	c-15.552,8.647-87.395,22.76-30.981,0C908.171,485.617,918.483,485.617,928.814,485.617z M859.095,512.688
	c4.207-14.119,83.917-17.798,38.745-11.596C885.966,505.177,867.49,517.276,859.095,512.688z M924.936,508.836
	c2.775,10.512-18.249-2.775-15.475,7.737c-5.646-1.716,0.381-3.401,0-7.737c-12.203-1.865-15.152,5.517-23.244,7.737
	C882.862,506.99,908.674,503.718,924.936,508.836z M921.051,535.933c-3.375-7.563,30.252,9.654,30.982,23.244
	C941.372,551.762,933.106,541.979,921.051,535.933z M824.254,535.933C843.414,567.54,825.313,578.988,824.254,535.933
	L824.254,535.933z M835.876,539.811c6.931-0.503,8.17,4.737,15.475,3.859c-5.143,6.479,1.413,24.651-11.596,23.218
	C842,554.33,837.115,548.89,835.876,539.811z M882.358,547.555c8.066-10.338,18.475,9.654,30.982,7.737
	C908.171,571.347,891.412,551.155,882.358,547.555z M859.095,547.555c8.621-2.142,5.517,7.389,11.648,7.737
	c-2.846,6.905-7.06,0.555-11.648,0c-2.852,11.925,10.661,7.46,7.763,19.359c-12.551,4.788-2.975-12.526-15.5-7.763
	C853.016,559.525,859.701,557.183,859.095,547.555z M882.358,578.53c0.581-9.628-2.013-16.081-7.737-19.359
	c6.453-17.52,15.655,22.231,15.455,0c7.686,0.052,4.969,10.564,15.5,7.711c-13.99,7.408-1.613,11.119,0,23.244
	c-9.454,9.88-21.857-11.467-3.885,0C902.273,579.24,892.219,578.962,882.358,578.53z M650.046,559.17
	c5.776,8.396,22.205,6.176,23.218,19.359c-13.635-7.789-25.232,14.597-34.834,23.218c14.623-8.621,28.407-18.049,42.604-27.097
	c5.724,3.304,8.318,9.731,7.737,19.359c-9.202,2.42-18.049,5.195-19.385,15.475c-9.325,1.587-8.421-7.06-19.334-3.859
	c1.336-5.091,6.808-6.072,7.711-11.622c-9.099,1.213-7.182,13.435-19.334,11.622c-8.17-8.092,5.092-14.571,11.622-19.359
	c-3.781-3.956-7.666-7.841-11.622-11.622C637.268,564.468,653.453,571.599,650.046,559.17z M657.764,624.992
	c3.427,12.429-12.758,5.317-11.596,15.475c18.908-0.355,11.422-15.629,15.475-23.244c-10.009,10.338-4.059-8.899-19.359-3.859
	c1.942-13.435,21.605-1.968,27.097,3.859c4.362-3.478-0.252-8.647,7.763-15.475c6.905,2.846,0.555,7.034,0,11.622
	c11.745-8.951,22.438-7.008,27.097-7.737c7.389,17.824-30.704,23.418-38.745,38.719c-5.698-11.015,23.393-20.392,34.86-27.122
	c-30.226-2.013-46.734,32.188-61.937,50.341c15.178-3.53,61.66-48.902,42.604-27.097c-11.345,12.958-30.201,33.047-58.078,42.604
	c0.632-4.511-0.884-6.879-3.885-7.737c14.119-14.32,4.44,11.745,15.475,0c-2.846-14.52-5.446-24.903,7.737-30.982
	c-1.136-9.228-10.486,4.311-11.622,7.737c-10.841-0.052,9.228-10.564-7.711-7.737c14.119-12.577-8.873-13.055,3.833-38.719
	c-9.505,8.144-6.653-9.047-11.596-23.218c8.195-1.162,4.44,23.244,19.359,23.218c-17.849,13.713,11.119,7.563-7.763,15.475
	c0.4,9.957,14.442,6.227,19.385,11.622c4.866-0.955,3.904-7.686,0-7.737C649.013,618.081,653.201,624.411,657.764,624.992z
	 M619.064,698.545c7.866-9.151,7.034-4.943,23.218-7.737c8.092,6.098,6.808,21.579,15.475,27.097
	c-9.68,11.648-18.908-6.853-11.596-15.475c-15.5,2.749-0.226,18.172-7.737,23.244c-15.326,0.632,1.213-5.976-7.763-11.648
	c-7.208,5.672-4.562,21.25-19.359,19.385c2.923-20.592,5.776-33.524,0-58.078c-3.782,0.103-2.975,4.737-3.859,7.737
	c-12.984-3.53-1.942-7.208-3.885-19.385c3.452,3.027,8.75,4.182,15.5,3.885C612.74,673.842,622.497,683.774,619.064,698.545z
	 M700.361,683.07c-6.324,5.872-0.103-9.299,3.885-19.385c3.427,3.027,8.744,4.182,15.5,3.885c3.278,0.703,3.633-1.51,3.833-3.885
	C731.091,678.23,693.204,673.946,700.361,683.07z M684.886,706.282c10.512,3.504-8.847,8.673-7.737,15.5
	c10.635-8.17,5.95,5.092,3.885,11.622c9.757-2.62,6.834-12.855,3.859-15.5c8.699-7.537,20.418-12.074,11.596-27.097
	c6.531-8.976,21.502-9.505,27.097-19.359c8.466,2.62-7.311,12.88-11.596,15.475c1.233,8.241,11.971-5.517,15.475-7.711
	c2.801,11.925-25.361,26.142-34.834,38.693c19.966-7.111,27.529-26.645,46.456-34.834c4.207,0.955,2.62,7.686,7.763,7.737
	c-4.414,11.319-21.173,7.486-11.622,23.218c-16.462-3.53-19.488,6.35-23.238,15.5c11.19-12.906,28.639-9.402,34.86-19.359
	c7.234,15.126-30.272,18.656-42.604,27.097c22.689,4.259,49.683-22.231,65.815-27.097c-3.001-3.452-4.162-8.744-3.885-15.475
	c6.931-1.11,7.937,3.652,3.885,3.859c3.627,2.065,21.45-2.749,27.097-3.859c5.421,1.362,0.355,6.808-3.885,7.737
	c15.378,5.091,3.859,4.64,30.982,7.737c7.537,5.266-23.541,4.588-30.982,7.737c7.434,9.351,20.192-5.595,30.982,3.885
	c-8.015,8.744-21.45,12.074-34.834,15.475c6.627,8.847,29.542,1.439,42.597,3.885c10.338,6.879-22.689,2.827-30.982,3.859
	c-8.292,3.052-21.65,9.402-27.097,3.885c0.632-4.537,7.06-3.278,11.622-3.885c-4.788-11.745-13.332,4.207-23.264,0
	c-1.788-8.241,5.543-7.363,11.648-7.737c-3.375-11.267-5.795-4.336-15.5-3.859c-7.563,15.126-11.016,19.385-27.097,19.359
	c-0.658,8.396,13.739,1.742,19.359,3.859c-21.276,1.007-12.022,22.638-34.84,34.86c-0.981,7.866,14.139,18.779,19.359,7.737
	c-3.375-5.846-5.795,1.058-15.475-3.885c6.227-11.9,18.604-5.446,27.097,0c4.362-0.729,2.142-3.885,0-3.859
	c0.632-4.537,7.06-3.278,11.596-3.885c-5.472-11.319-25.206,10.615-23.218-11.596c14.72,5.595,1.968-16.862,30.956-19.385
	c-2.826-3.607-7.008-5.872-11.622-7.737c5.446-11.293,13.358,6.853,23.264,3.885c-4.233,7.131-30.575,11.9-11.648,19.359
	c-2.826,6.879-7.008,0.555-11.622,0c-3.123,0.703-3.859,3.885-7.711,3.885c15.249,1.51,14.52,19.004,30.981,19.334
	c4.614,6.705-29.091-3.375-30.981,15.475c-3.704-8.699-12.526-7.208-19.385,0c-8.976-2.594-10.357-12.855-19.359-15.475
	c1.717-4.762,4.969-7.937,11.648-7.737c-3.678-6.982-28.181,1.11-7.763-7.737c-3.807-10.841-10.338,5.621-15.5-3.859
	c9.402-11.493,21.25-12.855,30.982-7.763c0-3.885,0-7.763,0-11.622c-10.841,9.047-18.882,3.607-34.834,11.622
	c0.503-6.956-4.737-8.17-3.859-15.475c5.066-4.666,6.072-1.51,11.596,0c-1.136-9.022-10.461-9.022-11.596,0
	c-8.821-6.582,8.195-19.914,19.334-19.359c-6.879-10.357-25.509-0.052-23.218,11.596c-11.57-10.609-2.549-17.869-11.622-30.981
	c-12.1,19.385-21.805-24.754-3.885-30.956c-3.904-2.549,1.968,32.621-7.737,19.359C663.158,718.937,677.4,713.949,684.886,706.282z
	 M723.579,818.586c11.493-7.789,28.084,1.007,34.86-3.885c-0.103-3.756-4.737-3.001-7.737-3.885
	c7.26-7.815,36.047,9.073,38.719,23.244c-5.724-4.485-9.757-4.485-15.481,0c3.807,10.867,10.338-5.621,15.481,3.885
	c7.337-0.426,2.697-12.803,11.622-11.622c-5.117-2.117-16.714-27.6-19.359-7.737c-3.781-0.129-3.026-4.737-3.859-7.763
	c-0.658-4.537-7.06-3.252-11.648-3.859c17.72-14.016,32.595,12.855,34.86,7.737c11.719,4.737-2.749,14.771-3.885,19.359
	c17.824-4.111,33.15-10.738,50.341-15.475c-22.334,17.365,16.462,24.625,15.475,50.341c-9.88-10.538-17.946-16.965-34.834-11.648
	c8.621,8.144,17.895-3.278,27.097,7.763c-5.672,5.421-31.382-1.968-42.578-3.885c3.401,6.853,17.165,6.401,7.711,15.5
	c18.404-1.639,27.955,5.621,42.604,7.737c-10.79,11.145-31.182,12.68-38.719,27.123c-5.595,2.117-20.018-4.537-19.359,3.833
	c-4.969-10.26,30.549-13.21,38.745-23.218c-1.387-5.066-6.834-6.072-7.763-11.596c-5.724,1.665,1.51,4.943,0,11.596
	c-7.892-1.136-7.589-10.461-15.5-11.596c-2.291,10.06,1.587,13.939,11.648,11.596c-12.1,11.719-20.721-3.001-46.456,3.885
	c-13.713-14.797-27.374-49.986-42.604-50.341c-5.395-13.99,21.399-4.814,30.982-15.475c-0.729-3.149-3.878-3.885-3.878-7.737
	c-3.782,0.077-3.001,4.711-3.885,7.737c-7.408,1.787-16.662-11.951-15.475,3.859c-20.773,0.148-28.058-13.235-34.84-27.097
	C720.63,808.655,723.805,811.901,723.579,818.586z M742.964,853.42c22.031,1.942,7.711,16.159,15.475,30.981
	c-3.756-0.103-3.001-4.737-3.885-7.737c-4.414,1.362-9.809,6.808-3.859,7.737c-14.32,7.615,4.033-18.049-3.859-27.123
	c-4.537,0.658-3.278,7.086-3.885,11.648C737.666,881.272,737.666,853.749,742.964,853.42z M859.095,892.139
	c4.44,0.755,2.168,3.885,0,3.885c-0.678,3.304,1.51,3.652,3.885,3.859c-3.375,5.847-5.795-1.058-15.475,3.885
	c0.103,3.756,4.737,3.001,7.737,3.885c-13.235-1.213-22.915,9.454-42.578,11.596c6.35,11.067,20.973-1.865,27.097-3.885
	c31.182,13.765,11.467,2.872-7.737,7.763c5.846,5.75,16.965,6.227,27.071,7.737c-1.033,11.345-5.317,14.371,0,19.359
	c-6.556,10.06-17.972-7.511-30.956-3.885c7.408,6.808,20.192,8.215,30.956,11.622c-10.183,11.216-22.083-8.673-38.719-3.885
	c0.355-5.472,0.658-10.938-3.833-11.596c5.595-5.976,15.075-8.118,27.097-7.737c-18.424,6.453-4.459,10.106,11.596,11.596
	c-0.607-4.537-7.06-3.252-11.596-3.859c0.632-4.537,7.06-3.278,11.596-3.859c-9.931-14.623-47.314-1.742-50.341-23.264
	C830.559,915.202,844.827,903.658,859.095,892.139z M851.357,977.34c-0.678-3.304,1.51-3.652,3.885-3.885
	c-3.504-4.362-8.673,0.226-15.475-7.737c-8.466,2.62,7.337,12.855,11.596,15.475c8.847,1.084,14.545-0.936,15.5-7.737
	c10.486,3.504-8.847,8.673-7.763,15.475c-15.126-5.517-23.367-17.895-34.834-27.097C831.211,952.23,881.707,972.7,851.357,977.34z
	 M789.42,752.764c-15.204,17.294,22.386-10.106,15.475,15.475c4.537-0.632,3.278-7.06,3.885-11.622
	c14.468,0.355,11.041,4.336,23.238,0c-12.1,17.114,1.536,11.422,15.475,15.5c-4.588,10.435-20.192-0.026-27.122,0
	c3.53,6.808,13.584,7.06,19.385,11.596c-4.866,7.737-26.568-11.719-30.982,3.885c3.504-15.223-35.389-0.729-38.719,0
	c-10.183-11.57,8.17-2.827,15.5-7.737c-0.607-7.157-13.132-2.394-15.5-7.737c0.781-5.195,16.081-7.208,0-7.763
	C775.856,759.875,779.515,753.171,789.42,752.764z M650.046,756.623c2.039-3.098,4.033-6.279,3.859-11.622
	c12.151,4.388,10.235-1.11,19.359,3.885C665.501,763.554,661.945,742.988,650.046,756.623z M626.782,745.001
	c0.452,7.434,12.984-4.537,23.264,0c0.478,6.956-4.762,8.17-3.885,15.475c-3.026-6.324-12.855-21.25-11.622,0
	c-11.822,2.826-14.119-3.93-23.244-3.859c18.075-10.564-8.925-16.585,30.982-23.218
	C641.224,741.349,631.951,741.123,626.782,745.001z M603.564,764.36c4.969,4.007,9.957,40.732-3.885,38.719
	c3.097-8.925,3.252-12.803,3.885-30.956c-6.576-1.439-7.311,3.001-7.737,7.737C583.069,774.092,602.402,768.949,603.564,764.36z
	 M630.66,772.124c8.699-2.975,0.129,30.097,7.763,15.475c14.668,6.602-8.421,6.376-7.763,11.622
	c-6.653-1.213,5.04-13.435-11.596-11.622c0.103,3.781,4.737,3.026,7.711,3.885c-2.975,3.427-4.162,8.744-3.833,15.475
	c-3.885,0-7.763,0-11.648,0c8.518-16.236-9.628-35.241,7.763-42.604c-4.033,3.678-3.556,19.966,7.711,19.359
	C617.328,768.394,632.577,788.056,630.66,772.124z M804.895,803.079c5.517-15.152,31.607,13.106,23.244,0
	c1.691-5.75,4.943,1.536,11.622,0c-5.421,6.201-13.358,9.906-23.218,11.622c0.103-3.756,4.717-3.001,7.711-3.885
	C821.208,796.323,810.748,810.591,804.895,803.079z M646.167,903.761c-0.936-21.024-6.201-37.686-3.885-61.963
	c-8.899,9.176-1.387,34.789-3.859,50.341c-9.654-17.165-12.777-67.835,7.737-85.175c4.007,14.997-2.013,15.959,3.885,27.097
	c12.248-33.776,2.065,14.319,15.455,11.622C657.08,861.764,651.814,886.77,646.167,903.761z M657.764,876.664
	c7.918,16.385,9.228,34.511,0,50.341c-11.345-3.278,5.04-9.757,0-19.359c-3.756,0.103-3.001,4.737-3.859,7.712
	C649.794,917.267,655.066,890.88,657.764,876.664z M599.685,849.561c0.755,3.123,3.904,3.859,3.885,7.712
	c3.53-2.62,2.194-16.914,19.385-15.475c0,5.169,0,10.338,0,15.475c-10.06,6.705-12.203-5.672-7.763,11.648
	c-14.545,2.923-13.106-10.131-19.359-15.5c-11.441,3.356,9.002,5.795,3.859,15.5c-10.209,1.161-9.983-8.092-11.596-15.5
	c19.688-6.35,8.847-23.818,27.097-34.834c7.537-1.917,13.939,19.211,0,15.475c2.065-3.097,4.033-6.279,3.885-11.596
	C608.429,827.278,610.746,845.128,599.685,849.561z M677.142,834.061c0.703,4.414,3.885,2.142,3.885,0
	c-3.278,12.88,8.092,41.164,7.737,30.981c-18.146,1.968,7.434,29.975-15.5,27.097c10.59,68.442-9.706,1.787,0-19.334
	c-10.383,16.184-1.994-48.398,11.622-61.982c10.512-2.749-2.775,18.275,7.737,15.5c-2.846,6.905-7.034,0.555-11.596,0
	C681.634,830.808,680.169,833.228,677.142,834.061z M715.861,853.42c-6.15,6.782-5.195,20.644-7.763,30.981
	c-13.158-18.604-14.468-42.274,23.244-50.341c9.88,6.879-2.575,36.15,7.737,42.604C725.341,877.516,726.902,872.373,715.861,853.42z
	 M495.171,845.683c5.266-9.957,3.678,19.159,7.711,23.244C484.432,868.417,497.771,860.151,495.171,845.683z M576.467,853.42
	c1.11,6.279-3.652,6.679-3.885,11.622c-1.917,9.783,19.237-10.79,15.5,7.763c-3.097-2.697-10.615-6.027-11.622,0
	C568.201,875.077,562.399,849.664,576.467,853.42z M499.029,915.357c-4.388-0.703-2.168-3.885,0-3.833
	C491.163,886.441,512.058,860.202,499.029,915.357z M754.561,892.139c10.512,5.195-0.981,29.317,15.5,58.078
	c-4.537-0.607-3.278-7.06-3.885-11.596c-4.737,1.665-7.937,4.943-7.737,11.596c-5.24-1.213-3.227-9.68-3.885-15.475
	c-6.201-1.665-12.984,14.442-3.859,15.475c-1.362,5.446-6.834,0.329-7.737-3.885c-7.892,4.691,1.891,16.739-15.5,19.385
	c0.503,10.712,7.408,13.287-3.885,7.737c1.162,33.401-12.455,52.051-15.475,81.297c11.822-44.165-13.79-123.823,23.244-150.99
	C736.156,900.205,766.079,901.593,754.561,892.139z M638.424,903.761c8.899,6.556,5.117,25.838,15.475,30.981
	C643.922,944.467,638.249,917.022,638.424,903.761z M650.046,946.332c1.336-5.421,6.808-0.329,7.711,3.885
	c3.627-2.846,5.898-7.034,7.737-11.596c6.556,7.641,4.233,24.173,7.763,34.834c-9.983-9.325-5.795-21.25-19.359-19.385
	C654.556,949.585,653.046,947.216,650.046,946.332z M591.967,1151.548c9.402,5.543-13.887,23.948-3.885,30.981
	c-7.311,9.757-3.652-13.513-7.737-11.596C586.953,1167.229,588.818,1158.731,591.967,1151.548z M522.267,1186.415
	c-11.971-5.04,11.119-5.117,7.712,3.859c3.33,0.703,3.652-1.51,3.878-3.859c7.711,2.594-3.807,12.855,3.885,15.5
	c-3.782,6.227-10.338,8.873-15.475,3.833c2.826-3.581,7.034-5.847,11.596-7.712C531.721,1192.461,527.843,1188.576,522.267,1186.415
	z M572.582,1194.152c-0.103,3.756-4.711,3.001-7.737,3.885c7.034,10.338,8.041,11.145-3.885,23.219
	c2.872,3.627,7.06,5.872,11.622,7.763c-3.375,5.821-5.795-1.084-15.475,3.859c5.776-17.546-10.661-13.61,7.737-27.122
	c-1.032-9.099-14.39,0.381-15.475,3.885c-4.414-0.729-2.142-3.885,0-3.885C532.579,1193.623,561.793,1204.483,572.582,1194.152z
	 M824.254,1213.511c10.286,1.942-13.306,22.108,0,27.097c13.235-2.775-17.643,1.787-3.885,7.737
	C805.908,1255.528,818.208,1220.719,824.254,1213.511z M777.824,1240.608c4.285,1.691,9.628,27.529,11.596,7.737
	c9.402,13.842,30.852,15.604,34.834,34.86c-3.427,1.742-6.905,3.401-7.711,7.737
	C800.862,1277.688,766.531,1268.615,777.824,1240.608z M804.895,1480.658c-2.091,5.621,4.537,20.018-3.859,19.359
	c12.1,6.001,13.287,22.838,19.334,34.834c-5.698-2.013-9.731-5.724-15.475-7.737c-6.627-18.882,1.942-35.441-11.622-65.79
	c7.286,1.233,24.877,14.9,19.385-19.385C822.086,1439.493,821.131,1491.196,804.895,1480.658z M793.279,1492.306
	c-5.724-5.446-8.318-12.403-7.711,3.833c-3.93-2.472-4.033-8.873-11.622-7.712c2.523-10.357,11.093-14.745,15.481-23.244
	C805.805,1471.03,796.525,1478.464,793.279,1492.306z M460.311,1643.296c-8.144,9.88-28.562,7.563-46.456,7.737
	C411.712,1646.097,445.262,1643.851,460.311,1643.296z M537.748,489.476c7.815,6.808-10.912,19.837-3.885,38.719
	c-8.041-2.168-8.189-6.027-3.878-11.622c-3.278-0.703-3.627,1.51-3.833,3.859C515.995,511.301,536.742,500.311,537.748,489.476z
	 M735.221,1209.626c14.119-17.017-8.396-23.722,11.622-34.834c-0.226,4.969-4.988,5.369-3.885,11.622
	c6.879-0.884,19.385,3.904,15.475-7.763c-18.275-4.033,17.875-50.141-3.885-65.816c-6.124,10.209-2.846,13.487,3.885,3.885
	c-8.292,9.783,3.078,39.222-11.596,42.604c0.884-6.905,7.389-15.178,0-23.244c-8.673,11.996-2.523,38.77-23.264,38.719
	c0.632,14.694,0.148,24.528-7.711,11.622c3.001,9.906,3.833,21.953,11.596,27.097c2.394-10.486-4.917-30.73,3.885-34.86
	c-1.362,15.404,4.814,38.416-7.763,42.604c11.422,9.783,0.832,14.694,11.648,15.475c-1.742,8.847-13.661,27.323-3.878,34.86
	c7.105-21.65,30.878-49.154,42.597-54.193c-2.117-5.621,4.485-20.018-3.878-19.359c-15.178,5.498-19.514,21.805-30.981,30.981
	c-0.226-8.196,8.847-32.466,3.885-27.097C742.132,1206.226,738.654,1207.916,735.221,1209.626z M766.176,1174.792
	c-3.653-21.224,14.19-43.759,7.763-69.674c0,2.142-3.149,4.388-3.878,0c0.884-3.026,0.103-7.666,3.878-7.763
	c11.519-4.64,4.943,27.981,11.622,15.475c-6.176-17.365,1.51-28.787-3.885-34.834c-0.807,4.692-4.311,2.368-7.737,0
	c2.575,27.574-8.718,9.628-15.5,15.475c21.831,12.203-4.459,42.952,11.622,54.193
	C758.265,1147.263,753.425,1173.534,766.176,1174.792z M812.658,412.039c8.221-18.882,37.583-16.636,54.193-27.097
	C843.388,386.046,808.076,395.725,812.658,412.039z M588.089,400.417c-0.632,4.562,0.678,10.99-3.859,11.622
	c-0.955-5.95-6.402-0.581-7.763,3.859c11.545,1.233,19.03-2.543,19.359,0c-0.581-10.841,15.83-20.566,23.244-15.475
	c-12.1,1.187,9.828-11.19-3.885-11.596c-10.615,3.581-13.661,14.694-23.218,19.334C592.8,403.288,597.995,400.236,588.089,400.417z
	 M580.345,481.733c-0.555-13.661,18.553-27.626,11.622-34.86C589.677,456.959,564.167,490.077,580.345,481.733z M580.345,609.485
	c16.514-16.765,11.519-23.193,15.475-27.071c-12.777-5.292-24.451,21.121-15.475,34.815c-2.091-5.569,15.075-9.428,3.885-11.596
	C584.004,607.975,583.624,610.221,580.345,609.485z M533.863,679.211c-2.142,5.543-6.027,9.428-11.596,11.596
	c-3.982-5.092-3.807-14.268-7.763-19.359c-11.093,0.729-23.115,20.443-19.334,23.244c9.731-5.976,14.694-13.965,15.475-19.359
	c11.093,15.804-20.669,22.134-27.097,23.218c-3.072,13.384,4.285,16.359,7.737,23.244c-4.588-0.581-8.796-6.905-11.622,0
	c7.511,9.002-4.188,39.396,7.763,61.937c5.498-16.21,8.17-29.439,27.071-42.578c-2.975-0.858-7.615-0.103-7.737-3.885
	c8.066,2.065,8.215-15.1,3.885-3.859c-7.589,3.478-10.764,26.29-23.218,19.359c22.386-18.856,3.73-43.662,30.956-54.219
	c-2.117,5.621,4.511,20.018-3.885,19.359c-9.376-11.874-2.42,4.459-7.737,3.885c-2.142-13.661-11.674,13.661-3.885,0
	c7.408,7.26,7.034-2.291,19.385,0c-5.292,4.943-5.292,18.275,0,23.218c-7.311,5.621-20.14,5.698-23.244,15.475
	C539.865,753.9,527.288,682.915,533.863,679.211z M518.389,690.808c-7.686,7.815-18.301,12.655-23.218,23.218
	C489.956,708.554,502.759,688.284,518.389,690.808z M533.863,555.292c5.317,8.821-9.957,14.545,0,15.475
	c6.027-13.106,18.45,19.663,23.244,7.763c-7.26-0.936,2.194-6.376-3.859-7.763C546.318,581.156,542.737,555.744,533.863,555.292z
	 M576.467,512.688c-6.027-0.303-2.672,11.267,0,3.885c2.168-8.744,6.053,4.691,11.622-3.885c0.355,6.35-6.453,16.862,0,7.737
	c3.052-0.426,11.719-12.777,3.885-11.596c-4.033,9.757-15.378-6.253-19.385,0C574.957,509.062,577.196,509.41,576.467,512.688z
	 M514.504,605.633c3.201-17.269,9.906-27.703,7.763-34.86c-0.226,2.368-0.607,4.588-3.885,3.885c0-2.142-3.149-4.388-3.885,0
	C525.9,579.31,503.714,594.895,514.504,605.633z M557.108,671.448c2.775-4.136,15.1-17.849,3.859-23.244
	C557.411,655.516,540.317,666.131,557.108,671.448z M549.37,706.282c-6.15,10.209-2.872,13.513,3.885,3.885
	c4.336-7.737,20.166-39.377,11.596-34.834C559.302,685.258,558.418,699.829,549.37,706.282z M820.376,845.683
	c8.421-2.775,21.579,13.287,34.86,3.885c-8.899-4.84-17.824-11.996-23.218,0c-3.427-12.455,10.035-8.041,11.622-15.5
	C833.379,833.177,813.645,842.379,820.376,845.683z M804.895,849.561c-10.841-1.51-54.122-16.836-46.456,0
	C767.589,840.088,791.363,857.853,804.895,849.561z M650.046,876.664c8.292-13.565,6.931-32.014-3.885-34.86
	C653.298,855.388,642.534,863.429,650.046,876.664z M510.652,892.139c6.072,2.697-3.201,17.643,3.859,19.385
	c3.73-7.918,7.918-15.352,11.648-23.263C520.357,888.938,511.832,886.873,510.652,892.139z M742.964,1267.73
	c0-1.613,21.076-4.44,11.596-11.622c-2.801,4.085-11.622,0.426-19.334,7.737c13.713,16.836-20.166,24.832-3.878,42.578
	c14.52-17.849,40.61-19.966,65.815-19.359c-12.48-8.77-41.59-10.661-38.719-23.218
	C757.406,1267.35,744.048,1276.829,742.964,1267.73z M506.767,1310.308c7.157-9.828,11.719-26.471,23.218-11.596
	c-1.31-23.012-10.357-2.62-27.097-3.885c0.277-5.421-0.832-14.823-3.859-7.763C505.283,1299.067,502.379,1302.113,506.767,1310.308z
	 M727.457,1380.008c-12.758-9.757-5.543,7.815-3.885,15.5c-3.885,0-4.588-3.149-7.711-3.885
	c8.066,20.798-10.893,62.163-3.878,81.297c9.731-16.662,20.114-33.956,30.982-58.078c-1.084-60.801-6.376,26.393-23.218,30.981
	c4.459-39.274,15.578-30.981,15.475-65.816c-6.705,2.343,0.303,18.379-7.763,19.334c3.478-28.032-1.413-39.022,0-58.078
	c-0.91,7.286-6.35-2.168-7.711,3.885C720.778,1350.563,719.494,1371.084,727.457,1380.008z M468.048,1438.061
	c-18.075,45.927,12.151,9.551,3.859-11.596c-0.832,3.001-0.077,7.641-3.859,7.737c0.026-2.142-3.123-4.388-3.885,0
	C466.538,1434.428,468.777,1434.783,468.048,1438.061z M425.47,1589.103c15.881-0.884,25.335-8.215,34.84-15.5
	c-12.151-2.646-15.804,0.426-19.359-3.885c5.421-2.697,18.024-17.617,11.622-19.334
	C440.648,1560.419,437.17,1578.868,425.47,1589.103z M855.236,1596.814c5.117,0.052,3.556,6.808,7.737,7.763
	c3.149-8.396,33.479-9.906,23.244-11.648C872.782,1598.783,864.741,1589.606,855.236,1596.814z M409.97,1600.699
	c-13.861-10.383-27.574,14.319-42.604,3.885C372.587,1622.73,405.762,1597.221,409.97,1600.699z M344.154,1627.796
	c0,2.568,0,5.169,0,7.737c3.878,0,4.588,3.149,7.737,3.885c8.041-14.139,1.536-18.882,11.622-30.981
	c-10.59-2.826-7.815,7.686-15.481,7.763c-0.858,7.311,4.362,8.544,3.859,15.455C348.033,1631.706,347.303,1628.551,344.154,1627.796
	z"/>
</svg>
