<svg xmlns="http://www.w3.org/2000/svg" viewBox="344.154 40.326 642.732 1645.949"><path opacity=".1" d="M766.176 377.173c-5.795 7.13-16.16 9.654-19.334 19.36-17.087-3.73 9.706-30.524 19.334-19.36zM700.36 721.79c18-2.473 19.16-15.753 30.983-15.5-10.383-4.512 10.08-10.107 11.622-15.476-22.212 2.285-28.388 20.663-42.604 30.975zm-201.33 542.06c-14.772-4.162-26.065 14.875-15.476 23.22-.607-16.21 1.968-9.326 7.737-3.86-.58-9.654 6.077-11.978 7.74-19.36zM591.966 55.826c6.653-6.453 43.23-2.975 30.98-15.5-3.928 9.15-39.523 6.704-30.98 15.5zm23.22 11.596c10.937 3.2 10.034-5.446 19.358-3.86-6.2 15.224 16.74 1.337 15.5 11.623-13.384 3.078-16.36-4.31-23.264-7.763-6.4 27.045-16.332 33.6-30.955 46.482 23.012-3.982 24.096-26.29 34.834-34.86 16.33 4.717-11.6 15.455 0 15.5 8.54-6.376 17.595-23.522 27.094-7.763-5.317.177-8.473-1.81-11.596-3.882 5.95 21.476 20.843 20.85 23.217 38.745-16.28 4.667-16.99-6.252-27.097-7.736-3.4 12.43 12.778 5.292 11.623 15.48-18.933 13.488-42.093 22.335-38.72 30.982-28.863 1.36-30.8 20.843-50.34 15.474 8.397-17.468 43.89-28.31 46.457-38.718-9.68 7.363-15.2-3.2-27.073 3.885-.052-3.903 3.104-4.613 3.86-7.762-8.822 3.478-22.587-.73-15.5 7.763 3.626-2.064 21.475 2.75 27.096 3.886-18.327 3.607-25.838 18.024-42.578 23.218-1.865-8.796 21.373-11.596 11.596-15.48-5.497.91-6.504 6.375-11.595 7.736-2.013-5.725-5.724-9.758-7.737-15.476 17.113 6.532 4.613-7.18 3.884-15.5 17.946 1.718 21.98-10.485 23.218-15.48 13.66-12.3-15.5 9.228-23.218 11.596-5.57-16.914 19.03-24.322 15.455-34.834-5.75 12.777-4.538-12.958-15.456-7.763-3.4 12.454 10.01 8.04 11.596 15.525-9.957-.658-18.604 19.688-23.218 11.596 10.356-5.368 14.467-14.164 7.736-27.122 5.794-5.795 16.28-6.905 19.333-15.475-51.878 8.396-25.71 89.686-15.456 123.92-13.886-4.112-24.4 4.413-38.744 15.48 15.05 14.874 37.81 14.365 50.34 23.218 5.317-8.82-9.957-14.544 0-15.474 4.337.834 6.053 4.31 7.737 7.74-15.63 18.83 1.234 53.29 11.65 69.725-.91-24.626-11.417-36.15-11.65-46.483 6.88 3.453 4.944 15.734 19.386 11.623 9.853-6.886-2.595-36.126 7.71-42.605 20.62 6.28 8.9 19.508 11.622 42.604-5.093 4.96-14.27 4.96-19.335 0-2.896 11.924 10.616 7.433 7.71 19.333-16.305 1.942-10.84 39.396-27.095 19.385 2.367 17.59 29.09 32.898 27.096 11.622 7.92 16.888 19.915 21.78 19.386 38.72-.954-6.854-45.726 61.833-46.48 54.2-.382-4.008 5.42-3.08 3.884 3.877-12.325-5.543-30.478-1.084-23.218 7.737 1.136-9.028 10.46-9.028 11.596 0-23.773 18.353-29.846 31.762-38.693 50.34-.956-4.206-6.403-9.298-7.764-3.884 4.362.807 6.027 4.285 7.763 7.737-5.544.935-6.557 6.375-11.65 7.736V446.89c12.05-6.125 34.79-21.858 30.982-30.98-1.136 13.51-10.486-.33-11.622 7.735-13.21 8.144-35.44 40.584-23.218 69.7 1.665-13.816 9.73-21.25 19.334-27.097-10.59 13.384-8.267 18.275-15.476 30.982 6.654 1.536 9.932-5.75 11.65 0-6.506 12.855-13.566 32.57-23.265 30.982 16.764 52.56-23.697 116.33-11.597 139.375-11.423-5.543 9-2.95 3.884 7.763-2.168 8.015-6.053 8.195-11.622 3.885v7.71c.858 3.028.103 7.667 3.885 7.764 7.087-14.167 18.683-33.578 30.957-31.01-4.162-7.18 21.65-42.12 34.86-42.577-10.815-12.15 35.066-33.524 15.455-42.578-6.73 7.892 2.923 7.59-3.86 15.475-13.938-11.145-20.894 28.987-34.86 7.737-5.923 11.648-8.09 26.82 3.88 19.36-7.867-8.597 22.333-21.354 27.096-23.22-13.99 13.082-22.786 31.408-38.693 42.58-.354-6.325 6.428-16.837 0-7.738-2.22 10.31-5.445 30.02-27.096 30.954 1.44-10.357 26.443-17.14 15.473-27.07-3.376 5.645-5.796 12.247-15.476 11.595V636.62c13.184 11.093-2.446-14.745 15.475-15.5 1.535 6.68-5.75 9.93 0 11.622.83-3.027 3.25-4.485 7.736-3.86 1.16-7.614-5.22-7.685-7.738-11.647 14.796-10.435 30.574-30.072 19.333-42.578-3.052 18.96-15.326 49.056-30.956 42.577 16.183-30.8 14.015-78.418 27.12-92.912 1.865 14.19 10.964 8.744 3.833 27.097 7.208-3.704 12.958 11.622 15.5 0-11.267-5.42 6.88-13.332 3.885-23.218-13.765-6.027-2.342 13.158-11.622 11.622-.58-9.628 2.013-16.08 7.737-19.385.832 4.363 4.285 6.054 7.763 7.764-.884-7.337 4.336-8.544 3.86-15.5-6.654-1.51-9.907 5.776-11.623 0 5.117-.026 3.53-6.782 7.763-7.737 1.136 3.452 10.46 16.965 11.596 7.737-11.848-3.807 4.46-10.338 3.86-15.475-10.384-6.906-7.46 17.042-11.597 3.884 3.356-8.492 20.67-22.94 11.596-31.007-1.84 4.588-4.11 8.796-7.738 11.648 1.84-13.687 9.81-21.224 15.5-30.982H568.7c-.2-2.368-.555-4.588-3.86-3.885 2.827 16.963-7.685-3.1-7.736 7.735 10.383 13.74-11.596 37.99-7.737 46.482-10.183-14.37 5.014-26.316 0-34.86-6.905 4.943-10.964 32.62-19.385 23.244 2.646-17.365 30.652-31.33 7.763-30.98 10.867-6.93 32.543-21.355 34.834-19.36-19.208-3.98 3.475-11.997 3.882-11.62-8.092-5.78-14.57 3.882-19.36 3.882 3.002.858 4.486 3.252 3.86 7.737-11.97.026-10.183 5.9-23.218 11.622 4.84-14.65 28.51-42.63 46.482-54.22 40.48-26.115 43.61 11.797 61.937 19.36-1.162-4.537-20.52-9.706-7.737-15.475 5.343 6.253 10.938 12.248 15.475 19.36-15.983 2.245-24.147 8.17-38.72 27.096 3.48-11.345 3.48-11.9 0-23.244 4.945.225 5.37 4.97 11.598 3.884-5.24-17.417-21.703-8.673-19.335-27.097.91 26.064-26.82 25.838-23.218 27.097.91 7.26 6.35-2.194 7.737 3.885-4.537 10.182-4.814 13.486-11.622 3.884 4.033 9.073-4.51 25.412-3.885 27.097 12.803-5.04 19.256-54.147 34.834-30.98-8.215-14.72-18.753 19.89-11.62 7.736 5.14-.052 3.554-6.782 7.76-7.737-6.98 25.71-21.78 28.03-3.884 42.577-6.808-2.672-11.97-4.26-15.475 0 3 .858 4.51 3.252 3.886 7.763-8.215-14.72-18.78 19.89-11.622 7.74 5.092-.053 3.53-6.783 7.737-7.738 3.305 9.022-13.54 16.69-3.86 19.36 1.11-3.627 10.437-3.627 11.598 0 .2 2.342.58 4.588 3.86 3.86.882-7.312-4.338-8.545-3.86-15.476 4.813 4.866 13.964-19.534 15.474-19.385-12.203 11.95 12.255-23.52 0-11.595-1.187 10.635-13.435 8.17-11.622-3.885 11.293 5.57 4.388 2.974 3.885-7.738 10.59 5.067 15.455 3.402 23.218-7.736-14.97 26.193-5.42 60.092-19.334 81.297-1.51-6.626 5.724-9.905 0-11.595-.226 2.342-.58 4.588-3.885 3.86.026-2.143-3.123-4.39-3.885 0 4.31 3.78 13.307 22.36 3.886 27.122-.658-5.795 1.387-14.294-3.885-15.5-2.166 9.654-5.922 24.025 3.887 23.244-5.143 3.886-14.39 3.653-15.475 11.623 17.747 9.428-15.125 20.295-3.86 23.244.81-4.71 4.287-2.42 7.74 0 8.446-12.23 10.51-30.8 23.217-38.743 1.664 31.762-30.78 63.854-27.098 89.06-2.27-4.762-8.143 4.11-11.62 3.885 8.975 3.028-12.83 27.93-3.886 30.957 5.62-6 5.17-18.076 11.648-23.22-14.945 55.63-31.104 107.36-77.463 139.375-3.63-11.674-17.47-7.208-3.886 0-17.895-4.414-18.7 7.79-19.334 19.36 4.787-12.223 11.24-.704 19.333-11.597-8.144 15.984 5.117-1.484 11.622-3.885 2.62 21.98-16.333 22.386-23.218 34.86-5.795-7.086 1.258-24.78-3.86-15.5-9.73 48.6-7.988 135.238 11.597 193.594-5.343.148-8.492-1.813-11.596-3.885 4.135 24.904-6.532 55.304 0 69.727v-11.65c7.136 9.653 11.17-37.66 3.858-46.43 6.756-.33 12.048.857 15.475 3.832-4.283-11.44-1.334-27.323-3.883-30.956.026 2.168-3.098 4.388-3.86 0 1.06-9.125 17.166-2.368 15.476 3.86-.936 5.542-6.35 6.555-7.737 11.62 9.706-4.942 12.125 1.97 15.5-3.858-5.75-.73-3.556-9.35-3.885-15.475-6.807-3.557-19.307-1.363-23.217-7.738 16.79 3.885 17.243-8.57 23.218-15.526-14.467-4.087-6.15 14.543-19.36 11.646 10.94-6.124-8.742-20.747 3.86-27.097-1.232 4.71.633 23.92 3.886 11.595-5.62-28.084 18.63-16.914 11.622-34.86 12.505 4.788 2.974-12.506 15.474-7.712-10.285 5.318 7.46 15.1 7.764 7.713-3.026-.858-4.51-3.2-3.885-7.712 7.615 1.137 7.686-5.24 11.62-7.762-8.594 16.74 16.31 9.983 23.22 15.475-1.31-1.033-6.053 5.517 0 7.763-2.723-1.006 4.485-12.402 7.763-11.595 2.568.607 2.013 10.357 3.885 11.596 12.377 8.32 51.244 8.017 58.052 30.958-12.856-11.596-32.57-6.48-30.983-15.455-30.575 9.706-51.677-2.117-73.553 7.712-.858-3.002-.103-7.642-3.885-7.713-3.054 8.745 4.31 25.89 7.76 15.456-9.227-7.737 7.01-1.007 7.738 3.885 13.26-12.35 62.414-15.3 69.7 7.764-6.906-2.343-16.108 11.345-19.386 0 7.234-.555 12.958-2.568 15.5-7.763-19.282-3.78-23.064 7.92-34.834 11.65 4.162-18.2-29.975 2.09-38.72-7.764 3.834 13.158-27.373 10.964-15.474 19.36 7.562-5.518 32.95-13.262 42.55-3.86-9 1.284-16.66 3.93-19.333 11.596 7.435 17.494 1.285 19.334 3.886 42.604-3.73-3.2-7.918-25.057-11.622-15.5 10.13 16.03-6.253 3.33-7.763 19.385 15.18-.2 11.997 8.145 15.5 11.597 1.866-4.562 4.137-8.77 7.738-11.596.226 2.344.58 4.563 3.86 3.86-22.258 17.114-44.495 16.714-58.08 46.456-.83-3-.076-7.64-3.858-7.737-.858 7.336 4.362 8.57 3.86 15.474-10.132-7.84-7.616 10.79-15.456 7.762 6.053 5.143-26.167 72.146-11.648 38.693 24.4-24.625 35.544-62.537 69.7-77.412-1.058 5.82-16.636 16.28-7.737 19.334 7.06-15.804 50.567-54.774 69.7-34.834-4.36.4-6.027-5.62-7.763 0 9.273 2.272-9.35 8.144-11.596 11.622-2.064-5.57 15.1-9.454 3.886-11.622-12.35 16.133-46.784 30.575-42.603 50.34 9.325-11.343 24.677-16.635 38.72-23.217-1.51 5.518-4.667 6.53 0 11.597-16.41 8.144-27.956 21.102-42.605 30.98h7.762c.226 2.37.555 4.59 3.86 3.886 3.33-9.785 22.282-23.924 30.98-15.477-12.15 12.23-40.505 20.547-42.603 30.956-10.107 3.174-3.305-14.798-7.738-7.738-11.597 2.55 3.703 8.24 0 15.474-24.4 1.033-10.565 16.914-27.098 23.244 7.686-8.95-.98-4.31-3.885-11.62.103-10.487 31.285-9.68 19.385-19.36-5.795 15.578-16.184-3.452-19.385 3.86 8.925 6.452-6.653 10.485-7.737 11.62 4.537.66 4.207 6.125 3.86 11.65-14.19 6.956-11.146 11.092-27.098 11.595 1.233 8.975-.632 14.873-3.878 19.36 12.577 4.483 23.844-11.85 30.98 0-2.896 7.31-11.518 2.67-3.858 11.594-2.698-3.027-21.606-8.597-23.245 0 14.37 6.304 21.174 20.14 42.605 19.384 2.09 10.485 3.096 9.653 7.762 23.217-7.66-4.084-24.25-4.987-34.86-15.474.632 20.495 19.785 30.227 3.885 46.456 13.74 6.027 2.342-13.132 11.596-11.596 17.772 4.007 3 15.352 7.737 19.334 8.066-10.157 16.333-2.065 23.244-7.737-2.898 17.92 14.796 5.394 15.5 11.62-6.906 7.867-15.753 2.57-3.886 11.597-11.97-5.42-17.418 23.496-11.623 11.648 5.144-.05 3.557-6.78 7.738-7.762-1.44 19.663-16.965 21.63-15.5 34.834-.91-4.182-6.35-9.28-7.71-3.86 22.204 6.228-14.92 7.616 0 15.5 4.135-10.06 22.94-5.42 27.096-15.5-5.95-.928-.58-6.375 3.885-7.736 1.057 29.343-34.21 24.904-38.746 46.457 5.898-5.95 23.618-19.99 30.98-11.595-14.944-.63-28.006 20.774-19.333 30.983 7.41-14.97 17.244-34.634 30.957-23.264-9.1 5.645-8.647 9.653-15.475 0 .86 7.336-4.36 8.543-3.884 15.5 6.68 1.51 9.93-5.75 11.622 0-13.26 3.58-29.24 21.327-34.86 0-1.665 18.38-4.233 10.71 3.885 15.474-9.375 5.24-2.42 7.762-7.736 11.62-2.524-6.175-4.26-6.704-7.764-3.858-13.764 11.19-57.722 73.153-30.98 108.42-5.724-2.014-9.73-5.75-15.455-7.764 7.738 16.307 18.076 38.945 0 50.34 14.346 9.022 20.14 5.04 30.98 15.475 3.377-13.357 20.497-13.034 23.22-27.07-13.435 11.848-21.353 6.35-34.86 19.334 2.846-10.564-7.686-7.79-7.737-15.475 3.33 8.52 24.927 8.52 15.5 0-.227 2.37-.608 4.562-3.88 3.885 4.434-26.392.053-11.57-11.62-27.122 7.962-1.032 3.65-14.39 11.62-15.475 5.396 4.866 1.666 21.908 11.623 11.596-12.906 11.266 9.55 19.23 0 27.122 25.664-10.06-10.912-34.71 3.885-46.456v7.738c7.59 1.16 7.667-5.22 11.597-7.737.885 7.313-4.36 8.52-3.884 15.477 20.894-18.198 5.394-2.523 23.263 15.474-2.847-10.537 7.685-7.762 7.71-15.473-5.57-8.57-9.454 4.866-11.596-3.86 12.958-16.41 6.453-20.34 3.885-46.48-4.79 8.465-6.254 27-7.764 38.718-9.956-11.24 5.09-27.347-3.884-34.833-8.42 9.88-7.06-22.638-15.474-15.475-.607-8.466 15.63-29.742-3.86-27.122 12.856 2.672 6.228-8.015 3.86-11.596 5.343.147 8.492-1.84 11.622-3.886-5.62 9.81 1.89 25.457-3.885 34.86.025-2.17-3.124-4.44-3.886 0 13.08 5.394 16.262-24.878 15.5-38.746 3.504-6.834 8.673-11.996 15.475-15.5-8.37 3.478.477 22.083 3.884 11.648-7.06-4.588 8.873-3.356 0-15.474 14.745-2.393 30.375-10.382 15.5-11.647 5.724-4.587 6.027-14.622 11.596-19.333.13 80.41-23.47 177.84-54.193 201.304 5.57 8.57 9.455-4.84 11.623 3.886-12.577-5.473-22.89 19.636-30.98 15.5 1.135-7.92 10.46-7.59 11.595-15.5-13.584 16.487-21.147 6.78-30.98 15.5 18.326 9.982-19.612 15.75-7.738 19.358 2.697-3.026 21.605-8.62 23.264 0-15.022 2.568-13.79 0-23.263 3.86-2.646 12.176.478 15.828-3.86 19.358-3.884-5.143-3.677-14.39-11.62-15.475-3.202 12.43-3.305 8.042 3.884 15.476-5.47 5.542-18.803-.833-27.096-3.886-1.16 7.642 5.24 7.687 7.712 11.623-5.925 6.1-22.535-6.452-27.098 7.764-4.71-5.62-14.77-5.897-19.334-11.647-10.937 21.502-27.12 2.446-30.98 30.98 55.484 3.757 106.78-13.157 158.734-23.217 37.28-7.208 84.872-3.278 104.56-30.98-5.795-.66-14.32 1.386-15.5-3.86-2.368-12.525 23.67-.2 7.737 0 18.404-.226 32.014-4.97 11.65-11.648 4.18.955 9.28 6.402 3.83 7.763-5.95-14.267-13.964-4.11-19.333-15.474-12.984-119.46 9.828-240.83-7.763-356.205 15.222-11.82 4.36-52.682 30.98-61.962-22.89-44.772 32.37-81.296 23.245-112.297 21.103-8.57 22.135-37.21 38.72-50.314-8.24 73.404 29.09 115.298 19.36 178.094 25.03-23.012-6.306-89.31 23.237-120.015-14.19-36.198 27.148-84.274 23.218-96.8.658 9.68-5.924 12.126-11.596 15.476 3.4-6.852 12.246-11.292 3.857-19.36 10.565 2.828 7.79-7.684 15.476-7.76 5.092 4.284 1.64 36.704 7.763 27.12 2.064-17.822.154-19.584 11.62-30.98-7.89 9.81-.354 39.22-3.884 42.604-5.698-10.66-19.463 3.096-7.737 7.736 4.44-21.676 1.812 18.024 15.48 11.596 5.75-11.345-4.388-14.37 7.737-19.334 9.202 10.008-12.203 37.808-3.885 46.455 5.394-6.253 3.277-19.966 11.62-23.244 4.234 37.183-14.52 13.635-7.736 54.22-4.362.38-6.027-5.62-7.737 0 2.29.676 21.423 24.58 11.62 34.86-8.344-3.28 1.44-24.704-7.763-27.124-6.376 16.46-4.943 23.72 3.885 30.955v7.763c-23.972-4.89 7.132 14.997-3.884 30.956-1.787-17.597-9.757 14.67-15.455 7.764 9.02 9.93 1.465 26.62 3.86 38.72.225-2.37.58-4.59 3.884-3.886-.026 2.167 3.123 4.387 3.86 0-10.384-13.16 18.397-20.167 19.358-34.835.858 3 .103 7.615 3.878 7.763.86-3.026.104-7.666 3.886-7.763.38 11.996-1.763 21.476-7.764 27.097-2.297-7.892 7.26-21.328 0-11.596-9.53 41.01-61.28 51.07-46.482 89.06 8.217 20.947 46.56 13.913 46.484 50.315-12.526-8.396-7.234.452-11.622 3.885-6.4-.077-2.167-10.764-7.736-11.648-3.756 17.617-22.638 42.094-7.737 46.482-2.04-25.433 24.024-10.287 27.096-23.22 2.367 1.84 2.42 48.73-7.738 27.098.58 14.796-.2 28.18-7.764 34.833-.658-5.794 1.387-14.293-3.86-15.5-4.135 26.065-35.24 60.093-38.718 92.94.93-4.207 6.376-9.3 7.737-3.86-6.227 8.745-4.11 16.03-11.596 15.476 11.72 21.423-9.505 18.474 7.71 34.833-10.937-.657-26.54 3.357-27.096-7.736 3.028-.858 7.667-.103 7.764-3.885-7.64 1.16-7.71-5.24-11.648-7.714-.608 4.537.702 10.964-3.834 11.596.503-5.092.555-28.032-3.885-15.475 1.39 14.37-7.06 30.522-15.5 23.217-3.15 30.427-4.283 76.25 7.74 81.297 9.124 21.754-11.397 60.324 11.647 73.58-3.885-13.236 1.613-11.623-7.763-19.334 7.763-19.16 19.108-37.28 30.982-30.982-5.446-1.007-4.414-8.518-7.737-11.622 27.902 5.24 45.197-13.584 73.56 11.622 1.482 21.728-10.59 7.486-15.5 19.333-5.57 2.09-9.456-15.073-11.598-3.884 13.585 6.48 4.486 10.512 0 11.648 4.867 1.562 7.92 4.97 7.738 11.622-16.236-9.3-6.905 5.17-15.48 11.596-14.217-9.653-34.687 4.918-30.983-11.595-.73 5.724-9.35 3.53-15.5 3.86 4.336-5.596 4.182-9.43-3.885-11.597-1.813 12.15 5.517 15.125 7.763 23.217 25.864.53 49.154-.478 61.937 3.86-20.166 8.924-62.918-10.74-77.412 3.884 57.02 23.95 100.45-9.253 100.682-50.34 6.982 3.304 10.635 9.983 19.334 11.62-3.2-12.4-3.303-8.04 3.886-15.5-3.027-.856-7.666-.1-7.737-3.86 4.56-.604 10.99.68 11.62-3.856-6.678.174-9.93-3-11.62-7.763 9.93 10.366 5.542-10.355 15.474 0-.53-20.693-15.708-6.554-19.36-19.332 2.142 0 4.414-3.15 0-3.885-7.286 7.686-3.627 16.533-7.763 19.36-.91-7.26-6.35 2.193-7.71-3.886 44.816-109 36.15-257.467 42.577-379.45 3.858-73.1-12.456-173.073 30.98-240.05 18.25 9.02 37.158-21.58 34.835-34.86.883 3.026.122 7.666 3.884 7.737 12.403-83.994-55.807-152.81-50.315-255.53-7.13-10.94-13.766-22.413-19.386-34.86 17.875 5.24 23.722-.28 46.456-3.86 12.177 9.3 16.333 2.523 30.982 7.737 23.973-13.434 45.98-28.89 54.193-58.077-24.527-87.724-55.328-169.22-85.174-251.672-46.456-37.41-136.652-31.103-174.235-77.437-5.316-33.776-3.025-65.84 19.386-81.297 7.364-51.27-25.986-61.782-46.48-85.175-3.608-26.09-16.515-42.854-27.098-61.962-7.962-7.11-57.877-9.325-23.217-3.86.4 7.312 12.776 2.673 11.595 11.597-14.874 0-32.24-3.278-38.693-3.86 11.938 3.817-11.158 3.59-7.776 11.528zM801.04 338.48c-.78.832 52.354-3.782 30.98 3.86-11.75 4.18-16.686 5.542-30.98-3.86zm-7.763 0c20.494-1.484-1.763 15.655 19.384 11.596-7.864 23.973-50.184 24.832-77.436 58.078 10.738 5.42 26.516-17.217 34.84-27.097 16.436 1.536 107.406-46.734 46.482-15.48 26.82 3.426 27.097-15.682 61.937-7.764-6.098 11.12 23.167 14.39 0 15.475 17.895 12.532 16.56 22.89 27.097 38.745h-11.62c.13-3.782 4.762-3.027 7.737-3.885-2.827-3.607-7.06-5.872-11.622-7.737-4.97 9.23-17.32 11.044-27.097 15.478.955 9.983 6.68-5.317 15.5 0-5.446 6.2-13.358 9.906-23.244 11.622.755-3.124 3.904-3.86 3.86-7.738-9.984.33-4.06 16.586-19.335 11.623 9.35-6.853 2.746-17.875 23.215-19.36-13.635-5.523 14.32-31.71 27.097-23.217-8.796-16.81-35.015-10.235-54.193-7.763.103-3.756 4.737-3 7.763-3.885-.13-3.756-4.762-2.975-7.763-3.885 9.604-11.848 23.524 4.666 38.747 0-9.325-5.976-16.56-8.118 3.86-7.71-65.416-12.456-90.926 45.623-112.298 38.718 8.116-7.13 23.642-23.72 46.48-27.12-48.018-2.395-56.94 39.576-81.316 61.962 18.753-3.278 42.5-34.886 69.7-42.604-7.763 11.598-22.412 16.335-34.86 23.246 1.742 3.427 3.4 6.93 7.763 7.737.658-5.822 8.62-17.07 23.218-19.36 1.44 12.1-.4 12.706 0 23.244-13.132-1.387-4.89-11.596 0-19.36-7.39 1.666-9.73 8.345-19.334 7.738 14.418 8.873-40.227 29.742-58.076 46.456 6.68 6.628-5.698 15.224 11.596 15.5-.4 13.714-12.803-8.214-11.596 3.886-5.846-6.453 1.562-10.41-3.885-23.244 20.47-7.92 29.04-27.73 54.2-30.982-.73-3.15-3.887-3.86-3.887-7.763-15.378 2.697-19.082 17.043-30.956 23.244-13.765-10.59 4.64-28.103 19.334-38.72-1.69-6.4-16.634 6.2-19.332 11.623-12.3-25.282 22.456-46.558 46.455-73.552 20.592 4.97-11.32 19.81 7.737 23.22 8.205-6.558 2.61-20.845 3.85-30.957zM750.7 350.076c-3.33 5.17 7.79-15.552 11.596-23.244 19.308 11.648 15.578 29.49-7.737 38.745-9.326 8.466 6.046-7.363 7.736-11.622-15.578 6.376-9.93 16.41-19.334 23.218-8.596-7.26 23.167-31.84 23.218-27.097-.127-12.68 8.44-19.256-15.48 0zm-50.34 131.657c3.606-22.308 34.207-51.522 7.736-3.885-4.485-.626-6.88.865-7.737 3.885zm69.7-19.36c-8.622-9.783 9.73-16.004 19.358-19.36-2.697 7.642-10.312 10.313-19.36 11.597 1.06 9.15 14.417-.355 15.5-3.86 8.093 2.42-14.344 16.16 7.712 15.476-14.235 20.172-1.483-8.234-23.21-3.853 19.758 18.3-28.963 14.14-34.84 30.956-6.35-12.91 22.99-23.344 34.84-30.96zm-23.22 27.103c1.163 8.925-11.19 4.285-11.62 11.622 2.367 5.724 19.836-9.428 3.858 3.86 1.136 7.89 10.46 7.588 11.622 15.474-5.498 6.53-14.945-15.778-23.244-19.334 5.827-4.543 9.48-11.196 19.385-11.622zm11.597 15.475c8.898 9.934 18.17-12.574 27.122-15.472-1.39-5.42-6.836-.33-7.74 3.86-8.214-1.188 4.06-13.436 11.597-11.597 1.943 9.654 7.338 15.907 11.623 23.218-.477 8.544-16.41 1.665-23.217 3.885 1.058-7.99 14.416-3.652 15.455-11.622-9.957-10.963-16.688 14.043-27.097 15.476 7.54 9.228 49.66 10.486 50.37 38.72-2.473-2.143-11.72-15.734-15.5-3.86-8.448 9.228 1.916-7.918 0-15.475-16.81-1.51-5.925 18.63-11.623 19.335-10.286-1.465-.503-28.684-23.244-27.097 2.62 8.7 14.216 16.836 3.885 27.097-11.597-2.523 3.73-8.266 0-15.475-3.305-.705-3.653 1.51-3.886 3.883-3.65-3.278-2.55-9.55-3.884-23.244-13.766 14.37 3.73-12.986-19.335-7.74 3.504-13.9 34.686-17.733 15.475-3.89zm-23.22-23.215c-4.587-16.21 22.716-39.603 50.342-46.456-17.54 17.015-35.695 20.97-50.34 46.455zm139.4-96.797c-21.398 8.9-53.618 25.587-69.725 27.097 6.408-24.877 43.584-34.228 69.726-27.097zm-23.263 15.48c-3.278 5.75-9.73 8.32-19.334 7.738.607 4.537 7.06 3.278 11.622 3.885-3.607 11.9-24.277 6.73-30.982 15.475 8.42 1.258 14.32 2.646 7.71 15.5 16.005-.4-5.975 3.704-11.595-11.622 17.115-15.346 13.663-27.445 42.58-30.975zm34.86 7.738c6.88 2.846.555 7.034 0 11.622 31.052-16.36 35.944 19.534 42.604 30.98-2.774 7.538-22.914-11.847-11.647-19.358-9.174 3.2-17.822-5.473-3.83-3.886-15.45-13.26-29.19-.4-46.483 3.885 5.446 11.394 29.465-11.32 30.982-3.887-2.014 9.53-13.817 8.95-30.983 11.622 5.795 9.002 9.454 5.898 19.36 3.885 5.975 2.04.25 4.034-3.86 3.86-4.414.755-2.168 3.885 0 3.885-1.233 5.24-9.706 3.2-15.5 3.86 18.25-10.08-14.39-13.08-27.097-15.476 19.43-9.597 43.352-15.218 46.456-30.996zM727.457 1546.5c-16.94 2.8 3.123-7.687-7.71-7.764-9.48.452-.86 12.803 3.832 11.648-6.075 6.853-13.82 23.722-23.22 15.455 3.65-18.278 12.93-30.93 23.22-42.58 8.57.48 1.662 16.436 3.875 23.24zm-15.474 46.436c.632-4.46-.858-6.853-3.885-7.712 10.286-13.08 24.025-34.182 46.456-23.244-2.497-3.956-8.9-4.007-7.71-11.596 6.026 6.35 15.1-1.336 23.217-3.885-10.96-3.784-19.253-.61-30.98 7.734-4.413-.755-2.14-3.904 0-3.86-1.69-5.775-4.942 1.51-11.62 0 4.665-10.685 8.42-16.21 3.884-27.122 9.628-.426 11.996-7.26 19.36 0-.608 4.537-7.06 3.252-11.623 3.86 2.368 3.452 4.666 6.93 0 7.736 23.444 12.83 64.757-4.615 77.463 11.647-27.826-.252-9.125 6.2-38.72 3.885-1.664 4.588-5.897 16.56-15.525 23.22.755 4.413 3.93 2.14 3.885 0 7.892 12.376 11.57 11.673 27.097 15.5-2.247 11.344-60.526-24.4-81.298 3.833zM564.845 1488.42c-6.576-1.464-7.286 3.027-7.737 7.713 9.48-2.142 14.165-9.073 19.36-15.474-8.545 15.6-25.233 34.102-19.36 73.575-19.81-7.615-9.125 1.213-19.36 11.596-3.277.73-3.65-1.51-3.884-3.86-.884-.856 9.3-5.973 7.763-27.12 4.737 1.717 7.918 4.988 7.737 11.648 8.396.657 1.762-13.74 3.885-19.386-17.35 18.656-12.354-38.086 7.71-42.578-1.867-8.82-7.668-19.785 0-27.097 2.55 3.632-.376 19.54 3.883 30.98zm-30.982-220.69c-8.118 3.375 5.595-19.74-3.878-7.737-5.498-4.64-1.536-13.287 3.878-23.263 2.724 6.446 5.02 21.043 0 31zm15.507 11.597c-3.627-2.168-5.872-10.738-7.737-3.885-10.893-7.39 5.317-20.166 3.86-30.98 6.55 5.122-5.1 24.553 3.877 34.865zm3.88-15.475c-10.08-5.42 2.8-20.037 3.858-27.122 1.084 10.486 6.027 20.018 7.737 38.72-4.537-1.944-8.04-32.83-11.596-11.598zm46.435-151.023c.73 3.3-1.51 3.65-3.86 3.882-.45 6.15-18.145 34.08-34.86 23.22 1.692 9 17.115 10.356 7.738 19.384-8.015-2.168-8.17-6.053-3.86-11.648-16.713 9.072-6.504 6.452-23.217 15.525-7.286 9.68 2.29-3.73 0-11.648-7.13 9.93-9.654 2.343-19.36 11.648 4.034-8.118 52.562-37.41 77.42-50.367zm-58.058-220.69c1.084-6.908-3.678-7.94-3.885-3.888-11.97-7.286 21.676-21.754 3.885-34.834 9.73-14.39 8.144 14.693 7.737 23.243 8.396.633 1.762-13.74 3.885-19.384-1.26 22.837 31.585 21.352 50.312 34.86 10.486-3.505-3.252-14.243-7.737-15.476 2.523-6.582 8.9-2.42 7.737 3.885 3.93-2.524 4.007-8.926 11.622-7.738-9.88 7.736 1.007 40.583-3.885 42.55-2.29 7.964-3.097-10.034-7.737-19.333-13.435 4.46-7.13-1.787-11.596 11.622-5.395-16.61-20.418-6.028-19.385-23.245-15.68 6.73-16.16-.754-23.218-3.86-8.04.983-1.084 16.993-7.737 19.336-10.564 2.827-7.79-7.666-15.475-7.737 5.498 26.192-21.4 19.913-23.264 38.72-6.455 2.844 12.427-45.374 3.883-58.054 3.783.077 3.028 4.71 3.886 7.737 6.58 1.413 7.31-3.026 7.736-7.737 9.62 4.58 4.658 23.714 23.23 19.326zm-11.642-42.58c8.37 3.28 13.713 9.53 11.648 23.243-3.756-.148-3-4.763-3.885-7.763-4.182.956-2.62 7.687-7.763 7.764-8.976 8.62 7.182-9.55 3.878-19.385-5.24 3.805-7.71 10.336-11.596 15.5-2.368-7.584 1.717-20.748 7.718-19.36zm120.06-425.93c4.84.98 3.905 7.71 0 7.76 17.618 7.286-2.948 28.71 3.86 58.08-4.943 5.393-18.96 1.69-19.36 11.62-5.194-.78-7.207-16.08-7.762 0-7.563-1.187 6.602-44.06 7.763-61.963 3.227-12.3 5.09 6.878 3.885 11.62 8.52-.477 1.616-16.435 3.86-23.243 4.505.64 6.9-.852 7.758-3.878zM611.3 528.192c.73-4.414 3.887-2.168 3.887 0 28.787-9.55 41.416-23.063 85.175-23.244-28.51-19.966-56.82 7.563-81.296 11.622 13.71-27.573 61.504-21.103 89.032-34.833 7.563 1.637-6.324 11.04 11.648 7.735 10.964 23.315 2.27 37.886 19.334 58.078-20.998 3.607-17.294 18.63-42.604 15.475-1.233-12.3-3.2-13.108-19.334-7.74-.478-15.96 30.272-.702 34.84-11.62-19.785-10.66-39.448 2.974-65.815 7.736-1.84-12.15 10.435-10.235 11.596-19.334 16.81 5.066 11.693 3.4 15.5-7.763 5.646 2.14 20.01-4.51 19.36 3.884 9.427-4.006 9.427-15.35 0-19.36-4.39.73-2.17 3.887 0 3.86 1.186 7.867-11.19-.78-11.597-3.86-7.208.583-2.42 13.108-7.763 15.477-23.54-7.665-29.29 12.96-61.963 15.5-.806-6.627 6.61-10.027 0-11.615zm58.08-151.022c2.065 3.124 4.033 6.306 3.885 11.65 3.627-2.87 5.847-7.06 7.763-11.648 7.208 18.63-1.813 25.057 11.596 42.604h-19.36c2.55 5.195 8.293 7.208 15.5 7.737-11.24 7.234 1.743 37.686 7.712 42.578-3 3.453-4.162 8.745-3.86 15.527h-19.358c4.007-35.64-18.172-56.64 7.763-69.726-2.72-11.924-2.72-7.407 0-19.36-1.16-8.064-10.51 5.75-11.646-7.71-3.052 10.184-4.033 16.637-11.622 0-3.503 1.034-10.26 17.14-3.86 15.476-8.82 7.234-13.285-10.938-7.735-23.238 16.888 11.743 24.096-32.72 42.604-19.36-6.924 5.185-10.48 23.92-19.38 15.472zm-46.43-34.833c14.37-1.485 10.106 15.68 27.097 11.62-5.42 7.487-18.404 7.41-19.385 19.335-8.343-8.215 3.912-14.39-3.877-23.218-17.598 6.905-17.165 31.866-30.956 42.604 1.16-16.715 16.46-29.396 27.12-50.34zm7.71 46.48c4.26-11.848-.754-27.73 27.098-23.244-16.03 4.362-20.295 14.597-19.334 27.097-9.88-.477-15.023-5.62-15.475-15.5 8.24-1.813 7.362 5.55 7.71 11.648zm23.246-85.2c-9.228-8.447 7.918 1.942 15.475 0-1.36 30.852-73.783 29.568-61.935 0 11.924 15.45 44.397 9.428 46.462 0zm-3.86-131.638c11.823 4.484 19.56 37.382-11.62 34.84-12.3-3.253 6.852-5.093 11.62-3.886 1.51-9.28-17.642 2.142-11.62-11.596 11.9-2.723 7.407-2.723 19.333 0-26.09-19.03-19.587-3.93-54.195 3.885 18.655-26.522 15.247-6.904 46.48-23.244zm-11.62 42.577c10.408-7.208-4.944 11.77-7.764 15.475 13.74-5.24 7.667-6.253 23.245-7.737-4.69-8.467 9.428-24.903 23.244-27.07-.98-4.892-7.685-3.93-7.762 0-12.455-4.39 3.73-11.068 11.648-7.764-6.602 14.443 2.272 6.125 3.86 19.36-21.554-18.3-7.21 9.428-11.623 19.36 7.21-.53 12.96-2.55 15.5-7.738 6.983 7.034-15.5 16.785-15.5 19.36-5.316 7.18-2.22 10.034 3.886 11.62 1.11 6.254-3.653 6.654-3.886 11.597-4.76-1.69-7.936-4.944-7.762-11.597-10.485 3.504 3.28 14.242 7.764 15.48-8.543 4.944-28.683-7.64-34.833-3.884-9.124-.053 1.414-10.565 7.738-7.738-7.433-9.325-18.17-15.378-27.096-23.244 2.04-3.098 4.034-6.28 3.886-11.596 6.085-.33 14.732 1.84 15.462-3.885zm65.82 30.982c12.1-1.188-9.828 11.19 3.86 11.62-6.073 14.14-5.796-9-15.476-3.884-8.397-.66-1.743 13.738-3.86 19.358-3.782-.103-3.027-4.737-3.885-7.737-5.092 4.64-6.098 1.51-11.622 0 15.25-4.587 4.44-12.802 15.5-23.217 2.42 2.143 11.7 15.708 15.482 3.86zm-123.9-54.2c8.17 15.777 25.335 1.212 27.097 19.36-12.23 1.89-13.687-6.984-27.097-3.88-.73 3.304 1.51 3.652 3.885 3.88-1.41 6.05-6.85-3.403-7.76 3.857-8.37-6.427 15.377-10.41 3.877-23.218zm131.638 3.884c.58-9.654 13.106-1.162 15.475 0-.4 5.143-7.26 21.328 0 11.596 6.806 3.357-5.32 20.167-7.71 27.098-1.21-6.68-5.9-28.31 3.83-34.834-.608-4.543-7.06-3.28-11.597-3.86zM622.95 241.68c3.122.704 3.832 3.86 7.71 3.86v7.737c-12.125 4.31-10.21 1.812-19.36-3.86.91-5.595 11.57-1.362 11.65-7.737zm19.333 46.457c1.233 9.28-26.845 20.694-27.097 3.884 9.68 9.73 15.197-4.46 27.097-3.883zm73.578 0c8.47 11.266-4.84 33.73-11.62 42.577-6.246-17.598 11.275-21.91 11.62-42.578zM684.89 315.24c2.142-11.218 6.027 5.922 11.596 3.86-2.594 7.71-11.77 8.87-15.455 15.5.406 9.45 12.783.804 11.595-3.888 6.35 2.897-4.614 20.895-15.48 19.36 7.233-7.364.4-9.732 0-19.36-7.687 7.337-6.628 13.584-3.886 23.244-6.93-.503-8.17 4.71-15.5 3.86 2.193-26.93 30.606-27.207 27.13-42.578zm27.097 27.095c-6.834 17.57 5.846 20.113-19.36 34.833-8.395-11.19 16.94-21.626 19.36-34.835zm11.596 50.34c9.93 7.685-9.783 18.326-15.475 23.217 2.62 8.466 12.855-7.337 15.475-11.596 5.42 14.9-17.193 21.754-27.1 27.098 1.388 5.42 6.835.33 7.764-3.885 8.647 2.825-8.544 11.673-7.763 19.36-9.503-15.3 16.664-36.274 27.1-54.195zm-3.833 27.096c9.505 12.327-19.004 19.586-19.385 34.835-8.57-11.344 14.773-23.793 19.387-34.834zm3.833 11.623c5.922 8.7-19.536 19.004-23.22 30.982-3.904-6.686 14.545-24.025 23.22-30.982zm-15.483-50.34c.148 4.916 1.762 21.475-15.475 23.237.78-12.124 9.983-15.83 15.475-23.237zm154.875 69.7c-3.53 10.512-13.54-3.956-19.334-3.885-33.376 7.484 8.066-11.72 19.333 3.884zm-3.878 7.737c-5.62 9.83-23.47 7.487-27.07 19.36-6.454-2.975 7.13-18.353 19.333-15.475-5.143-11.017-17.217 2.974-23.218 3.858-9.128 5.26 17.39-21.785 30.953-7.743zm-3.86 11.597c11.217 8.448 25.11-13.46 46.457-7.71-14.9 14.77-49.43 9.93-61.935 27.097-8.195-1.213 4.06-13.435 11.596-11.622-3.883-15.378-17.112 17.043-15.473-3.885 20.295-.355 24.528-16.765 46.482-15.475-7.41 5.517-16.81 8.996-27.123 11.596zm58.105-7.717c2.973 15.778-66.198 25.864-61.984 30.956-13.99-14.824 50.992-15.502 61.982-30.957zm-54.247 34.84c15.378-12.428 47.895-25.986 69.726-19.358-25.21 4.484-47.218 12.176-69.726 19.36zm69.72-11.596c-15.553 8.647-87.396 22.76-30.982 0h30.98zm-69.72 27.07c4.207-14.118 83.917-17.797 38.745-11.595-11.875 4.083-30.35 16.182-38.746 11.594zm65.84-3.85c2.776 10.51-18.248-2.776-15.474 7.736-5.646-1.716.38-3.4 0-7.737-12.203-1.865-15.15 5.517-23.244 7.737-3.355-9.583 22.457-12.855 38.72-7.737zm-3.884 27.096c-3.375-7.563 30.252 9.654 30.982 23.244-10.66-7.415-18.927-17.198-30.982-23.244zm-96.797 0c19.16 31.607 1.06 43.055 0 0zm11.622 3.878c6.93-.502 8.17 4.738 15.475 3.86-5.14 6.48 1.415 24.65-11.594 23.218 2.245-12.558-2.64-17.998-3.88-27.077zm46.482 7.745c8.066-10.338 18.475 9.654 30.982 7.737-5.17 16.055-21.93-4.137-30.983-7.737zm-23.263 0c8.62-2.142 5.517 7.39 11.648 7.737-2.846 6.905-7.06.555-11.648 0-2.852 11.925 10.66 7.46 7.763 19.36-12.55 4.787-2.975-12.527-15.5-7.764 1.658-7.363 8.343-9.705 7.737-19.333zm23.263 30.975c.58-9.628-2.013-16.08-7.737-19.36 6.455-17.52 15.657 22.232 15.457 0 7.686.053 4.97 10.565 15.5 7.712-13.99 7.408-1.613 11.12 0 23.244-9.454 9.88-21.857-11.467-3.885 0 .583-10.886-9.47-11.164-19.332-11.596zm-232.312-19.36c5.776 8.396 22.205 6.176 23.218 19.36-13.635-7.79-25.232 14.596-34.834 23.217 14.622-8.62 28.406-18.05 42.603-27.097 5.724 3.304 8.318 9.73 7.737 19.36-9.2 2.42-18.047 5.194-19.383 15.474-9.325 1.587-8.42-7.06-19.334-3.86 1.336-5.09 6.808-6.07 7.71-11.62-9.098 1.212-7.18 13.434-19.333 11.62-8.17-8.09 5.09-14.57 11.62-19.358-3.78-3.956-7.665-7.84-11.62-11.622-1.162-10.176 15.023-3.045 11.616-15.474zm7.718 65.822c3.427 12.43-12.758 5.317-11.596 15.475 18.908-.355 11.422-15.63 15.475-23.244-10.01 10.34-4.06-8.9-19.36-3.86 1.943-13.432 21.606-1.965 27.098 3.86 4.364-3.476-.25-8.645 7.765-15.473 6.905 2.846.555 7.034 0 11.622 11.745-8.95 22.438-7.01 27.097-7.738 7.39 17.825-30.703 23.42-38.744 38.72-5.698-11.015 23.393-20.392 34.86-27.122-30.226-2.013-46.734 32.188-61.937 50.34 15.18-3.53 61.66-48.9 42.605-27.096-11.345 12.958-30.2 33.047-58.078 42.604.632-4.51-.884-6.88-3.885-7.737 14.12-14.32 4.44 11.746 15.476 0-2.846-14.52-5.446-24.902 7.737-30.98-1.136-9.23-10.486 4.31-11.622 7.736-10.84-.052 9.23-10.564-7.71-7.737 14.12-12.58-8.873-13.057 3.833-38.72-9.505 8.143-6.653-9.048-11.596-23.22 8.195-1.16 4.44 23.245 19.36 23.22-17.85 13.712 11.118 7.562-7.764 15.474.4 9.957 14.442 6.227 19.385 11.622 4.867-.955 3.905-7.686 0-7.737 2.857-6.92 7.045-.59 11.608-.01zm-38.7 73.553c7.866-9.15 7.034-4.943 23.218-7.737 8.093 6.098 6.81 21.58 15.476 27.097-9.68 11.648-18.908-6.853-11.596-15.475-15.5 2.75-.224 18.172-7.735 23.244-15.326.632 1.213-5.976-7.763-11.648-7.207 5.672-4.56 21.25-19.358 19.385 2.923-20.59 5.776-33.525 0-58.08-3.782.104-2.975 4.738-3.86 7.738-12.983-3.53-1.94-7.21-3.884-19.386 3.452 3.027 8.75 4.182 15.5 3.885-6.318 6.27 3.44 16.203.006 30.974zm81.297-15.475c-6.322 5.872-.1-9.3 3.887-19.385 3.427 3.027 8.744 4.182 15.5 3.885 3.278.703 3.633-1.51 3.833-3.885 7.51 14.545-30.376 10.26-23.22 19.385zm-15.473 23.212c10.512 3.504-8.847 8.673-7.737 15.5 10.634-8.17 5.95 5.092 3.884 11.622 9.757-2.62 6.834-12.855 3.86-15.5 8.698-7.537 20.417-12.074 11.595-27.097 6.53-8.976 21.5-9.505 27.094-19.36 8.466 2.62-7.31 12.88-11.596 15.476 1.232 8.24 11.97-5.515 15.474-7.71 2.8 11.926-25.36 26.14-34.834 38.694 19.967-7.11 27.53-26.645 46.457-34.834 4.207.955 2.62 7.686 7.763 7.737-4.414 11.32-21.173 7.486-11.622 23.218-16.462-3.53-19.488 6.35-23.238 15.5 11.19-12.906 28.64-9.402 34.86-19.36 7.234 15.127-30.272 18.657-42.604 27.098 22.69 4.26 49.683-22.23 65.815-27.097-3-3.452-4.16-8.744-3.884-15.475 6.93-1.11 7.937 3.654 3.885 3.86 3.63 2.066 21.45-2.75 27.1-3.86 5.42 1.364.354 6.81-3.886 7.74 15.378 5.09 3.86 4.64 30.982 7.735 7.537 5.266-23.54 4.588-30.982 7.737 7.434 9.35 20.192-5.594 30.982 3.886-8.015 8.744-21.45 12.074-34.834 15.475 6.628 8.848 29.543 1.44 42.598 3.886 10.34 6.88-22.69 2.826-30.98 3.86-8.293 3.05-21.65 9.4-27.098 3.883.63-4.537 7.06-3.278 11.62-3.885-4.787-11.745-13.33 4.207-23.263 0-1.79-8.24 5.54-7.363 11.646-7.737-3.375-11.266-5.795-4.335-15.5-3.86-7.563 15.128-11.016 19.387-27.097 19.36-.66 8.397 13.74 1.743 19.36 3.86-21.278 1.007-12.024 22.638-34.84 34.86-.983 7.866 14.137 18.78 19.357 7.737-3.375-5.846-5.795 1.058-15.475-3.885 6.228-11.9 18.605-5.446 27.098 0 4.363-.73 2.143-3.885 0-3.86.633-4.536 7.06-3.277 11.597-3.884-5.472-11.32-25.206 10.615-23.218-11.596 14.72 5.596 1.966-16.86 30.954-19.384-2.826-3.607-7.008-5.872-11.622-7.737 5.446-11.294 13.358 6.85 23.264 3.884-4.233 7.13-30.575 11.9-11.648 19.36-2.827 6.878-7.01.554-11.623 0-3.123.702-3.86 3.884-7.71 3.884 15.248 1.51 14.52 19.004 30.98 19.334 4.614 6.706-29.09-3.374-30.98 15.476-3.705-8.7-12.527-7.208-19.386 0-8.976-2.594-10.357-12.855-19.36-15.475 1.72-4.76 4.97-7.936 11.65-7.736-3.68-6.982-28.18 1.11-7.764-7.737-3.807-10.84-10.338 5.62-15.5-3.86 9.402-11.492 21.25-12.854 30.982-7.762v-11.622c-10.84 9.047-18.883 3.607-34.835 11.622.503-6.956-4.737-8.17-3.86-15.475 5.067-4.665 6.073-1.51 11.597 0-1.137-9.02-10.462-9.02-11.597 0-8.82-6.58 8.195-19.913 19.334-19.358-6.88-10.357-25.51-.052-23.22 11.596-11.57-10.61-2.55-17.87-11.622-30.98-12.1 19.385-21.805-24.754-3.885-30.956-3.904-2.547 1.968 32.623-7.737 19.36 1.513 16.508 15.755 11.52 23.24 3.853zm38.693 112.304c11.492-7.79 28.083 1.007 34.86-3.885-.104-3.757-4.738-3-7.738-3.886 7.26-7.815 36.047 9.073 38.72 23.244-5.725-4.486-9.758-4.486-15.482 0 3.807 10.866 10.338-5.62 15.48 3.884 7.338-.426 2.698-12.803 11.623-11.622-5.117-2.117-16.714-27.6-19.36-7.737-3.78-.13-3.025-4.737-3.858-7.763-.658-4.537-7.06-3.252-11.648-3.86 17.72-14.015 32.595 12.856 34.86 7.738 11.72 4.738-2.75 14.772-3.885 19.36 17.824-4.11 33.15-10.738 50.34-15.475-22.333 17.365 16.463 24.625 15.476 50.34-9.88-10.537-17.946-16.964-34.834-11.647 8.62 8.144 17.895-3.278 27.097 7.763-5.67 5.422-31.38-1.967-42.575-3.884 3.4 6.853 17.165 6.4 7.71 15.5 18.405-1.64 27.956 5.62 42.605 7.737-10.79 11.145-31.183 12.68-38.72 27.123-5.595 2.117-20.018-4.537-19.36 3.833-4.97-10.26 30.55-13.21 38.746-23.22-1.387-5.066-6.834-6.07-7.763-11.596-5.724 1.665 1.51 4.943 0 11.596-7.892-1.134-7.59-10.46-15.5-11.594-2.29 10.06 1.587 13.94 11.648 11.596-12.1 11.72-20.72-3-46.454 3.886-13.713-14.797-27.374-49.986-42.604-50.34-5.394-13.99 21.4-4.815 30.983-15.476-.73-3.15-3.878-3.885-3.878-7.737-3.782.077-3 4.71-3.885 7.737-7.41 1.787-16.663-11.95-15.476 3.86-20.773.147-28.058-13.236-34.84-27.098 4.766 1.693 7.94 4.94 7.715 11.624zm19.384 34.834c22.03 1.942 7.71 16.16 15.475 30.98-3.76-.102-3.004-4.736-3.888-7.736-4.414 1.362-9.81 6.808-3.86 7.737-14.32 7.614 4.034-18.05-3.858-27.124-4.537.658-3.278 7.086-3.885 11.648-5.285 12.346-5.285-15.177.013-15.506zm116.13 38.72c4.44.754 2.17 3.884 0 3.884-.677 3.304 1.51 3.652 3.886 3.86-3.375 5.846-5.795-1.06-15.475 3.884.103 3.756 4.737 3 7.737 3.885-13.235-1.21-22.915 9.456-42.578 11.598 6.35 11.066 20.973-1.866 27.097-3.886 31.185 13.766 11.47 2.873-7.734 7.764 5.846 5.75 16.965 6.227 27.07 7.737-1.032 11.346-5.316 14.37 0 19.36-6.555 10.06-17.97-7.51-30.955-3.885 7.408 6.808 20.19 8.215 30.956 11.622-10.183 11.216-22.083-8.673-38.72-3.885.356-5.472.66-10.938-3.832-11.596 5.595-5.978 15.075-8.12 27.097-7.74-18.423 6.454-4.46 10.107 11.597 11.597-.607-4.537-7.06-3.252-11.596-3.86.633-4.536 7.06-3.277 11.597-3.858-9.93-14.624-47.314-1.743-50.34-23.265 25.663-.154 39.93-11.698 54.2-23.217zm-7.737 85.2c-.678-3.304 1.51-3.652 3.885-3.885-3.504-4.362-8.673.226-15.475-7.737-8.466 2.62 7.337 12.855 11.596 15.475 8.847 1.086 14.545-.934 15.5-7.735 10.486 3.504-8.847 8.673-7.763 15.475-15.126-5.517-23.367-17.895-34.834-27.097 6.945-9.604 57.44 10.866 27.09 15.506zM789.42 752.764c-15.204 17.294 22.386-10.106 15.475 15.475 4.537-.635 3.278-7.06 3.885-11.625 14.468.355 11.04 4.336 23.238 0-12.1 17.114 1.536 11.422 15.475 15.5-4.588 10.435-20.192-.026-27.122 0 3.53 6.808 13.587 7.06 19.388 11.596-4.866 7.738-26.568-11.72-30.982 3.886 3.504-15.223-35.39-.73-38.72 0-10.182-11.57 8.17-2.827 15.5-7.737-.606-7.157-13.13-2.394-15.5-7.737.782-5.195 16.082-7.208 0-7.763 5.802-4.484 9.46-11.19 19.366-11.595zm-139.374 3.86c2.04-3.1 4.033-6.28 3.86-11.623 12.15 4.39 10.234-1.11 19.358 3.888-7.763 14.668-11.32-5.898-23.218 7.737zM626.782 745c.452 7.435 12.984-4.536 23.264 0 .478 6.957-4.762 8.17-3.885 15.476-3.023-6.324-12.852-21.25-11.62 0-11.82 2.826-14.12-3.93-23.243-3.86 18.075-10.563-8.925-16.584 30.982-23.217-1.054 7.95-10.327 7.72-15.496 11.6zm-23.218 19.36c4.97 4.007 9.957 40.732-3.885 38.72 3.094-8.926 3.25-12.804 3.882-30.957-6.576-1.44-7.31 3-7.737 7.737-12.758-5.768 6.575-10.91 7.737-15.5zm27.096 7.764c8.7-2.975.13 30.097 7.763 15.475 14.668 6.6-8.42 6.373-7.763 11.62-6.653-1.214 5.04-13.436-11.596-11.62.103 3.78 4.737 3.023 7.71 3.882-2.974 3.427-4.16 8.744-3.832 15.475h-11.648c8.518-16.237-9.628-35.242 7.763-42.605-4.033 3.678-3.556 19.966 7.71 19.36-9.44-15.32 5.81 4.34 3.893-11.59zm174.235 30.955c5.517-15.155 31.607 13.103 23.244 0 1.69-5.75 4.94 1.533 11.62 0-5.42 6.2-13.36 9.903-23.22 11.62.104-3.757 4.718-3 7.71-3.886-3.044-14.493-13.504-.225-19.357-7.737zM646.167 903.76c-.936-21.023-6.2-37.685-3.885-61.962-8.9 9.176-1.387 34.79-3.86 50.34-9.653-17.164-12.776-67.834 7.738-85.174 4.007 14.997-2.013 15.96 3.885 27.097 12.248-33.773 2.065 14.32 15.455 11.625-8.42 16.08-13.686 41.087-19.333 58.078zm11.597-27.096c7.918 16.385 9.228 34.51 0 50.34-11.345-3.277 5.04-9.756 0-19.358-3.756.103-3 4.737-3.86 7.712-4.11 1.91 1.162-24.478 3.86-38.694zm-58.08-27.103c.756 3.126 3.905 3.86 3.886 7.715 3.53-2.62 2.194-16.914 19.385-15.475v15.474c-10.06 6.705-12.203-5.672-7.763 11.648-14.545 2.924-13.106-10.13-19.36-15.5-11.44 3.357 9.003 5.796 3.86 15.5-10.21 1.162-9.983-8.09-11.596-15.5 19.688-6.35 8.847-23.817 27.097-34.833 7.537-1.92 13.94 19.21 0 15.473 2.065-3.097 4.033-6.28 3.885-11.596-10.65 4.812-8.332 22.662-19.393 27.095zm77.458-15.5c.703 4.417 3.885 2.145 3.885 0-3.278 12.88 8.092 41.167 7.737 30.984-18.146 1.968 7.434 29.975-15.5 27.097 10.59 68.44-9.706 1.787 0-19.334-10.383 16.184-1.994-48.398 11.622-61.982 10.512-2.75-2.775 18.275 7.737 15.5-2.846 6.905-7.034.555-11.596 0 .607 4.485-.858 6.905-3.885 7.738zm38.72 19.36c-6.15 6.784-5.196 20.646-7.764 30.98-13.158-18.6-14.468-42.27 23.244-50.34 9.88 6.88-2.575 36.15 7.737 42.606-13.74.852-12.18-4.29-23.22-23.244zm-220.69-7.735c5.265-9.957 3.677 19.16 7.71 23.244-18.45-.51-5.11-8.777-7.71-23.245zm81.295 7.737c1.11 6.28-3.652 6.68-3.885 11.623-1.917 9.783 19.237-10.79 15.5 7.763-3.097-2.697-10.615-6.027-11.622 0-8.26 2.272-14.06-23.14.007-19.385zM499.03 915.36c-4.39-.703-2.17-3.885 0-3.833-7.868-25.083 13.027-51.322 0 3.833zm255.53-23.218c10.512 5.194-.98 29.316 15.5 58.077-4.537-.608-3.278-7.06-3.885-11.597-4.737 1.667-7.937 4.945-7.737 11.598-5.24-1.212-3.228-9.68-3.886-15.474-6.2-1.665-12.984 14.442-3.86 15.475-1.36 5.447-6.833.33-7.736-3.884-7.892 4.69 1.89 16.74-15.5 19.385.503 10.713 7.408 13.288-3.885 7.738 1.164 33.4-12.453 52.05-15.473 81.297 11.822-44.164-13.79-123.822 23.244-150.99 4.815-3.555 34.738-2.167 23.22-11.62zm-116.137 11.62c8.9 6.557 5.117 25.84 15.475 30.982-9.978 9.725-15.65-17.72-15.476-30.98zm11.622 42.572c1.336-5.42 6.808-.33 7.71 3.885 3.628-2.847 5.9-7.035 7.738-11.597 6.556 7.643 4.233 24.175 7.763 34.836-9.983-9.326-5.795-21.25-19.36-19.386.66-4.484-.85-6.853-3.85-7.737zm-58.08 205.216c9.403 5.543-13.886 23.948-3.884 30.98-7.31 9.758-3.65-13.512-7.735-11.595 6.608-3.704 8.473-12.202 11.622-19.385zm-69.7 34.867c-11.97-5.04 11.12-5.117 7.713 3.86 3.33.702 3.65-1.51 3.877-3.86 7.71 2.594-3.807 12.855 3.885 15.5-3.782 6.227-10.338 8.873-15.475 3.833 2.826-3.58 7.034-5.847 11.596-7.712-2.14-5.575-6.02-9.46-11.594-11.62zm50.316 7.737c-.1 3.756-4.71 3-7.735 3.885 7.034 10.337 8.04 11.144-3.885 23.22 2.87 3.625 7.06 5.87 11.62 7.76-3.374 5.82-5.794-1.085-15.474 3.858 5.776-17.546-10.66-13.61 7.737-27.122-1.032-9.1-14.39.38-15.475 3.885-4.415-.727-2.143-3.883 0-3.883-16.79-12.133 12.423-1.273 23.212-11.604zm251.674 19.36c10.286 1.94-13.306 22.107 0 27.096 13.235-2.775-17.643 1.787-3.885 7.737-14.463 7.183-2.163-27.626 3.883-34.834zm-46.43 27.096c4.285 1.69 9.628 27.53 11.596 7.737 9.4 13.842 30.85 15.604 34.833 34.86-3.427 1.742-6.905 3.4-7.71 7.737-15.682-13.254-50.013-22.327-38.72-50.334zm27.07 240.05c-2.09 5.62 4.538 20.018-3.858 19.36 12.1 6 13.287 22.837 19.334 34.833-5.7-2.01-9.73-5.722-15.476-7.735-6.627-18.882 1.942-35.44-11.622-65.79 7.286 1.233 24.877 14.9 19.385-19.385 9.428-2.447 8.473 49.256-7.763 38.718zm-11.615 11.648c-5.726-5.446-8.32-12.403-7.713 3.833-3.93-2.473-4.033-8.874-11.622-7.713 2.523-10.357 11.093-14.745 15.48-23.244 16.38 5.847 7.1 13.28 3.853 27.123zm-332.97 150.99c-8.144 9.88-28.56 7.563-46.456 7.737-2.143-4.936 31.407-7.182 46.456-7.737zm77.437-1153.82c7.815 6.808-10.912 19.837-3.885 38.72-8.04-2.17-8.19-6.028-3.877-11.623-3.278-.703-3.627 1.51-3.833 3.86-10.157-9.132 10.59-20.122 11.596-30.957zm197.473 720.15c14.12-17.017-8.396-23.722 11.622-34.834-.226 4.97-4.988 5.37-3.885 11.622 6.88-.884 19.385 3.904 15.475-7.763-18.275-4.03 17.875-50.14-3.885-65.814-6.124 10.21-2.846 13.486 3.885 3.884-8.292 9.784 3.078 39.223-11.596 42.605.884-6.906 7.39-15.18 0-23.245-8.673 11.997-2.523 38.77-23.264 38.72.632 14.694.148 24.528-7.71 11.62 3 9.908 3.832 21.955 11.595 27.1 2.394-10.487-4.917-30.73 3.885-34.86-1.362 15.403 4.814 38.415-7.763 42.603 11.42 9.783.83 14.694 11.646 15.475-1.742 8.847-13.66 27.323-3.878 34.86 7.104-21.65 30.877-49.154 42.596-54.193-2.117-5.62 4.485-20.018-3.878-19.36-15.18 5.5-19.515 21.806-30.982 30.982-.226-8.196 8.847-32.466 3.885-27.097-.84 4.296-4.32 5.986-7.75 7.696zm30.955-34.834c-3.653-21.224 14.19-43.76 7.763-69.674 0 2.142-3.15 4.388-3.88 0 .885-3.026.104-7.666 3.88-7.763 11.518-4.64 4.942 27.98 11.62 15.475-6.175-17.365 1.51-28.787-3.884-34.834-.807 4.692-4.31 2.368-7.737 0 2.574 27.574-8.72 9.628-15.5 15.475 21.83 12.205-4.46 42.954 11.62 54.195-11.795-.4-16.635 25.87-3.884 27.128zm46.482-762.753c8.22-18.883 37.583-16.637 54.193-27.1-23.462 1.106-58.774 10.785-54.192 27.1zm-224.57-11.623c-.63 4.562.68 10.99-3.858 11.622-.957-5.95-6.404-.583-7.765 3.857 11.545 1.233 19.03-2.543 19.36 0-.582-10.84 15.83-20.566 23.243-15.475-12.1 1.188 9.827-11.19-3.886-11.595-10.615 3.58-13.66 14.694-23.218 19.334.833-4.872 6.028-7.924-3.878-7.743zm-7.743 81.316c-.555-13.66 18.553-27.626 11.622-34.86-2.29 10.086-27.8 43.204-11.622 34.86zm0 127.752c16.514-16.765 11.52-23.193 15.475-27.07-12.78-5.293-24.45 21.12-15.477 34.814-2.09-5.57 15.075-9.43 3.885-11.598-.227 2.343-.607 4.59-3.886 3.853zm-46.482 69.726c-2.142 5.545-6.027 9.43-11.596 11.598-3.982-5.092-3.807-14.268-7.763-19.36-11.093.73-23.115 20.444-19.334 23.245 9.73-5.976 14.692-13.965 15.473-19.36 11.093 15.805-20.67 22.135-27.097 23.22-3.072 13.383 4.285 16.358 7.737 23.243-4.588-.58-8.796-6.905-11.622 0 7.51 9.002-4.187 39.396 7.764 61.937 5.498-16.21 8.17-29.44 27.07-42.578-2.974-.858-7.614-.103-7.736-3.885 8.065 2.063 8.214-15.1 3.884-3.86-7.59 3.477-10.764 26.29-23.218 19.36 22.386-18.858 3.73-43.664 30.956-54.22-2.117 5.62 4.51 20.017-3.885 19.36-9.376-11.876-2.42 4.457-7.737 3.883-2.14-13.66-11.673 13.66-3.884 0 7.408 7.26 7.034-2.29 19.385 0-5.29 4.943-5.29 18.275 0 23.218-7.31 5.62-20.14 5.7-23.243 15.477 40.848-6.587 28.27-77.572 34.846-81.276zm-15.472 11.6c-7.687 7.816-18.302 12.656-23.22 23.22-5.214-5.473 7.59-25.743 23.22-23.22zm15.473-135.515c5.317 8.82-9.957 14.545 0 15.475 6.027-13.107 18.45 19.662 23.244 7.762-7.26-.936 2.194-6.376-3.86-7.763-6.93 10.39-10.51-15.025-19.384-15.477zm42.604-42.604c-6.027-.302-2.672 11.268 0 3.886 2.168-8.744 6.053 4.69 11.622-3.885.352 6.35-6.456 16.863 0 7.738 3.05-.426 11.716-12.777 3.882-11.596-4.033 9.757-15.378-6.253-19.385 0 2.367.233 4.606.58 3.877 3.86zm-61.963 92.946c3.2-17.27 9.906-27.703 7.763-34.86-.226 2.368-.607 4.588-3.885 3.885 0-2.14-3.15-4.387-3.885 0 11.403 4.653-10.783 20.238.007 30.976zm42.604 65.815c2.775-4.135 15.1-17.85 3.86-23.243-3.557 7.312-20.65 17.927-3.86 23.244zm-7.738 34.835c-6.15 10.21-2.872 13.513 3.885 3.885 4.336-7.738 20.166-39.378 11.596-34.835-5.546 9.925-6.43 24.496-15.48 30.95zm271.006 139.4c8.42-2.774 21.58 13.288 34.86 3.886-8.9-4.84-17.824-11.995-23.218 0-3.427-12.454 10.035-8.04 11.622-15.5-10.26-.89-29.995 8.31-23.264 11.616zm-15.48 3.88c-10.842-1.51-54.123-16.837-46.457 0 9.15-9.474 32.92 8.29 46.453 0zm-154.85 27.102c8.292-13.565 6.93-32.014-3.885-34.86 7.14 13.584-3.624 21.625 3.888 34.86zM510.652 892.14c6.072 2.696-3.2 17.642 3.86 19.384 3.73-7.918 7.917-15.352 11.647-23.263-5.805.68-14.33-1.385-15.51 3.88zm232.312 375.59c0-1.613 21.076-4.44 11.596-11.622-2.8 4.085-11.622.426-19.334 7.737 13.713 16.836-20.166 24.832-3.878 42.578 14.52-17.85 40.61-19.966 65.815-19.36-12.48-8.77-41.59-10.66-38.72-23.217-1.037 3.504-14.395 12.983-15.48 3.884zm-236.197 42.578c7.157-9.828 11.72-26.47 23.218-11.596-1.31-23.012-10.357-2.62-27.097-3.885.277-5.42-.832-14.823-3.86-7.763 6.255 12.003 3.35 15.05 7.74 23.244zm220.69 69.7c-12.758-9.757-5.543 7.815-3.885 15.5-3.885 0-4.588-3.15-7.71-3.885 8.065 20.798-10.894 62.163-3.88 81.297 9.732-16.662 20.115-33.956 30.983-58.078-1.084-60.8-6.376 26.393-23.218 30.98 4.46-39.273 15.578-30.98 15.475-65.815-6.705 2.343.303 18.38-7.763 19.334 3.475-28.03-1.416-39.02 0-58.075-.91 7.286-6.35-2.168-7.714 3.885 1.03 5.414-.254 25.935 7.71 34.86zm-259.41 58.053c-18.074 45.93 12.152 9.554 3.86-11.593-.832 3-.077 7.64-3.86 7.737.027-2.142-3.122-4.388-3.884 0 2.375.226 4.614.58 3.885 3.86zm-42.577 151.045c15.88-.884 25.335-8.215 34.84-15.5-12.15-2.646-15.804.426-19.36-3.885 5.422-2.698 18.025-17.618 11.623-19.335-11.925 10.035-15.403 28.484-27.103 38.72zm429.766 7.71c5.117.053 3.556 6.81 7.737 7.764 3.15-8.397 33.48-9.907 23.244-11.65-13.435 5.854-21.476-3.323-30.98 3.885zM409.97 1600.7c-13.86-10.384-27.574 14.318-42.604 3.884 5.22 18.146 38.396-7.363 42.604-3.885zm-65.816 27.096v7.737c3.878 0 4.588 3.15 7.737 3.885 8.044-14.14 1.54-18.882 11.625-30.98-10.59-2.827-7.815 7.685-15.48 7.762-.86 7.31 4.36 8.544 3.858 15.455-3.857.05-4.587-3.104-7.736-3.86z"/></svg>