<svg id="Capa_1" data-name="Capa 1" xmlns="http://www.w3.org/2000/svg" viewBox="0 0 30.05 30.05"><defs><style>.cls-1{fill:#990;}</style></defs><title>outgoing</title><path class="cls-1" d="M25.65,25.65a15,15,0,1,0-21.25,0A15,15,0,0,0,25.65,25.65ZM6.18,6.18a12.52,12.52,0,1,1,0,17.7A12.52,12.52,0,0,1,6.18,6.18Z" transform="translate(0 0)"/><path class="cls-1" d="M20.06,10.11l-0.66,7s0,0.94-.49.42l-1.79-1.79-0.78.78-4.8,4.81s-0.2.34-.61-0.07L8.41,18.74a0.34,0.34,0,0,1-.06-0.51l4.81-4.81L14,12.6,12.32,11c-0.64-.64.37-0.54,0.37-0.54s6.12-.86,6.87-0.86A0.5,0.5,0,0,1,20.06,10.11Z" transform="translate(0 0)"/></svg>